Varta-SemiBold.ufo
<glyph name="dotlessi" format="2">
  <advance width="514.2098765432098"/>
  <unicode hex="0131"/>
  <anchor x="257.4320987654321" y="0.0" name="bottom"/>
  <anchor x="462.59259259259255" y="10.0" name="ogonek"/>
  <anchor x="257.4320987654321" y="998.5061728395061" name="top"/>
  <outline>
    <contour>
      <point x="162.25925925925927" y="0.0" type="line"/>
      <point x="352.25925925925924" y="0.0" type="line"/>
      <point x="352.25925925925924" y="998.5061728395061" type="line"/>
      <point x="162.25925925925927" y="998.5061728395061" type="line"/>
    </contour>
  </outline>
</glyph>
<glyph name="dotlessj" format="2">
  <advance width="517.8271604938271"/>
  <unicode hex="0237"/>
  <anchor x="259.08641975308643" y="-1040.0" name="bottom"/>
  <anchor x="259.08641975308643" y="998.5061728395061" name="top"/>
  <outline>
    <contour>
      <point x="66.92592592592592" y="-435.67901234567904" type="curve" smooth="yes"/>
      <point x="279.29629629629625" y="-435.67901234567904"/>
      <point x="356.2222222222222" y="-297.8518518518519"/>
      <point x="356.2222222222222" y="-92.00000000000003" type="curve" smooth="yes"/>
      <point x="356.2222222222222" y="999.1604938271605" type="line"/>
      <point x="163.25925925925927" y="999.1604938271605" type="line"/>
      <point x="163.25925925925927" y="-92.92592592592595" type="line"/>
      <point x="163.25925925925927" y="-211.65432098765436"/>
      <point x="138.2962962962963" y="-280.80246913580254"/>
      <point x="43.802469135802475" y="-280.80246913580254" type="curve" smooth="yes"/>
      <point x="9.419753086419757" y="-280.80246913580254"/>
      <point x="-23.308641975308642" y="-273.11111111111114"/>
      <point x="-47.96296296296296" y="-265.11111111111114" type="curve"/>
      <point x="-85.81481481481481" y="-409.3703703703704" type="line"/>
      <point x="-50.197530864197525" y="-423.67901234567904"/>
      <point x="1.1111111111111152" y="-435.67901234567904"/>
    </contour>
  </outline>
</glyph>
<glyph name="circumflexcomb" format="2">
  <unicode hex="0302"/>
  <anchor x="557.7345679012345" y="998.5061728395061" name="_top"/>
  <anchor x="557.7345679012345" y="1465.5061728395062" name="top"/>
  <outline>
    <contour>
      <point x="285.641975308642" y="1174.3086419753085" type="line"/>
      <point x="421.01234567901236" y="1174.3086419753085" type="line"/>
      <point x="553.2345679012345" y="1356.1851851851852" type="line"/>
      <point x="561.2345679012345" y="1356.1851851851852" type="line"/>
      <point x="694.1111111111111" y="1174.3086419753085" type="line"/>
      <point x="829.8271604938271" y="1174.3086419753085" type="line"/>
      <point x="635.5185185185185" y="1465.5061728395062" type="line"/>
      <point x="478.95061728395063" y="1465.5061728395062" type="line"/>
    </contour>
  </outline>
</glyph>
<glyph name="macroncomb" format="2">
  <unicode hex="0304"/>
  <anchor x="558.0617283950618" y="998.5061728395061" name="_top"/>
  <anchor x="558.0617283950618" y="1356.9012345679012" name="top"/>
  <outline>
    <contour>
      <point x="301.8024691358025" y="1227.8024691358025" type="line"/>
      <point x="814.320987654321" y="1227.8024691358025" type="line"/>
      <point x="814.320987654321" y="1356.9012345679012" type="line"/>
      <point x="301.8024691358025" y="1356.9012345679012" type="line"/>
    </contour>
  </outline>
</glyph>
<glyph name="brevecomb" format="2">
  <unicode hex="0306"/>
  <anchor x="268.08641975308643" y="998.5061728395061" name="_top"/>
  <anchor x="268.08641975308643" y="1367.567901234568" name="top"/>
  <outline>
    <contour>
      <point x="268.08641975308643" y="1138.0617283950617" type="curve" smooth="yes"/>
      <point x="434.9753086419753" y="1138.0617283950617"/>
      <point x="511.8641975308642" y="1247.1728395061727"/>
      <point x="526.1728395061729" y="1367.567901234568" type="curve"/>
      <point x="410.69135802469134" y="1367.567901234568" type="line"/>
      <point x="398.03703703703707" y="1304.8024691358025"/>
      <point x="355.61728395061726" y="1245.6172839506173"/>
      <point x="268.08641975308643" y="1245.6172839506173" type="curve" smooth="yes"/>
      <point x="180.55555555555554" y="1245.6172839506173"/>
      <point x="138.1358024691358" y="1304.8024691358025"/>
      <point x="125.48148148148147" y="1367.567901234568" type="curve"/>
      <point x="10.0" y="1367.567901234568" type="line"/>
      <point x="24.308641975308642" y="1247.1728395061727"/>
      <point x="101.19753086419753" y="1138.0617283950617"/>
    </contour>
  </outline>
</glyph>
<glyph name="dotaccentcomb" format="2">
  <unicode hex="0307"/>
  <anchor x="130.2469135802469" y="998.5061728395061" name="_top"/>
  <anchor x="130.2469135802469" y="1430.8641975308642" name="top"/>
  <outline>
    <contour>
      <point x="130.2469135802469" y="1194.6049382716049" type="curve" smooth="yes"/>
      <point x="198.98765432098764" y="1194.6049382716049"/>
      <point x="250.14814814814812" y="1242.7654320987654"/>
      <point x="250.14814814814812" y="1313.5802469135801" type="curve" smooth="yes"/>
      <point x="250.14814814814812" y="1381.358024691358"/>
      <point x="198.98765432098764" y="1430.8641975308642"/>
      <point x="130.2469135802469" y="1430.8641975308642" type="curve" smooth="yes"/>
      <point x="61.50617283950616" y="1430.8641975308642"/>
      <point x="10.0" y="1381.358024691358"/>
      <point x="10.0" y="1313.5802469135801" type="curve" smooth="yes"/>
      <point x="10.0" y="1242.7654320987654"/>
      <point x="61.50617283950616" y="1194.6049382716049"/>
    </contour>
  </outline>
</glyph>
<glyph name="dieresiscomb" format="2">
  <unicode hex="0308"/>
  <anchor x="557.5617283950618" y="998.5061728395061" name="_top"/>
  <anchor x="557.8888888888889" y="1236.0246913580247" name="top"/>
  <outline>
    <contour>
      <point x="376.7654320987654" y="1121.6913580246915" type="curve" smooth="yes"/>
      <point x="438.88888888888886" y="1121.6913580246915"/>
      <point x="483.77777777777777" y="1167.5432098765432"/>
      <point x="483.77777777777777" y="1229.358024691358" type="curve" smooth="yes"/>
      <point x="483.77777777777777" y="1289.8271604938273"/>
      <point x="438.88888888888886" y="1336.0246913580247"/>
      <point x="376.7654320987654" y="1336.0246913580247" type="curve" smooth="yes"/>
      <point x="314.641975308642" y="1336.0246913580247"/>
      <point x="269.7530864197531" y="1289.8271604938273"/>
      <point x="269.7530864197531" y="1229.358024691358" type="curve" smooth="yes"/>
      <point x="269.7530864197531" y="1167.5432098765432"/>
      <point x="314.641975308642" y="1121.6913580246915"/>
    </contour>
    <contour>
      <point x="738.358024691358" y="1121.6913580246915" type="curve" smooth="yes"/>
      <point x="801.8271604938271" y="1121.6913580246915"/>
      <point x="845.3703703703703" y="1167.5432098765432"/>
      <point x="845.3703703703703" y="1229.358024691358" type="curve" smooth="yes"/>
      <point x="845.3703703703703" y="1289.8271604938273"/>
      <point x="801.8271604938271" y="1336.0246913580247"/>
      <point x="738.358024691358" y="1336.0246913580247" type="curve" smooth="yes"/>
      <point x="676.2345679012345" y="1336.0246913580247"/>
      <point x="632.0370370370371" y="1289.8271604938273"/>
      <point x="632.0370370370371" y="1229.358024691358" type="curve" smooth="yes"/>
      <point x="632.0370370370371" y="1167.5432098765432"/>
      <point x="676.2345679012345" y="1121.6913580246915"/>
    </contour>
  </outline>
</glyph>
<glyph name="ringcomb" format="2">
  <unicode hex="030A"/>
  <anchor x="558.2345679012345" y="998.5061728395061" name="_top"/>
  <anchor x="558.2345679012345" y="1496.9382716049383" name="top"/>
  <outline>
    <contour>
      <point x="557.2345679012345" y="1112.5802469135801" type="curve" smooth="yes"/>
      <point x="673.358024691358" y="1112.5802469135801"/>
      <point x="755.9382716049382" y="1189.1975308641975"/>
      <point x="755.9382716049382" y="1305.0864197530864" type="curve" smooth="yes"/>
      <point x="755.9382716049382" y="1420.320987654321"/>
      <point x="673.358024691358" y="1496.9382716049383"/>
      <point x="557.2345679012345" y="1496.9382716049383" type="curve" smooth="yes"/>
      <point x="442.11111111111114" y="1496.9382716049383"/>
      <point x="360.5308641975309" y="1420.320987654321"/>
      <point x="360.5308641975309" y="1305.0864197530864" type="curve" smooth="yes"/>
      <point x="360.5308641975309" y="1189.1975308641975"/>
      <point x="442.11111111111114" y="1112.5802469135801"/>
    </contour>
    <contour>
      <point x="557.2345679012345" y="1194.2839506172838" type="curve" smooth="yes"/>
      <point x="503.5061728395062" y="1194.2839506172838"/>
      <point x="461.77777777777777" y="1238.0123456790122"/>
      <point x="461.77777777777777" y="1305.0864197530864" type="curve" smooth="yes"/>
      <point x="461.77777777777777" y="1371.5061728395062"/>
      <point x="503.5061728395062" y="1415.2345679012346"/>
      <point x="557.2345679012345" y="1415.2345679012346" type="curve" smooth="yes"/>
      <point x="610.9629629629629" y="1415.2345679012346"/>
      <point x="652.6913580246913" y="1371.5061728395062"/>
      <point x="652.6913580246913" y="1305.0864197530864" type="curve" smooth="yes"/>
      <point x="652.6913580246913" y="1238.0123456790122"/>
      <point x="610.9629629629629" y="1194.2839506172838"/>
    </contour>
  </outline>
</glyph>
<glyph name="hungarumlautcomb" format="2">
  <unicode hex="030B"/>
  <anchor x="568.9259259259259" y="998.5061728395061" name="_top"/>
  <anchor x="654.9691358024692" y="1465.5061728395062" name="top"/>
  <outline>
    <contour>
      <point x="346.98765432098764" y="1169.962962962963" type="line"/>
      <point x="471.77777777777777" y="1169.962962962963" type="line"/>
      <point x="654.320987654321" y="1465.5061728395062" type="line"/>
      <point x="492.0246913580247" y="1465.5061728395062" type="line"/>
    </contour>
    <contour>
      <point x="656.6172839506173" y="1169.962962962963" type="line"/>
      <point x="781.0617283950617" y="1169.962962962963" type="line"/>
      <point x="962.9506172839506" y="1465.5061728395062" type="line"/>
      <point x="801.3086419753087" y="1465.5061728395062" type="line"/>
    </contour>
  </outline>
</glyph>
<glyph name="caroncomb" format="2">
  <unicode hex="030C"/>
  <anchor x="557.7345679012345" y="998.5061728395061" name="_top"/>
  <anchor x="557.7345679012345" y="1465.5061728395062" name="top"/>
  <outline>
    <contour>
      <point x="478.95061728395063" y="1174.3086419753085" type="line"/>
      <point x="635.5185185185185" y="1174.3086419753085" type="line"/>
      <point x="829.8271604938271" y="1465.5061728395062" type="line"/>
      <point x="694.1111111111111" y="1465.5061728395062" type="line"/>
      <point x="561.2345679012345" y="1281.9753086419753" type="line"/>
      <point x="553.2345679012345" y="1281.9753086419753" type="line"/>
      <point x="421.01234567901236" y="1465.5061728395062" type="line"/>
      <point x="285.641975308642" y="1465.5061728395062" type="line"/>
    </contour>
  </outline>
</glyph>
<glyph name="invertedCandraBindu-deva" format="2">
  <unicode hex="0900"/>
  <anchor x="272.34567901234567" y="1273.1728395061727" name="_candra"/>
  <anchor x="267.2716049382716" y="2006.1234567901233" name="top"/>
  <outline>
    <contour>
      <point x="269.34567901234567" y="1909.4074074074074" type="curve" smooth="yes"/>
      <point x="88.09876543209879" y="1909.4074074074074"/>
      <point x="-19.333333333333307" y="1802.0493827160494"/>
      <point x="-68.29629629629628" y="1687.3827160493827" type="curve"/>
      <point x="51.617283950617285" y="1616.4444444444443" type="line"/>
      <point x="95.96296296296296" y="1690.716049382716"/>
      <point x="161.92592592592592" y="1751.641975308642"/>
      <point x="275.58024691358025" y="1751.641975308642" type="curve" smooth="yes"/>
      <point x="397.1604938271605" y="1751.641975308642"/>
      <point x="453.61728395061726" y="1679.4444444444443"/>
      <point x="495.61728395061726" y="1612.4814814814815" type="curve"/>
      <point x="609.9135802469135" y="1677.8024691358023" type="line"/>
      <point x="540.0617283950617" y="1827.320987654321"/>
      <point x="428.55555555555554" y="1909.4074074074074"/>
    </contour>
    <contour>
      <point x="267.61728395061726" y="1675.4444444444443" type="curve" smooth="yes"/>
      <point x="194.25925925925927" y="1675.4444444444443"/>
      <point x="162.71604938271605" y="1644.9012345679012"/>
      <point x="162.71604938271605" y="1572.1975308641975" type="curve" smooth="yes"/>
      <point x="162.71604938271605" y="1498.8395061728395"/>
      <point x="194.25925925925927" y="1468.2962962962963"/>
      <point x="267.61728395061726" y="1468.2962962962963" type="curve" smooth="yes"/>
      <point x="341.32098765432096" y="1468.2962962962963"/>
      <point x="372.5185185185185" y="1498.8395061728395"/>
      <point x="372.5185185185185" y="1572.1975308641975" type="curve" smooth="yes"/>
      <point x="372.5185185185185" y="1644.9012345679012"/>
      <point x="341.32098765432096" y="1675.4444444444443"/>
    </contour>
  </outline>
</glyph>
<glyph name="eLongCandra-deva" format="2">
  <unicode hex="0955"/>
  <anchor x="375.9012345679012" y="1282.1604938271605" name="_top"/>
  <outline>
    <contour>
      <point x="405.3333333333333" y="1685.938271604938" type="curve" smooth="yes"/>
      <point x="543.6419753086419" y="1685.938271604938"/>
      <point x="661.7530864197531" y="1741.320987654321"/>
      <point x="744.7283950617284" y="1821.79012345679" type="curve"/>
      <point x="673.5061728395061" y="1971.5802469135801" type="line"/>
      <point x="602.5925925925926" y="1902.5925925925926"/>
      <point x="535.604938271605" y="1844.9753086419753"/>
      <point x="396.71604938271605" y="1844.9753086419753" type="curve" smooth="yes"/>
      <point x="253.20987654320987" y="1844.9753086419753"/>
      <point x="153.48148148148147" y="1915.9753086419753"/>
      <point x="92.20987654320986" y="1967.9753086419753" type="curve"/>
      <point x="10.0" y="1871.2222222222222" type="line"/>
      <point x="96.93827160493825" y="1768.5555555555554"/>
      <point x="240.55555555555554" y="1685.938271604938"/>
    </contour>
    <contour>
      <point x="61.62962962962962" y="1436.6172839506173" type="line"/>
      <point x="692.1358024691358" y="1436.6172839506173" type="line"/>
      <point x="692.1358024691358" y="1592.3086419753085" type="line"/>
      <point x="61.62962962962962" y="1592.3086419753085" type="line"/>
    </contour>
  </outline>
</glyph>
<glyph name="zero-deva" format="2">
  <advance width="966.6543209876543"/>
  <unicode hex="0966"/>
  <outline>
    <contour>
      <point x="486.0" y="207.80246913580248" type="curve" smooth="yes"/>
      <point x="641.8518518518518" y="207.80246913580248"/>
      <point x="821.4320987654321" y="298.8024691358025"/>
      <point x="821.4320987654321" y="556.8395061728395" type="curve" smooth="yes"/>
      <point x="821.4320987654321" y="785.8148148148148"/>
      <point x="695.0" y="938.7407407407408"/>
      <point x="480.0" y="938.7407407407408" type="curve" smooth="yes"/>
      <point x="324.8024691358025" y="938.7407407407408"/>
      <point x="145.22222222222223" y="847.7407407407408"/>
      <point x="145.22222222222223" y="582.5061728395061" type="curve" smooth="yes"/>
      <point x="145.22222222222223" y="361.8024691358025"/>
      <point x="270.61728395061726" y="207.80246913580248"/>
    </contour>
    <contour>
      <point x="479.65432098765433" y="353.71604938271605" type="curve"/>
      <point x="372.9382716049383" y="353.71604938271605"/>
      <point x="313.71604938271605" y="420.55555555555554"/>
      <point x="313.0617283950617" y="565.6543209876543" type="curve" smooth="yes"/>
      <point x="312.4074074074074" y="730.0246913580247"/>
      <point x="385.66666666666663" y="792.5185185185186"/>
      <point x="485.34567901234567" y="792.5185185185186" type="curve" smooth="yes"/>
      <point x="592.0246913580247" y="792.5185185185186"/>
      <point x="653.5925925925926" y="724.3333333333334"/>
      <point x="653.5925925925926" y="573.6913580246913" type="curve" smooth="yes"/>
      <point x="653.5925925925926" y="417.2098765432099"/>
      <point x="579.9876543209876" y="353.71604938271605"/>
    </contour>
  </outline>
</glyph>
<glyph name="ba_ra-deva" format="2">
  <advance width="1116.0864197530864"/>
  <anchor x="841.7777777777777" y="27.34567901234568" name="bottom"/>
  <anchor x="492.64197530864203" y="1273.5185185185185" name="candra"/>
  <anchor x="841.7777777777777" y="1287.3456790123457" name="top"/>
  <anchor x="162.283950617284" y="42.03703703703704" name="nukta"/>
  <outline>
    <contour>
      <point x="261.4567901234568" y="-82.25925925925924" type="line"/>
      <point x="834.1358024691358" y="344.1851851851852" type="line"/>
      <point x="772.6913580246913" y="442.55555555555554" type="line"/>
      <point x="160.01234567901236" y="49.382716049382715" type="line"/>
    </contour>
    <component base="ba-deva"/>
  </outline>
</glyph>
<glyph name="bh_ra-deva" format="2">
  <advance width="750.5061728395061"/>
  <outline>
    <contour>
      <point x="381.09876543209873" y="-56.86419753086418" type="line"/>
      <point x="984.2592592592592" y="431.2098765432099" type="line"/>
      <point x="899.6666666666666" y="532.1111111111111" type="line"/>
      <point x="271.69135802469134" y="74.39506172839505" type="line"/>
    </contour>
    <contour>
      <point x="285.0246913580247" y="549.0370370370371" type="line"/>
      <point x="465.98765432098764" y="549.0370370370371" type="line"/>
      <point x="465.98765432098764" y="1033.7283950617284" type="line" smooth="yes"/>
      <point x="465.98765432098764" y="1159.7037037037037"/>
      <point x="446.02469135802465" y="1293.8641975308642"/>
      <point x="231.74074074074073" y="1293.8641975308642" type="curve" smooth="yes"/>
      <point x="167.8148148148148" y="1293.8641975308642"/>
      <point x="124.35802469135801" y="1284.8271604938273"/>
      <point x="85.39506172839505" y="1267.8641975308642" type="curve"/>
      <point x="112.93827160493825" y="1117.4444444444446" type="line"/>
      <point x="135.9753086419753" y="1125.0987654320988"/>
      <point x="164.19753086419752" y="1131.8271604938273"/>
      <point x="198.03703703703704" y="1131.8271604938273" type="curve" smooth="yes"/>
      <point x="253.98765432098767" y="1132.4814814814815"/>
      <point x="285.0246913580247" y="1110.4074074074074"/>
      <point x="285.0246913580247" y="1037.0740740740741" type="curve" smooth="yes"/>
    </contour>
    <contour>
      <point x="317.7283950617284" y="295.91358024691357" type="line"/>
      <point x="439.7901234567901" y="296.95061728395063"/>
      <point x="464.98765432098764" y="358.38271604938274"/>
      <point x="464.98765432098764" y="430.77777777777777" type="curve" smooth="yes"/>
      <point x="464.98765432098764" y="643.0246913580247" type="line"/>
      <point x="318.34567901234567" y="643.0246913580247" type="line"/>
      <point x="137.9135802469136" y="621.716049382716" type="line"/>
      <point x="137.9135802469136" y="496.03703703703707" type="line"/>
    </contour>
    <contour>
      <point x="290.3703703703704" y="477.22222222222223" type="line"/>
      <point x="911.2098765432098" y="477.22222222222223" type="line"/>
      <point x="911.2098765432098" y="637.6419753086419" type="line"/>
      <point x="290.3703703703704" y="637.6419753086419" type="line"/>
    </contour>
  </outline>
</glyph>
<glyph name="brevecomb.cap" format="2">
  <anchor x="268.08641975308643" y="1342.0740740740741" name="_top"/>
  <anchor x="268.08641975308643" y="1676.9259259259259" name="top"/>
  <outline>
    <contour>
      <point x="268.08641975308643" y="1477.4197530864199" type="curve" smooth="yes"/>
      <point x="434.9753086419753" y="1477.4197530864199"/>
      <point x="511.8641975308642" y="1586.530864197531"/>
      <point x="526.1728395061729" y="1706.9259259259259" type="curve"/>
      <point x="410.69135802469134" y="1706.9259259259259" type="line"/>
      <point x="398.03703703703707" y="1644.1604938271605"/>
      <point x="355.61728395061726" y="1584.9753086419753"/>
      <point x="268.08641975308643" y="1584.9753086419753" type="curve" smooth="yes"/>
      <point x="180.55555555555554" y="1584.9753086419753"/>
      <point x="138.1358024691358" y="1644.1604938271605"/>
      <point x="125.48148148148147" y="1706.9259259259259" type="curve"/>
      <point x="10.0" y="1706.9259259259259" type="line"/>
      <point x="24.308641975308642" y="1586.530864197531"/>
      <point x="101.19753086419753" y="1477.4197530864199"/>
    </contour>
  </outline>
</glyph>
<glyph name="c_na-deva" format="2">
  <advance width="1246.8271604938273"/>
  <anchor x="968.2098765432098" y="0.0" name="bottom"/>
  <anchor x="881.7777777777777" y="1273.1728395061727" name="candra"/>
  <anchor x="251.79012345679018" y="68.86419753086417" name="nukta"/>
  <anchor x="967.5185185185185" y="1273.1728395061727" name="top"/>
  <outline>
    <contour>
      <point x="548.0123456790124" y="-159.6049382716049" type="line"/>
      <point x="587.0246913580247" y="-129.1358024691358"/>
      <point x="602.8765432098766" y="-99.01234567901233"/>
      <point x="604.5308641975308" y="-70.85185185185185" type="curve" smooth="yes"/>
      <point x="606.1851851851852" y="-44.30864197530864"/>
      <point x="596.8765432098766" y="-18.419753086419757"/>
      <point x="582.5679012345679" y="3.8518518518518468" type="curve" smooth="yes"/>
      <point x="535.8148148148148" y="75.67901234567903" type="line"/>
      <point x="519.1234567901234" y="17.09876543209878" type="line"/>
      <point x="945.1358024691358" y="347.8395061728395" type="line"/>
      <point x="843.8641975308642" y="434.4567901234568" type="line"/>
      <point x="264.6543209876544" y="49.617283950617285" type="line"/>
      <point x="329.1604938271605" y="-72.7901234567901" type="line"/>
    </contour>
    <component base="ca-deva"/>
  </outline>
</glyph>
<glyph name="c_ra-deva" format="2">
  <advance width="745.5432098765432"/>
  <outline>
    <contour>
      <point x="318.04938271604937" y="-87.58024691358021" type="line"/>
      <point x="881.8271604938271" y="320.59259259259255" type="line"/>
      <point x="821.037037037037" y="418.96296296296293" type="line"/>
      <point x="218.2962962962963" y="44.09876543209878" type="line"/>
    </contour>
    <component base="c-deva"/>
  </outline>
</glyph>
<glyph name="circumflexcomb.cap" format="2">
  <anchor x="302.4444444444444" y="1342.0740740740741" name="_top"/>
  <anchor x="302.4444444444444" y="1676.9259259259259" name="top"/>
  <outline>
    <contour>
      <point x="10.0" y="1474.0740740740741" type="line"/>
      <point x="166.8765432098765" y="1474.0740740740741" type="line"/>
      <point x="298.4444444444444" y="1610.530864197531" type="line"/>
      <point x="306.4444444444444" y="1610.530864197531" type="line"/>
      <point x="438.01234567901236" y="1474.0740740740741" type="line"/>
      <point x="594.8888888888888" y="1474.0740740740741" type="line"/>
      <point x="397.88888888888886" y="1706.9259259259259" type="line"/>
      <point x="207.0" y="1706.9259259259259" type="line"/>
    </contour>
  </outline>
</glyph>
<glyph name="commaabovecomb.cap" format="2">
  <anchor x="113.98765432098764" y="1342.0740740740741" name="_top"/>
  <anchor x="113.98765432098764" y="1502.9753086419753" name="top"/>
  <outline>
    <contour>
      <point x="46.925925925925924" y="1113.037037037037" type="line"/>
      <point x="167.0864197530864" y="1166.037037037037"/>
      <point x="217.9753086419753" y="1257.6543209876543"/>
      <point x="217.9753086419753" y="1356.8518518518517" type="curve" smooth="yes"/>
      <point x="217.9753086419753" y="1452.0493827160494"/>
      <point x="180.04938271604937" y="1502.9753086419753"/>
      <point x="110.23456790123457" y="1502.9753086419753" type="curve" smooth="yes"/>
      <point x="63.0" y="1502.9753086419753"/>
      <point x="22.765432098765437" y="1470.0864197530864"/>
      <point x="22.765432098765437" y="1408.5061728395062" type="curve" smooth="yes"/>
      <point x="22.765432098765437" y="1353.2716049382716"/>
      <point x="67.03703703703704" y="1324.037037037037"/>
      <point x="110.58024691358024" y="1324.037037037037" type="curve" smooth="yes"/>
      <point x="116.58024691358024" y="1324.037037037037"/>
      <point x="122.58024691358024" y="1324.037037037037"/>
      <point x="127.58024691358024" y="1326.037037037037" type="curve"/>
      <point x="122.61728395061728" y="1266.6543209876543"/>
      <point x="86.0" y="1218.888888888889"/>
      <point x="10.0" y="1183.5061728395062" type="curve"/>
    </contour>
  </outline>
</glyph>
<glyph name="commaaccentcomb.cap" format="2">
  <anchor x="173.04938271604937" y="0.0" name="_bottom"/>
  <anchor x="173.04938271604937" y="-446.4691358024691" name="bottom"/>
  <outline>
    <contour>
      <point x="28.962962962962962" y="-506.4691358024691" type="line"/>
      <point x="189.9753086419753" y="-494.77777777777777"/>
      <point x="336.09876543209873" y="-438.1604938271605"/>
      <point x="336.09876543209873" y="-316.30864197530866" type="curve" smooth="yes"/>
      <point x="336.09876543209873" y="-222.7283950617284"/>
      <point x="274.48148148148147" y="-176.11111111111111"/>
      <point x="129.46913580246914" y="-155.41975308641975" type="curve"/>
      <point x="88.96296296296296" y="-239.50617283950618" type="line"/>
      <point x="147.30864197530863" y="-253.8148148148148"/>
      <point x="190.41975308641975" y="-276.5061728395062"/>
      <point x="190.41975308641975" y="-326.96296296296293" type="curve" smooth="yes"/>
      <point x="190.41975308641975" y="-379.0"/>
      <point x="117.07407407407408" y="-404.7283950617284"/>
      <point x="10.0" y="-417.7654320987654" type="curve"/>
    </contour>
  </outline>
</glyph>
<glyph name="commaturnedabovecomb.cap" format="2">
  <anchor x="114.98765432098764" y="1342.0740740740741" name="_top"/>
  <anchor x="114.98765432098764" y="1506.9382716049383" name="top"/>
  <outline>
    <contour>
      <point x="119.0864197530864" y="1115.6913580246915" type="curve" smooth="yes"/>
      <point x="166.320987654321" y="1115.6913580246915"/>
      <point x="205.55555555555554" y="1149.5802469135801"/>
      <point x="205.55555555555554" y="1211.8148148148148" type="curve" smooth="yes"/>
      <point x="205.55555555555554" y="1267.3950617283951"/>
      <point x="161.28395061728395" y="1296.6296296296296"/>
      <point x="117.39506172839505" y="1296.6296296296296" type="curve" smooth="yes"/>
      <point x="112.04938271604937" y="1296.6296296296296"/>
      <point x="107.39506172839505" y="1296.6296296296296"/>
      <point x="101.04938271604937" y="1294.2839506172838" type="curve"/>
      <point x="106.35802469135801" y="1354.6666666666667"/>
      <point x="141.9753086419753" y="1402.3950617283951"/>
      <point x="219.9753086419753" y="1437.1604938271605" type="curve"/>
      <point x="181.04938271604937" y="1506.9382716049383" type="line"/>
      <point x="61.5432098765432" y="1453.9382716049383"/>
      <point x="10.0" y="1361.6666666666667"/>
      <point x="10.0" y="1261.469135802469" type="curve" smooth="yes"/>
      <point x="10.0" y="1166.2716049382716"/>
      <point x="47.925925925925924" y="1115.6913580246915"/>
    </contour>
  </outline>
</glyph>
<glyph name="d_bh_ya-deva" format="2">
  <advance width="2564.1604938271603"/>
  <anchor x="2286.1975308641977" y="2.6172839506172823" name="bottom"/>
  <anchor x="2257.0864197530864" y="1273.1728395061727" name="candra"/>
  <anchor x="2286.8518518518517" y="1273.1728395061727" name="top"/>
  <outline>
    <contour>
      <point x="1907.0" y="101.80246913580247" type="curve" smooth="yes"/>
      <point x="2035.3086419753085" y="101.80246913580247"/>
      <point x="2134.8765432098767" y="148.14814814814815"/>
      <point x="2219.3333333333335" y="235.60493827160494" type="curve"/>
      <point x="2228.5679012345677" y="458.7654320987654" type="line"/>
      <point x="2145.259259259259" y="321.7654320987654"/>
      <point x="2010.3456790123455" y="267.18518518518516"/>
      <point x="1893.111111111111" y="267.18518518518516" type="curve" smooth="yes"/>
      <point x="1761.1604938271605" y="267.18518518518516"/>
      <point x="1659.6296296296296" y="337.5185185185185"/>
      <point x="1623.2839506172838" y="491.12345679012344" type="curve"/>
      <point x="1604.9012345679012" y="423.4938271604938" type="line"/>
      <point x="1709.753086419753" y="454.65432098765433"/>
      <point x="1876.358024691358" y="519.1851851851852"/>
      <point x="1876.358024691358" y="698.2222222222223" type="curve" smooth="yes"/>
      <point x="1876.358024691358" y="845.5802469135803"/>
      <point x="1766.2716049382716" y="899.8888888888889"/>
      <point x="1571.9135802469136" y="899.2345679012345" type="curve" smooth="yes"/>
      <point x="1176.7530864197531" y="898.2345679012345" type="line"/>
      <point x="1161.0987654320986" y="744.8148148148149" type="line"/>
      <point x="1596.4567901234568" y="744.8148148148149" type="line" smooth="yes"/>
      <point x="1667.2839506172838" y="744.8148148148149"/>
      <point x="1709.938271604938" y="728.2098765432099"/>
      <point x="1709.938271604938" y="689.2962962962963" type="curve" smooth="yes"/>
      <point x="1709.938271604938" y="633.3827160493827"/>
      <point x="1637.2469135802469" y="582.358024691358"/>
      <point x="1450.5555555555554" y="534.9382716049382" type="curve"/>
      <point x="1504.6296296296296" y="256.1975308641975"/>
      <point x="1668.3333333333333" y="101.80246913580247"/>
    </contour>
    <contour>
      <point x="1676.5555555555559" y="722.3703703703699" type="line"/>
      <point x="2502.9629629629626" y="1126.8148148148148" type="line"/>
      <point x="2459.407407407407" y="1246.5555555555554" type="line"/>
      <point x="1633.0000000000002" y="842.1111111111105" type="line"/>
    </contour>
    <contour>
      <point x="2026.9259259259254" y="395.11111111111154" type="line"/>
      <point x="2453.4938271604938" y="1135.1481481481483" type="line"/>
      <point x="2316.0864197530864" y="1171.0987654320988" type="line"/>
      <point x="1889.5185185185182" y="431.06172839506223" type="line"/>
    </contour>
    <contour>
      <point x="973.3827160493827" y="84.44444444444446" type="curve" smooth="yes"/>
      <point x="1089.0740740740741" y="84.44444444444446"/>
      <point x="1193.037037037037" y="106.06172839506175"/>
      <point x="1274.5802469135801" y="161.2962962962963" type="curve" smooth="yes"/>
      <point x="1344.888888888889" y="207.95061728395063"/>
      <point x="1372.1975308641975" y="263.4938271604938"/>
      <point x="1372.1975308641975" y="323.34567901234567" type="curve" smooth="yes"/>
      <point x="1372.1975308641975" y="420.59259259259255"/>
      <point x="1279.9876543209875" y="492.7901234567901"/>
      <point x="1169.0987654320988" y="522.8271604938271" type="curve"/>
      <point x="1067.2345679012346" y="441.7037037037037" type="line"/>
      <point x="1167.8148148148148" y="237.3827160493827" type="line"/>
      <point x="1225.7654320987654" y="310.4444444444444" type="line"/>
      <point x="1128.148148148148" y="246.86419753086417"/>
      <point x="1069.7407407407406" y="223.66666666666666"/>
      <point x="966.1111111111111" y="223.66666666666666" type="curve" smooth="yes"/>
      <point x="790.6543209876543" y="223.66666666666666"/>
      <point x="690.5185185185185" y="290.8148148148148"/>
      <point x="690.5185185185185" y="481.95061728395063" type="curve" smooth="yes"/>
      <point x="690.5185185185185" y="689.641975308642"/>
      <point x="800.6419753086419" y="744.1604938271605"/>
      <point x="1017.7407407407406" y="744.1604938271605" type="curve"/>
      <point x="1241.7407407407406" y="744.8148148148149" type="line"/>
      <point x="1241.7407407407406" y="1149.20987654321" type="line"/>
      <point x="1059.7777777777778" y="1149.20987654321" type="line"/>
      <point x="1059.7777777777778" y="848.641975308642" type="line"/>
      <point x="1172.432098765432" y="875.1851851851852" type="line"/>
      <point x="1094.8024691358025" y="897.9629629629629"/>
      <point x="1029.641975308642" y="905.5802469135803"/>
      <point x="977.0246913580247" y="905.5802469135803" type="curve" smooth="yes"/>
      <point x="634.0246913580247" y="905.5802469135803"/>
      <point x="501.9012345679012" y="746.3827160493827"/>
      <point x="501.9012345679012" y="503.38271604938274" type="curve" smooth="yes"/>
      <point x="501.9012345679012" y="238.2962962962963"/>
      <point x="656.9012345679013" y="84.44444444444446"/>
    </contour>
    <contour>
      <point x="619.5432098765432" y="-434.8765432098765" type="line"/>
      <point x="709.8271604938271" y="-378.09876543209873"/>
      <point x="694.2469135802469" y="-316.9753086419753"/>
      <point x="659.0493827160494" y="-254.54320987654322" type="curve" smooth="yes"/>
      <point x="558.8518518518518" y="-77.49382716049384" type="line"/>
      <point x="453.22222222222223" y="-140.2716049382716" type="line"/>
      <point x="307.40740740740745" y="-249.77777777777777" type="line"/>
      <point x="369.41975308641975" y="-358.8765432098765" type="line"/>
    </contour>
    <contour>
      <point x="469.14814814814815" y="-237.45679012345676" type="line"/>
      <point x="604.8271604938271" y="-156.86419753086417" type="line"/>
      <point x="416.7037037037037" y="165.45679012345678" type="line" smooth="yes"/>
      <point x="352.88888888888886" y="275.4691358024691"/>
      <point x="270.34567901234567" y="380.358024691358"/>
      <point x="97.8395061728395" y="279.4691358024691" type="curve" smooth="yes"/>
      <point x="54.111111111111114" y="253.12345679012344"/>
      <point x="17.419753086419757" y="223.04938271604937"/>
      <point x="-13.12345679012345" y="185.8148148148148" type="curve"/>
      <point x="75.12345679012346" y="74.17283950617286" type="line"/>
      <point x="99.35802469135801" y="95.79012345679014"/>
      <point x="125.74074074074073" y="119.2098765432099"/>
      <point x="152.58024691358025" y="135.97530864197535" type="curve" smooth="yes"/>
      <point x="206.76543209876544" y="170.70370370370372"/>
      <point x="236.25925925925927" y="164.35802469135805"/>
      <point x="279.67901234567904" y="88.2098765432099" type="curve" smooth="yes"/>
    </contour>
    <contour>
      <point x="503.4567901234568" y="-307.5061728395061" type="line"/>
      <point x="1233.4074074074074" y="138.90123456790127" type="line"/>
      <point x="1141.716049382716" y="230.0864197530864" type="line"/>
      <point x="429.4814814814815" y="-159.7037037037037" type="line"/>
    </contour>
    <contour>
      <point x="1361.320987654321" y="-148.53086419753083" type="line"/>
      <point x="1504.1975308641975" y="-62.975308641975296" type="line"/>
      <point x="1283.6049382716049" y="263.358024691358" type="line"/>
      <point x="1176.1975308641975" y="214.6172839506173" type="line"/>
    </contour>
    <contour>
      <point x="-12.0" y="1117.4814814814815" type="line"/>
      <point x="1482.9135802469136" y="1117.4814814814815" type="line"/>
      <point x="1482.9135802469136" y="1273.1728395061727" type="line"/>
      <point x="-12.0" y="1273.1728395061727" type="line"/>
    </contour>
  </outline>
</glyph>
<glyph name="d_d_ya-deva" format="2">
  <advance width="2098.3456790123455"/>
  <anchor x="1817.358024691358" y="0.0" name="bottom"/>
  <anchor x="1552.7407407407409" y="1273.5185185185185" name="candra"/>
  <anchor x="1812.1234567901236" y="1287.3456790123457" name="top"/>
  <outline>
    <contour>
      <point x="898.7901234567902" y="1117.4814814814815" type="line"/>
      <point x="2115.2716049382716" y="1117.4814814814815" type="line"/>
      <point x="2115.2716049382716" y="1273.1728395061727" type="line"/>
      <point x="898.7901234567902" y="1273.1728395061727" type="line"/>
    </contour>
    <contour>
      <point x="1444.358024691358" y="138.06172839506175" type="curve" smooth="yes"/>
      <point x="1572.6666666666667" y="138.06172839506175"/>
      <point x="1672.5802469135801" y="184.40740740740742"/>
      <point x="1756.6913580246915" y="271.8641975308642" type="curve"/>
      <point x="1765.9259259259259" y="495.02469135802465" type="line"/>
      <point x="1682.6172839506173" y="358.02469135802465"/>
      <point x="1548.0493827160494" y="303.4444444444444"/>
      <point x="1430.8148148148148" y="303.4444444444444" type="curve" smooth="yes"/>
      <point x="1298.5185185185185" y="303.4444444444444"/>
      <point x="1196.9876543209875" y="348.66666666666663"/>
      <point x="1160.9876543209875" y="482.2716049382716" type="curve"/>
      <point x="1142.2592592592591" y="414.641975308642" type="line"/>
      <point x="1247.4567901234568" y="445.8024691358025"/>
      <point x="1414.0617283950617" y="508.40740740740745"/>
      <point x="1414.0617283950617" y="680.9012345679013" type="curve" smooth="yes"/>
      <point x="1414.0617283950617" y="856.7654320987655"/>
      <point x="1298.79012345679" y="911.3086419753087"/>
      <point x="1104.0864197530864" y="910.6543209876543" type="curve" smooth="yes"/>
      <point x="701.9135802469135" y="910.0" type="line"/>
      <point x="714.2962962962963" y="759.5432098765432" type="line"/>
      <point x="1129.2839506172838" y="759.5432098765432" type="line" smooth="yes"/>
      <point x="1199.4567901234568" y="759.5432098765432"/>
      <point x="1247.2962962962963" y="740.0493827160494"/>
      <point x="1247.2962962962963" y="679.1358024691358" type="curve" smooth="yes"/>
      <point x="1247.2962962962963" y="617.9876543209876"/>
      <point x="1174.6049382716049" y="573.5061728395061"/>
      <point x="988.5679012345679" y="526.0864197530864" type="curve"/>
      <point x="1042.3333333333333" y="267.34567901234567"/>
      <point x="1206.037037037037" y="138.06172839506175"/>
    </contour>
    <contour>
      <point x="1732.111111111111" y="0.0" type="line"/>
      <point x="1913.0740740740741" y="0.0" type="line"/>
      <point x="1913.0740740740741" y="1144.4814814814815" type="line"/>
      <point x="1732.111111111111" y="1144.4814814814815" type="line"/>
    </contour>
    <component base="d_da-deva"/>
  </outline>
</glyph>
<glyph name="d_dh_ya-deva" format="2">
  <advance width="2384.901234567901"/>
  <anchor x="2105.6296296296296" y="27.34567901234568" name="bottom"/>
  <anchor x="2091.6543209876545" y="1273.1728395061727" name="candra"/>
  <anchor x="2101.0493827160494" y="1287.3456790123457" name="top"/>
  <outline>
    <contour>
      <point x="1727.7407407407406" y="101.80246913580247" type="curve" smooth="yes"/>
      <point x="1856.0493827160494" y="101.80246913580247"/>
      <point x="1955.6172839506173" y="148.14814814814815"/>
      <point x="2040.0740740740741" y="235.60493827160494" type="curve"/>
      <point x="2049.3086419753085" y="458.7654320987654" type="line"/>
      <point x="1966.0" y="321.7654320987654"/>
      <point x="1831.0864197530864" y="267.18518518518516"/>
      <point x="1713.8518518518517" y="267.18518518518516" type="curve" smooth="yes"/>
      <point x="1581.9012345679012" y="267.18518518518516"/>
      <point x="1480.3703703703702" y="337.5185185185185"/>
      <point x="1444.0246913580247" y="491.12345679012344" type="curve"/>
      <point x="1425.641975308642" y="423.4938271604938" type="line"/>
      <point x="1530.4938271604938" y="454.65432098765433"/>
      <point x="1697.0398765432099" y="519.2447283950618"/>
      <point x="1697.0987654320986" y="698.2222222222223" type="curve" smooth="yes"/>
      <point x="1697.0398765432099" y="845.5802469135803"/>
      <point x="1587.0123456790122" y="899.8888888888889"/>
      <point x="1392.6543209876543" y="899.2345679012345" type="curve" smooth="yes"/>
      <point x="997.4938271604938" y="898.2345679012345" type="line"/>
      <point x="981.8395061728395" y="744.8148148148149" type="line"/>
      <point x="1417.1975308641975" y="744.8148148148149" type="line" smooth="yes"/>
      <point x="1488.0246913580247" y="744.8148148148149"/>
      <point x="1530.679012345679" y="728.2098765432099"/>
      <point x="1530.679012345679" y="689.2962962962963" type="curve" smooth="yes"/>
      <point x="1530.679012345679" y="633.3827160493827"/>
      <point x="1457.9876543209875" y="582.358024691358"/>
      <point x="1271.2962962962963" y="534.9382716049382" type="curve"/>
      <point x="1325.3703703703704" y="256.1975308641975"/>
      <point x="1489.0740740740741" y="101.80246913580247"/>
    </contour>
    <contour>
      <point x="712.111111111112" y="722.3703703703699" type="line"/>
      <point x="2323.7037037037035" y="1126.8148148148148" type="line"/>
      <point x="2280.148148148148" y="1246.5555555555554" type="line"/>
      <point x="668.5555555555563" y="842.1111111111105" type="line"/>
    </contour>
    <contour>
      <point x="1467.4786419753077" y="395.11111111111154" type="line"/>
      <point x="2274.2345679012346" y="1135.1481481481483" type="line"/>
      <point x="2136.8271604938273" y="1171.0987654320988" type="line"/>
      <point x="1330.0712345679005" y="431.06172839506223" type="line"/>
    </contour>
    <contour>
      <point x="827.716049382716" y="71.4814814814815" type="curve" smooth="yes"/>
      <point x="936.4814814814814" y="71.4814814814815"/>
      <point x="1025.2839506172838" y="92.86419753086422"/>
      <point x="1106.8271604938273" y="147.13580246913583" type="curve" smooth="yes"/>
      <point x="1167.5925925925926" y="188.17283950617286"/>
      <point x="1204.4444444444443" y="263.4938271604938"/>
      <point x="1204.4444444444443" y="323.34567901234567" type="curve" smooth="yes"/>
      <point x="1204.4444444444443" y="420.59259259259255"/>
      <point x="1112.2345679012346" y="492.7901234567901"/>
      <point x="1001.3456790123457" y="522.8271604938271" type="curve"/>
      <point x="899.4814814814815" y="441.7037037037037" type="line"/>
      <point x="1000.0617283950618" y="233.76543209876544" type="line"/>
      <point x="1073.1728395061727" y="310.4444444444444" type="line"/>
      <point x="975.5555555555555" y="246.86419753086417"/>
      <point x="917.1481481481482" y="223.66666666666666"/>
      <point x="813.5185185185185" y="223.66666666666666" type="curve" smooth="yes"/>
      <point x="638.0617283950617" y="223.66666666666666"/>
      <point x="537.9259259259259" y="290.8148148148148"/>
      <point x="537.9259259259259" y="481.95061728395063" type="curve" smooth="yes"/>
      <point x="537.9259259259259" y="689.641975308642"/>
      <point x="648.0493827160493" y="744.1604938271605"/>
      <point x="865.1481481481482" y="744.1604938271605" type="curve"/>
      <point x="1089.148148148148" y="745.4691358024692" type="line"/>
      <point x="1089.148148148148" y="1149.20987654321" type="line"/>
      <point x="907.1851851851852" y="1149.20987654321" type="line"/>
      <point x="907.1851851851852" y="848.641975308642" type="line"/>
      <point x="1019.8395061728395" y="875.1851851851852" type="line"/>
      <point x="942.2098765432098" y="897.9629629629629"/>
      <point x="877.0493827160494" y="905.5802469135803"/>
      <point x="824.4320987654321" y="905.5802469135803" type="curve" smooth="yes"/>
      <point x="481.4320987654321" y="905.5802469135803"/>
      <point x="349.30864197530866" y="746.3827160493827"/>
      <point x="349.30864197530866" y="503.38271604938274" type="curve" smooth="yes"/>
      <point x="349.30864197530866" y="252.14814814814815"/>
      <point x="504.30864197530866" y="71.4814814814815"/>
    </contour>
    <contour>
      <point x="306.5061728395062" y="336.33333333333337" type="curve"/>
      <point x="259.0740740740741" y="448.77777777777777" type="line"/>
      <point x="147.45679012345678" y="409.8148148148148"/>
      <point x="61.95061728395063" y="302.5679012345679"/>
      <point x="60.60493827160495" y="187.22222222222223" type="curve" smooth="yes"/>
      <point x="58.25925925925927" y="32.01234567901237"/>
      <point x="159.58024691358025" y="-59.913580246913554"/>
      <point x="323.28395061728395" y="-77.13580246913578" type="curve" smooth="yes"/>
      <point x="366.9753086419753" y="-82.20987654320986"/>
      <point x="415.358024691358" y="-78.97530864197529"/>
      <point x="468.4320987654321" y="-72.39506172839505" type="curve"/>
      <point x="520.8641975308642" y="27.580246913580243" type="line"/>
      <point x="452.9382716049383" y="28.925925925925924"/>
      <point x="390.01234567901236" y="34.2716049382716"/>
      <point x="343.66666666666663" y="47.617283950617285" type="curve" smooth="yes"/>
      <point x="265.9753086419753" y="69.34567901234568"/>
      <point x="217.82716049382714" y="126.19753086419753"/>
      <point x="217.48148148148147" y="190.11111111111111" type="curve" smooth="yes"/>
      <point x="216.7901234567901" y="251.17283950617286"/>
      <point x="250.35802469135803" y="297.44444444444446"/>
    </contour>
    <contour>
      <point x="699.4320987654321" y="-412.98765432098764" type="curve" smooth="yes"/>
      <point x="1037.8395061728395" y="-412.98765432098764"/>
      <point x="1143.3333333333333" y="-32.87654320987655"/>
      <point x="1127.2839506172838" y="206.65432098765433" type="curve"/>
      <point x="1011.9506172839506" y="256.58024691358025" type="line"/>
      <point x="989.4938271604939" y="-65.41975308641972"/>
      <point x="874.8271604938271" y="-263.8024691358025"/>
      <point x="692.4320987654321" y="-263.8024691358025" type="curve" smooth="yes"/>
      <point x="618.7901234567901" y="-263.8024691358025"/>
      <point x="559.3703703703703" y="-220.23456790123456"/>
      <point x="559.3703703703703" y="-132.19753086419752" type="curve" smooth="yes"/>
      <point x="559.3703703703703" y="-10.938271604938258"/>
      <point x="669.6296296296296" y="54.296296296296305"/>
      <point x="749.0493827160494" y="97.7530864197531" type="curve"/>
      <point x="697.7037037037037" y="216.9753086419753" type="line"/>
      <point x="602.2222222222223" y="169.8148148148148"/>
      <point x="388.60493827160496" y="75.03703703703704"/>
      <point x="388.60493827160496" y="-131.8148148148148" type="curve" smooth="yes"/>
      <point x="388.60493827160496" y="-306.09876543209873"/>
      <point x="522.5802469135803" y="-412.98765432098764"/>
    </contour>
    <contour>
      <point x="1221.5802469135801" y="-148.53086419753083" type="line"/>
      <point x="1350.9506172839506" y="-62.975308641975296" type="line"/>
      <point x="1131.0123456790122" y="263.358024691358" type="line"/>
      <point x="1036.4567901234568" y="214.6172839506173" type="line"/>
    </contour>
  </outline>
</glyph>
<glyph name="d_ma-deva" format="2">
  <advance width="1548.8271604938273"/>
  <anchor x="1268.1728395061727" y="0.0" name="bottom"/>
  <anchor x="829.7037037037038" y="1273.5185185185185" name="candra"/>
  <anchor x="1268.5555555555554" y="1273.1728395061727" name="top"/>
  <outline>
    <contour>
      <point x="840.7530864197531" y="278.8518518518519" type="line"/>
      <point x="840.0617283950617" y="403.88888888888886" type="line" smooth="yes"/>
      <point x="837.9876543209876" y="619.8148148148148"/>
      <point x="688.2469135802469" y="659.2345679012345"/>
      <point x="578.7901234567901" y="658.8888888888889" type="curve" smooth="yes"/>
      <point x="482.9382716049383" y="658.5432098765432"/>
      <point x="409.1728395061728" y="641.5061728395061"/>
      <point x="338.59259259259255" y="628.7777777777777" type="curve"/>
      <point x="320.3703703703703" y="660.9259259259259"/>
      <point x="307.91358024691357" y="697.5308641975308"/>
      <point x="307.91358024691357" y="736.0987654320987" type="curve" smooth="yes"/>
      <point x="307.91358024691357" y="803.8641975308642"/>
      <point x="327.3333333333333" y="838.1234567901234"/>
      <point x="458.75308641975306" y="838.1234567901234" type="curve" smooth="yes"/>
      <point x="770.6913580246913" y="838.1234567901234" type="line"/>
      <point x="751.4567901234568" y="1000.5061728395061" type="line"/>
      <point x="402.7037037037037" y="998.8518518518518" type="line" smooth="yes"/>
      <point x="223.5679012345679" y="998.1975308641976"/>
      <point x="138.1851851851852" y="921.6543209876543"/>
      <point x="138.1851851851852" y="784.4938271604939" type="curve" smooth="yes"/>
      <point x="138.1851851851852" y="672.4074074074074"/>
      <point x="189.41975308641975" y="554.4320987654321"/>
      <point x="254.2716049382716" y="495.46913580246917" type="curve" smooth="yes"/>
      <point x="278.12345679012344" y="474.2345679012346"/>
      <point x="308.7407407407407" y="457.46913580246917"/>
      <point x="344.1604938271605" y="463.1604938271605" type="curve" smooth="yes"/>
      <point x="400.08641975308643" y="472.1604938271605"/>
      <point x="482.04938271604937" y="490.8518518518519"/>
      <point x="537.7283950617284" y="490.8518518518519" type="curve" smooth="yes"/>
      <point x="622.9506172839506" y="490.8518518518519"/>
      <point x="663.7901234567902" y="458.71604938271605"/>
      <point x="663.0987654320987" y="389.1975308641975" type="curve" smooth="yes"/>
      <point x="662.7530864197531" y="282.81481481481484" type="line"/>
    </contour>
    <contour>
      <point x="695.4567901234568" y="7.271604938271636" type="line"/>
      <point x="815.8641975308642" y="8.308641975308674"/>
      <point x="842.0617283950617" y="72.04938271604941"/>
      <point x="842.0617283950617" y="144.44444444444446" type="curve" smooth="yes"/>
      <point x="842.0617283950617" y="348.61728395061726" type="line"/>
      <point x="697.7283950617284" y="352.7283950617284" type="line"/>
      <point x="517.2962962962963" y="331.7654320987654" type="line"/>
      <point x="517.2962962962963" y="207.74074074074076" type="line"/>
    </contour>
    <contour>
      <point x="671.4444444444445" y="192.30864197530866" type="line"/>
      <point x="1291.2469135802469" y="192.30864197530866" type="line"/>
      <point x="1291.2469135802469" y="351.0740740740741" type="line"/>
      <point x="671.4444444444445" y="351.0740740740741" type="line"/>
    </contour>
    <contour>
      <point x="659.320987654321" y="838.1234567901234" type="line"/>
      <point x="837.320987654321" y="838.1234567901234" type="line"/>
      <point x="837.320987654321" y="1152.4074074074074" type="line"/>
      <point x="659.320987654321" y="1152.4074074074074" type="line"/>
    </contour>
    <contour>
      <point x="1174.6172839506173" y="-1.3086419753086411" type="line"/>
      <point x="1355.5802469135801" y="-1.3086419753086411" type="line"/>
      <point x="1355.5802469135801" y="1160.641975308642" type="line"/>
      <point x="1174.6172839506173" y="1160.641975308642" type="line"/>
    </contour>
    <contour>
      <point x="-16.580246913580243" y="1117.4814814814815" type="line"/>
      <point x="1565.0987654320988" y="1117.4814814814815" type="line"/>
      <point x="1565.0987654320988" y="1273.1728395061727" type="line"/>
      <point x="-16.580246913580243" y="1273.1728395061727" type="line"/>
    </contour>
  </outline>
</glyph>
<glyph name="d_v_ra-deva" format="2">
  <advance width="1079.6666666666667"/>
  <anchor x="718.8148148148148" y="1273.8641975308642" name="candra"/>
  <anchor x="718.8148148148148" y="1287.0" name="top"/>
  <outline>
    <contour>
      <point x="544.9012345679013" y="71.4814814814815" type="curve" smooth="yes"/>
      <point x="653.6666666666666" y="71.4814814814815"/>
      <point x="742.4691358024692" y="92.86419753086422"/>
      <point x="824.0123456790124" y="147.13580246913583" type="curve" smooth="yes"/>
      <point x="884.7777777777777" y="188.17283950617286"/>
      <point x="921.6296296296296" y="263.4938271604938"/>
      <point x="921.6296296296296" y="323.34567901234567" type="curve" smooth="yes"/>
      <point x="921.6296296296296" y="420.59259259259255"/>
      <point x="829.4197530864197" y="492.7901234567901"/>
      <point x="718.5308641975308" y="522.8271604938271" type="curve"/>
      <point x="616.6666666666667" y="441.7037037037037" type="line"/>
      <point x="717.2469135802469" y="233.76543209876544" type="line"/>
      <point x="790.358024691358" y="310.4444444444444" type="line"/>
      <point x="692.7407407407408" y="246.86419753086417"/>
      <point x="634.3333333333333" y="223.66666666666666"/>
      <point x="530.7037037037037" y="223.66666666666666" type="curve" smooth="yes"/>
      <point x="355.2469135802469" y="223.66666666666666"/>
      <point x="255.1111111111111" y="290.8148148148148"/>
      <point x="255.1111111111111" y="481.95061728395063" type="curve" smooth="yes"/>
      <point x="255.1111111111111" y="689.641975308642"/>
      <point x="365.2345679012345" y="744.1604938271605"/>
      <point x="582.3333333333333" y="744.1604938271605" type="curve" smooth="yes"/>
      <point x="687.9135802469135" y="744.1604938271605"/>
      <point x="755.7777777777777" y="739.1234567901234"/>
      <point x="806.3333333333333" y="736.1604938271605" type="curve"/>
      <point x="806.3333333333333" y="1149.20987654321" type="line"/>
      <point x="624.3703703703704" y="1149.20987654321" type="line"/>
      <point x="624.3703703703704" y="848.641975308642" type="line"/>
      <point x="737.0246913580247" y="875.1851851851852" type="line"/>
      <point x="659.395061728395" y="897.9629629629629"/>
      <point x="594.2345679012345" y="905.5802469135803"/>
      <point x="541.6172839506173" y="905.5802469135803" type="curve" smooth="yes"/>
      <point x="198.6172839506173" y="905.5802469135803"/>
      <point x="66.49382716049384" y="746.3827160493827"/>
      <point x="66.49382716049384" y="503.38271604938274" type="curve" smooth="yes"/>
      <point x="66.49382716049384" y="252.14814814814815"/>
      <point x="221.49382716049382" y="71.4814814814815"/>
    </contour>
    <contour>
      <point x="359.70370370370375" y="-426.6543209876543" type="curve" smooth="yes"/>
      <point x="733.1728395061729" y="-427.96296296296293"/>
      <point x="821.2345679012345" y="-31.56790123456791"/>
      <point x="813.6913580246913" y="195.53086419753086" type="curve"/>
      <point x="699.320987654321" y="252.96296296296296" type="line"/>
      <point x="675.5555555555555" y="-81.77777777777773"/>
      <point x="558.925925925926" y="-284.6296296296296"/>
      <point x="374.95061728395063" y="-283.32098765432096" type="curve" smooth="yes"/>
      <point x="280.0246913580247" y="-282.66666666666663"/>
      <point x="217.98765432098767" y="-230.93827160493825"/>
      <point x="217.33333333333334" y="-147.2469135802469" type="curve" smooth="yes"/>
      <point x="216.0246913580247" y="-16.2469135802469"/>
      <point x="333.7901234567901" y="50.95061728395063"/>
      <point x="414.51851851851853" y="95.71604938271606" type="curve"/>
      <point x="364.4814814814815" y="210.7037037037037" type="line"/>
      <point x="268.3456790123457" y="162.88888888888889"/>
      <point x="55.38271604938275" y="48.13580246913582"/>
      <point x="54.07407407407411" y="-149.48148148148147" type="curve" smooth="yes"/>
      <point x="52.76543209876547" y="-314.25925925925924"/>
      <point x="169.0740740740741" y="-425.99999999999994"/>
    </contour>
    <contour>
      <point x="1058.3950617283951" y="-309.9382716049383" type="line"/>
      <point x="1187.7654320987654" y="-224.3827160493827" type="line"/>
      <point x="848.1975308641976" y="263.358024691358" type="line"/>
      <point x="753.641975308642" y="214.6172839506173" type="line"/>
    </contour>
    <contour>
      <point x="-16.580246913580243" y="1117.4814814814815" type="line"/>
      <point x="1103.4814814814815" y="1117.4814814814815" type="line"/>
      <point x="1103.4814814814815" y="1273.1728395061727" type="line"/>
      <point x="-16.580246913580243" y="1273.1728395061727" type="line"/>
    </contour>
    <contour>
      <point x="790.7901234567901" y="-589.5061728395061" type="line"/>
      <point x="1018.7530864197531" y="-112.46913580246913" type="line"/>
      <point x="920.9629629629629" y="-52.04938271604937" type="line"/>
      <point x="656.0370370370371" y="-523.8765432098766" type="line"/>
    </contour>
  </outline>
</glyph>
<glyph name="da_ra-deva" format="2">
  <advance width="1030.2345679012346"/>
  <anchor x="122.2962962962963" y="0.0" name="nukta"/>
  <anchor x="977.0370370370371" y="-49.2469135802469" name="bottom"/>
  <anchor x="618.4814814814815" y="1273.1728395061727" name="candra"/>
  <anchor x="720.6543209876543" y="1273.1728395061727" name="top"/>
  <outline>
    <contour>
      <point x="337.6913580246914" y="-253.33333333333326" type="line" smooth="yes"/>
      <point x="819.9135802469136" y="146.27160493827165" type="line"/>
      <point x="772.5925925925926" y="228.62962962962965" type="line"/>
      <point x="232.59259259259267" y="-128.65432098765427" type="line"/>
    </contour>
    <component base="da-deva"/>
  </outline>
</glyph>
<glyph name="dd_dd_ya-deva" format="2">
  <advance width="2223.456790123457"/>
  <anchor x="1942.469135802469" y="0.0" name="bottom"/>
  <anchor x="1677.851851851852" y="1273.5185185185185" name="candra"/>
  <anchor x="1937.2345679012346" y="1287.3456790123457" name="top"/>
  <anchor x="576.0" y="-732.2592592592592" name="nukta"/>
  <outline>
    <contour>
      <point x="1023.9012345679013" y="1117.4814814814815" type="line"/>
      <point x="2240.382716049383" y="1117.4814814814815" type="line"/>
      <point x="2240.382716049383" y="1273.1728395061727" type="line"/>
      <point x="1023.9012345679013" y="1273.1728395061727" type="line"/>
    </contour>
    <contour>
      <point x="1569.469135802469" y="138.06172839506175" type="curve" smooth="yes"/>
      <point x="1697.7777777777778" y="138.06172839506175"/>
      <point x="1797.6913580246912" y="184.40740740740742"/>
      <point x="1881.8024691358025" y="271.8641975308642" type="curve"/>
      <point x="1891.037037037037" y="495.02469135802465" type="line"/>
      <point x="1807.7283950617284" y="358.02469135802465"/>
      <point x="1673.1604938271605" y="303.4444444444444"/>
      <point x="1555.9259259259259" y="303.4444444444444" type="curve" smooth="yes"/>
      <point x="1423.6296296296296" y="303.4444444444444"/>
      <point x="1322.0987654320986" y="373.77777777777777"/>
      <point x="1286.0987654320986" y="527.3827160493827" type="curve"/>
      <point x="1267.3703703703702" y="459.7530864197531" type="line"/>
      <point x="1372.567901234568" y="490.91358024691357"/>
      <point x="1539.1728395061727" y="551.5555555555555"/>
      <point x="1539.1728395061727" y="744.0493827160494" type="curve" smooth="yes"/>
      <point x="1539.1728395061727" y="919.9135802469136"/>
      <point x="1423.9012345679012" y="976.1851851851852"/>
      <point x="1229.1975308641975" y="975.5308641975308" type="curve" smooth="yes"/>
      <point x="840.8518518518518" y="974.8765432098766" type="line"/>
      <point x="853.2345679012345" y="824.4197530864197" type="line"/>
      <point x="1254.395061728395" y="824.4197530864197" type="line" smooth="yes"/>
      <point x="1324.567901234568" y="824.4197530864197"/>
      <point x="1372.4074074074074" y="803.1975308641976"/>
      <point x="1372.4074074074074" y="742.283950617284" type="curve" smooth="yes"/>
      <point x="1372.4074074074074" y="661.1358024691358"/>
      <point x="1299.716049382716" y="618.6172839506173"/>
      <point x="1113.679012345679" y="571.1975308641976" type="curve"/>
      <point x="1167.4444444444443" y="292.4567901234568"/>
      <point x="1331.148148148148" y="138.06172839506175"/>
    </contour>
    <contour>
      <point x="1857.2222222222222" y="0.0" type="line"/>
      <point x="2038.1851851851852" y="0.0" type="line"/>
      <point x="2038.1851851851852" y="1144.4814814814815" type="line"/>
      <point x="1857.2222222222222" y="1144.4814814814815" type="line"/>
    </contour>
    <component base="dd_dda-deva"/>
  </outline>
</glyph>
<glyph name="ddh_ddh_ya-deva" format="2">
  <advance width="2279.925925925926"/>
  <anchor x="1998.938271604938" y="0.0" name="bottom"/>
  <anchor x="1734.320987654321" y="1273.5185185185185" name="candra"/>
  <anchor x="1993.7037037037037" y="1287.3456790123457" name="top"/>
  <anchor x="-11.0" y="-452.0" name="nukta"/>
  <outline>
    <contour>
      <point x="1080.3703703703704" y="1117.4814814814815" type="line"/>
      <point x="2296.8518518518517" y="1117.4814814814815" type="line"/>
      <point x="2296.8518518518517" y="1273.1728395061727" type="line"/>
      <point x="1080.3703703703704" y="1273.1728395061727" type="line"/>
    </contour>
    <contour>
      <point x="1625.938271604938" y="138.06172839506175" type="curve" smooth="yes"/>
      <point x="1754.2469135802469" y="138.06172839506175"/>
      <point x="1854.1604938271605" y="184.40740740740742"/>
      <point x="1938.2716049382716" y="271.8641975308642" type="curve"/>
      <point x="1947.5061728395062" y="495.02469135802465" type="line"/>
      <point x="1864.1975308641975" y="358.02469135802465"/>
      <point x="1729.6296296296296" y="303.4444444444444"/>
      <point x="1612.395061728395" y="303.4444444444444" type="curve" smooth="yes"/>
      <point x="1480.0987654320986" y="303.4444444444444"/>
      <point x="1378.567901234568" y="373.77777777777777"/>
      <point x="1342.567901234568" y="527.3827160493827" type="curve"/>
      <point x="1323.8395061728395" y="459.7530864197531" type="line"/>
      <point x="1429.037037037037" y="490.91358024691357"/>
      <point x="1595.641975308642" y="566.604938271605"/>
      <point x="1595.641975308642" y="752.1851851851852" type="curve" smooth="yes"/>
      <point x="1595.641975308642" y="951.5061728395061"/>
      <point x="1480.3703703703702" y="991.0"/>
      <point x="1285.6666666666665" y="991.6543209876543" type="curve" smooth="yes"/>
      <point x="821.9876543209876" y="992.9629629629629" type="line"/>
      <point x="855.0864197530864" y="859.2098765432099" type="line"/>
      <point x="1310.8641975308642" y="856.9012345679013" type="line" smooth="yes"/>
      <point x="1381.037037037037" y="856.9012345679013"/>
      <point x="1428.8765432098764" y="834.7901234567902"/>
      <point x="1428.8765432098764" y="750.4197530864197" type="curve" smooth="yes"/>
      <point x="1428.8765432098764" y="676.1851851851852"/>
      <point x="1356.1851851851852" y="618.6172839506173"/>
      <point x="1170.148148148148" y="571.1975308641976" type="curve"/>
      <point x="1223.9135802469136" y="292.4567901234568"/>
      <point x="1387.6172839506173" y="138.06172839506175"/>
    </contour>
    <contour>
      <point x="1913.6913580246912" y="0.0" type="line"/>
      <point x="2094.654320987654" y="0.0" type="line"/>
      <point x="2094.654320987654" y="1144.4814814814815" type="line"/>
      <point x="1913.6913580246912" y="1144.4814814814815" type="line"/>
    </contour>
    <component base="ddh_ddha-deva"/>
  </outline>
</glyph>
<glyph name="dh_na-deva" format="2">
  <advance width="1265.1728395061727"/>
  <anchor x="985.5555555555555" y="0.0" name="bottom"/>
  <anchor x="883.1604938271605" y="1273.1728395061727" name="candra"/>
  <anchor x="235.29629629629636" y="68.86419753086417" name="nukta"/>
  <anchor x="985.5555555555555" y="1273.1728395061727" name="top"/>
  <outline>
    <contour>
      <point x="530.7654320987655" y="-136.8395061728395" type="line"/>
      <point x="569.7777777777778" y="-106.37037037037035"/>
      <point x="585.6296296296297" y="-76.2469135802469"/>
      <point x="587.283950617284" y="-48.08641975308641" type="curve" smooth="yes"/>
      <point x="588.9382716049383" y="-21.543209876543205"/>
      <point x="579.6296296296297" y="4.34567901234568"/>
      <point x="565.320987654321" y="26.61728395061728" type="curve" smooth="yes"/>
      <point x="518.5679012345679" y="98.44444444444446" type="line"/>
      <point x="501.87654320987656" y="39.86419753086422" type="line"/>
      <point x="927.8888888888889" y="370.60493827160496" type="line"/>
      <point x="826.6172839506173" y="457.22222222222223" type="line"/>
      <point x="247.40740740740745" y="72.38271604938272" type="line"/>
      <point x="311.9135802469136" y="-50.02469135802467" type="line"/>
    </contour>
    <component base="dha-deva" xOffset="-1.0370370370370383"/>
  </outline>
</glyph>
<glyph name="dh_ra-deva" format="2">
  <advance width="745.679012345679"/>
  <outline>
    <contour>
      <point x="317.1604938271605" y="-68.40740740740739" type="line"/>
      <point x="882.283950617284" y="345.85185185185185" type="line"/>
      <point x="842.8888888888888" y="462.7654320987654" type="line"/>
      <point x="214.37037037037038" y="70.46913580246913" type="line"/>
    </contour>
    <component base="dh-deva"/>
  </outline>
</glyph>
<glyph name="dieresiscomb.cap" format="2">
  <anchor x="300.75308641975306" y="1342.0740740740741" name="_top"/>
  <anchor x="300.75308641975306" y="1676.20987654321" name="top"/>
  <outline>
    <contour>
      <point x="482.53086419753083" y="1478.9506172839506" type="curve" smooth="yes"/>
      <point x="547.3086419753085" y="1478.9506172839506"/>
      <point x="591.5061728395061" y="1524.7654320987654"/>
      <point x="591.5061728395061" y="1587.9259259259259" type="curve" smooth="yes"/>
      <point x="591.5061728395061" y="1651.7407407407406"/>
      <point x="547.3086419753085" y="1696.5555555555554"/>
      <point x="482.53086419753083" y="1696.5555555555554" type="curve" smooth="yes"/>
      <point x="419.75308641975306" y="1696.5555555555554"/>
      <point x="372.9012345679012" y="1651.7407407407406"/>
      <point x="372.9012345679012" y="1587.9259259259259" type="curve" smooth="yes"/>
      <point x="372.9012345679012" y="1524.7654320987654"/>
      <point x="419.75308641975306" y="1478.9506172839506"/>
    </contour>
    <contour>
      <point x="118.97530864197529" y="1478.9506172839506" type="curve" smooth="yes"/>
      <point x="181.75308641975306" y="1478.9506172839506"/>
      <point x="228.6049382716049" y="1524.7654320987654"/>
      <point x="228.6049382716049" y="1587.9259259259259" type="curve" smooth="yes"/>
      <point x="228.6049382716049" y="1651.7407407407406"/>
      <point x="181.75308641975306" y="1696.5555555555554"/>
      <point x="118.97530864197529" y="1696.5555555555554" type="curve" smooth="yes"/>
      <point x="54.197530864197525" y="1696.5555555555554"/>
      <point x="10.0" y="1651.7407407407406"/>
      <point x="10.0" y="1587.9259259259259" type="curve" smooth="yes"/>
      <point x="10.0" y="1524.7654320987654"/>
      <point x="54.197530864197525" y="1478.9506172839506"/>
    </contour>
  </outline>
</glyph>
<glyph name="dotaccentcomb.cap" format="2">
  <anchor x="138.5185185185185" y="1342.0740740740741" name="_top"/>
  <anchor x="138.5185185185185" y="1695.4074074074074" name="top"/>
  <outline>
    <contour>
      <point x="138.5185185185185" y="1476.2222222222222" type="curve" smooth="yes"/>
      <point x="211.2222222222222" y="1476.2222222222222"/>
      <point x="267.037037037037" y="1525.3827160493827"/>
      <point x="267.037037037037" y="1597.1604938271605" type="curve" smooth="yes"/>
      <point x="267.037037037037" y="1666.5925925925926"/>
      <point x="211.2222222222222" y="1715.4074074074074"/>
      <point x="138.5185185185185" y="1715.4074074074074" type="curve" smooth="yes"/>
      <point x="65.81481481481481" y="1715.4074074074074"/>
      <point x="10.0" y="1666.5925925925926"/>
      <point x="10.0" y="1597.1604938271605" type="curve" smooth="yes"/>
      <point x="10.0" y="1525.3827160493827"/>
      <point x="65.81481481481481" y="1476.2222222222222"/>
    </contour>
  </outline>
</glyph>
<glyph name="eMatra_reph_candraBindu-deva" format="2">
  <advance width="537.6913580246913"/>
  <anchor x="240.76543209876544" y="1273.1728395061727" name="_top"/>
  <anchor x="203.55555555555554" y="1634.8765432098764" name="candra"/>
  <anchor x="202.1728395061728" y="1635.530864197531" name="top"/>
  <outline>
    <contour>
      <point x="248.7283950617284" y="1233.0864197530864" type="curve"/>
      <point x="326.28395061728395" y="1264.2469135802469" type="line"/>
      <point x="303.9382716049383" y="1313.5555555555554"/>
      <point x="271.0617283950617" y="1386.5802469135801"/>
      <point x="271.0617283950617" y="1446.7654320987654" type="curve" smooth="yes"/>
      <point x="271.0617283950617" y="1554.9259259259259"/>
      <point x="332.55555555555554" y="1643.8148148148148"/>
      <point x="459.25925925925924" y="1643.8148148148148" type="curve" smooth="yes"/>
      <point x="522.2469135802469" y="1643.8148148148148"/>
      <point x="579.0123456790124" y="1629.320987654321"/>
      <point x="636.4814814814814" y="1603.9753086419753" type="curve"/>
      <point x="677.3333333333333" y="1743.1975308641975" type="line"/>
      <point x="617.7901234567901" y="1774.3086419753085"/>
      <point x="533.7530864197531" y="1799.6172839506173"/>
      <point x="428.12345679012344" y="1795.037037037037" type="curve" smooth="yes"/>
      <point x="244.1851851851852" y="1786.530864197531"/>
      <point x="129.76543209876544" y="1655.3703703703704"/>
      <point x="129.76543209876544" y="1501.2839506172838" type="curve" smooth="yes"/>
      <point x="129.76543209876544" y="1425.9012345679012"/>
      <point x="149.2962962962963" y="1331.5925925925926"/>
    </contour>
    <contour>
      <point x="201.49382716049382" y="1219.7407407407406" type="line"/>
      <point x="319.9753086419753" y="1272.1358024691358" type="line"/>
      <point x="136.28395061728395" y="1756.3456790123457"/>
      <point x="78.7654320987654" y="1814.20987654321"/>
      <point x="-216.51851851851853" y="1814.20987654321" type="curve" smooth="yes"/>
      <point x="-264.24691358024694" y="1814.20987654321"/>
      <point x="-321.5679012345679" y="1808.2469135802469"/>
      <point x="-376.2592592592593" y="1795.2839506172838" type="curve"/>
      <point x="-350.3703703703704" y="1644.0987654320988" type="line"/>
      <point x="-308.7901234567901" y="1649.79012345679"/>
      <point x="-264.4814814814815" y="1655.0987654320988"/>
      <point x="-208.95061728395063" y="1655.0987654320988" type="curve" smooth="yes"/>
      <point x="-8.87654320987655" y="1655.0987654320988"/>
      <point x="44.382716049382715" y="1575.0493827160494"/>
      <point x="177.9135802469136" y="1273.1728395061727" type="curve" smooth="yes"/>
    </contour>
    <component base="candraBindu-deva" xScale="0.6184686419753087" yScale="0.6184686419753087" xOffset="341.91358024691357" yOffset="409.1975308641975"/>
  </outline>
</glyph>
<glyph name="eight.tf" format="2">
  <advance width="1003.0"/>
  <outline>
    <contour>
      <point x="503.38271604938274" y="-25.0" type="curve" smooth="yes"/>
      <point x="777.4320987654321" y="-25.0"/>
      <point x="931.0864197530864" y="138.6172839506173"/>
      <point x="931.0864197530864" y="335.5432098765432" type="curve" smooth="yes"/>
      <point x="931.0864197530864" y="510.2345679012346"/>
      <point x="822.6666666666666" y="615.9259259259259"/>
      <point x="705.0493827160494" y="682.9259259259259" type="curve"/>
      <point x="705.0493827160494" y="691.9259259259259" type="line"/>
      <point x="785.6666666666666" y="752.2716049382716"/>
      <point x="883.4691358024692" y="880.0370370370371"/>
      <point x="883.4691358024692" y="1014.4567901234568" type="curve" smooth="yes"/>
      <point x="883.4691358024692" y="1220.037037037037"/>
      <point x="745.5432098765432" y="1368.037037037037"/>
      <point x="513.6543209876543" y="1368.037037037037" type="curve" smooth="yes"/>
      <point x="283.2962962962963" y="1368.037037037037"/>
      <point x="132.0246913580247" y="1225.4197530864199"/>
      <point x="132.0246913580247" y="1020.9135802469136" type="curve" smooth="yes"/>
      <point x="132.0246913580247" y="883.5679012345679"/>
      <point x="214.06172839506175" y="778.5679012345679"/>
      <point x="312.3703703703704" y="709.2962962962963" type="curve"/>
      <point x="312.3703703703704" y="701.2962962962963" type="line"/>
      <point x="189.37037037037038" y="636.2962962962963"/>
      <point x="70.56790123456791" y="510.41975308641975"/>
      <point x="70.56790123456791" y="343.0" type="curve" smooth="yes"/>
      <point x="70.56790123456791" y="135.34567901234567"/>
      <point x="249.9135802469136" y="-25.0"/>
    </contour>
    <contour>
      <point x="507.69135802469134" y="114.02469135802467" type="curve" smooth="yes"/>
      <point x="351.39506172839504" y="114.02469135802467"/>
      <point x="241.4074074074074" y="222.28395061728395"/>
      <point x="241.4074074074074" y="361.85185185185185" type="curve" smooth="yes"/>
      <point x="241.4074074074074" y="474.4938271604938"/>
      <point x="311.28395061728395" y="579.0617283950618"/>
      <point x="408.0" y="645.5185185185186" type="curve"/>
      <point x="592.1851851851852" y="570.7901234567902"/>
      <point x="750.320987654321" y="501.2592592592593"/>
      <point x="750.320987654321" y="341.5061728395062" type="curve" smooth="yes"/>
      <point x="750.320987654321" y="211.320987654321"/>
      <point x="668.3333333333334" y="114.02469135802467"/>
    </contour>
    <contour>
      <point x="593.4567901234568" y="741.7037037037037" type="curve"/>
      <point x="437.5061728395062" y="800.7777777777777"/>
      <point x="305.5185185185185" y="873.8518518518518"/>
      <point x="305.5185185185185" y="1020.9135802469136" type="curve" smooth="yes"/>
      <point x="305.5185185185185" y="1143.4444444444446"/>
      <point x="380.4320987654321" y="1229.358024691358"/>
      <point x="509.03703703703707" y="1229.358024691358" type="curve" smooth="yes"/>
      <point x="647.9876543209876" y="1229.358024691358"/>
      <point x="721.5555555555555" y="1129.0987654320988"/>
      <point x="721.5555555555555" y="1004.2222222222223" type="curve" smooth="yes"/>
      <point x="721.5555555555555" y="913.0"/>
      <point x="675.4074074074074" y="816.8518518518518"/>
    </contour>
  </outline>
</glyph>
<glyph name="five.tf" format="2">
  <advance width="1003.0"/>
  <outline>
    <contour>
      <point x="481.30864197530866" y="-177.2716049382716" type="curve" smooth="yes"/>
      <point x="713.4320987654321" y="-177.2716049382716"/>
      <point x="920.7037037037037" y="-7.65432098765432"/>
      <point x="920.7037037037037" y="281.9259259259259" type="curve" smooth="yes"/>
      <point x="920.7037037037037" y="565.9629629629629"/>
      <point x="747.7407407407408" y="690.9259259259259"/>
      <point x="513.4320987654321" y="690.9259259259259" type="curve" smooth="yes"/>
      <point x="437.9012345679012" y="690.9259259259259"/>
      <point x="381.09876543209873" y="671.1604938271605"/>
      <point x="321.679012345679" y="640.7407407407408" type="curve"/>
      <point x="354.4444444444444" y="1013.7407407407408" type="line"/>
      <point x="855.9753086419753" y="1013.7407407407408" type="line"/>
      <point x="855.9753086419753" y="1176.9259259259259" type="line"/>
      <point x="188.2962962962963" y="1176.9259259259259" type="line"/>
      <point x="146.9135802469136" y="534.2222222222223" type="line"/>
      <point x="244.23456790123456" y="471.1358024691358" type="line"/>
      <point x="322.2345679012346" y="523.7901234567902"/>
      <point x="374.69135802469134" y="548.5555555555555"/>
      <point x="462.14814814814815" y="548.5555555555555" type="curve" smooth="yes"/>
      <point x="622.1728395061729" y="548.5555555555555"/>
      <point x="728.7037037037037" y="454.641975308642"/>
      <point x="728.7037037037037" y="276.2716049382716" type="curve" smooth="yes"/>
      <point x="728.7037037037037" y="98.93827160493825"/>
      <point x="615.716049382716" y="-20.049382716049408"/>
      <point x="460.1851851851852" y="-20.049382716049408" type="curve" smooth="yes"/>
      <point x="313.85185185185185" y="-20.049382716049408"/>
      <point x="220.46913580246914" y="46.06172839506171"/>
      <point x="142.46913580246914" y="115.09876543209874" type="curve"/>
      <point x="51.530864197530875" y="-4.962962962962962" type="line"/>
      <point x="144.11111111111111" y="-92.88888888888889"/>
      <point x="271.0" y="-177.2716049382716"/>
    </contour>
  </outline>
</glyph>
<glyph name="four.tf" format="2">
  <advance width="1003.0"/>
  <outline>
    <contour>
      <point x="611.641975308642" y="-152.92592592592592" type="line"/>
      <point x="791.3703703703703" y="-152.92592592592592" type="line"/>
      <point x="791.3703703703703" y="189.1851851851852" type="line"/>
      <point x="964.5925925925926" y="189.1851851851852" type="line"/>
      <point x="964.5925925925926" y="339.7901234567901" type="line"/>
      <point x="791.3703703703703" y="339.7901234567901" type="line"/>
      <point x="791.3703703703703" y="1176.9259259259259" type="line"/>
      <point x="572.4320987654321" y="1176.9259259259259" type="line"/>
      <point x="28.111111111111114" y="316.4444444444444" type="line"/>
      <point x="28.111111111111114" y="189.1851851851852" type="line"/>
      <point x="611.641975308642" y="189.1851851851852" type="line"/>
    </contour>
    <contour>
      <point x="223.91358024691357" y="339.7901234567901" type="line"/>
      <point x="506.95061728395063" y="773.0493827160494" type="line"/>
      <point x="543.9506172839506" y="839.9753086419753"/>
      <point x="580.9506172839506" y="912.5555555555555"/>
      <point x="613.9506172839506" y="978.4814814814815" type="curve"/>
      <point x="621.9506172839506" y="978.4814814814815" type="line"/>
      <point x="617.9506172839506" y="907.5925925925926"/>
      <point x="611.641975308642" y="797.395061728395"/>
      <point x="611.641975308642" y="725.1604938271605" type="curve" smooth="yes"/>
      <point x="611.641975308642" y="339.7901234567901" type="line"/>
    </contour>
  </outline>
</glyph>
<glyph name="g_n_ya-deva" format="2">
  <advance width="1769.358024691358"/>
  <anchor x="1490.0864197530864" y="0.0" name="bottom"/>
  <anchor x="1375.2962962962963" y="1273.1728395061727" name="candra"/>
  <anchor x="299.08641975308643" y="67.82716049382718" name="nukta_1"/>
  <anchor x="810.0" y="44.37037037037038" name="nukta_2"/>
  <anchor x="1490.0864197530864" y="1273.1728395061727" name="top"/>
  <outline>
    <contour>
      <point x="505.08641975308643" y="-34.4938271604938" type="line"/>
      <point x="540.8271604938271" y="-3.6790123456789914"/>
      <point x="554.0617283950617" y="25.790123456790138"/>
      <point x="554.0617283950617" y="53.296296296296305" type="curve" smooth="yes"/>
      <point x="554.0617283950617" y="78.53086419753087"/>
      <point x="544.7530864197531" y="103.11111111111111"/>
      <point x="529.4444444444445" y="124.72839506172839" type="curve" smooth="yes"/>
      <point x="478.1111111111111" y="198.17283950617286" type="line"/>
      <point x="463.72839506172835" y="140.24691358024694" type="line"/>
      <point x="893.5308641975308" y="444.1604938271605" type="line"/>
      <point x="819.9753086419753" y="561.3333333333333" type="line"/>
      <point x="215.45679012345678" y="158.60493827160494" type="line"/>
      <point x="283.9259259259259" y="42.43209876543212" type="line"/>
    </contour>
    <component base="g-deva"/>
    <component base="ya-deva" xOffset="614.0"/>
  </outline>
</glyph>
<glyph name="g_na-deva" format="2">
  <advance width="1178.20987654321"/>
  <anchor x="899.2469135802469" y="0.0" name="bottom"/>
  <anchor x="826.037037037037" y="1273.1728395061727" name="candra"/>
  <anchor x="299.08641975308643" y="67.82716049382718" name="nukta"/>
  <anchor x="898.9382716049382" y="1273.1728395061727" name="top"/>
  <outline>
    <contour>
      <point x="505.08641975308643" y="-34.4938271604938" type="line"/>
      <point x="540.8271604938271" y="-3.6790123456789914"/>
      <point x="554.0617283950617" y="25.790123456790138"/>
      <point x="554.0617283950617" y="53.296296296296305" type="curve" smooth="yes"/>
      <point x="554.0617283950617" y="78.53086419753087"/>
      <point x="544.7530864197531" y="103.11111111111111"/>
      <point x="529.4444444444445" y="124.72839506172839" type="curve" smooth="yes"/>
      <point x="478.1111111111111" y="198.17283950617286" type="line"/>
      <point x="463.72839506172835" y="140.24691358024694" type="line"/>
      <point x="900.4444444444445" y="461.44444444444446" type="line"/>
      <point x="826.8888888888889" y="578.6172839506173" type="line"/>
      <point x="215.45679012345678" y="158.60493827160494" type="line"/>
      <point x="283.9259259259259" y="42.43209876543212" type="line"/>
    </contour>
    <component base="g-deva"/>
    <component base="aaMatra-deva" xOffset="619.6296296296296"/>
  </outline>
</glyph>
<glyph name="g_ra-deva" format="2">
  <advance width="604.6543209876543"/>
  <anchor x="299.08641975308643" y="67.82716049382718" name="nukta"/>
  <outline>
    <contour>
      <point x="311.0617283950617" y="-21.925925925925924" type="line"/>
      <point x="882.4567901234568" y="435.39506172839504" type="line"/>
      <point x="793.6543209876543" y="538.1728395061729" type="line"/>
      <point x="201.65432098765433" y="108.67901234567898" type="line"/>
    </contour>
    <component base="g-deva"/>
  </outline>
</glyph>
<glyph name="gh_na-deva" format="2">
  <advance width="1193.9259259259259"/>
  <anchor x="915.9259259259259" y="0.0" name="bottom"/>
  <anchor x="830.4814814814815" y="1273.1728395061727" name="candra"/>
  <anchor x="240.76543209876547" y="68.86419753086417" name="nukta"/>
  <anchor x="917.6172839506173" y="1273.1728395061727" name="top"/>
  <outline>
    <contour>
      <point x="475.29629629629636" y="-159.6049382716049" type="line"/>
      <point x="514.3086419753087" y="-129.1358024691358"/>
      <point x="530.1604938271605" y="-99.01234567901233"/>
      <point x="531.8148148148149" y="-70.85185185185185" type="curve" smooth="yes"/>
      <point x="532.8148148148149" y="-44.30864197530864"/>
      <point x="524.1604938271605" y="-18.419753086419757"/>
      <point x="509.8518518518519" y="3.8518518518518468" type="curve" smooth="yes"/>
      <point x="463.0987654320988" y="75.67901234567903" type="line"/>
      <point x="446.40740740740745" y="17.09876543209878" type="line"/>
      <point x="872.4197530864197" y="347.8395061728395" type="line"/>
      <point x="771.1481481481482" y="434.4567901234568" type="line"/>
      <point x="191.93827160493834" y="49.617283950617285" type="line"/>
      <point x="256.4444444444445" y="-72.7901234567901" type="line"/>
    </contour>
    <component base="gha-deva" xOffset="6.580246913580244"/>
  </outline>
</glyph>
<glyph name="gh_ra-deva" format="2">
  <advance width="673.9876543209876"/>
  <outline>
    <contour>
      <point x="317.1975308641975" y="-57.518518518518505" type="line"/>
      <point x="823.5308641975308" y="329.61728395061726" type="line"/>
      <point x="783.7901234567901" y="449.8395061728395" type="line"/>
      <point x="207.4814814814815" y="73.77777777777777" type="line"/>
    </contour>
    <component base="gh-deva"/>
  </outline>
</glyph>
<glyph name="ghh_ra-deva" format="2">
  <advance width="1142.888888888889"/>
  <anchor x="863.2716049382716" y="27.34567901234568" name="bottom"/>
  <anchor x="538.641975308642" y="1273.5185185185185" name="candra"/>
  <anchor x="316.1975308641975" y="91.38271604938275" name="nukta"/>
  <anchor x="863.6172839506173" y="1287.3456790123457" name="top"/>
  <outline>
    <contour>
      <point x="312.5555555555556" y="-60.518518518518505" type="line"/>
      <point x="860.4691358024692" y="341.1975308641975" type="line"/>
      <point x="796.0617283950618" y="435.0617283950617" type="line"/>
      <point x="208.8024691358025" y="73.12345679012346" type="line"/>
    </contour>
    <component base="ga-deva"/>
    <component base="nukta-deva" xOffset="332.5432098765432" yOffset="-15.0"/>
  </outline>
</glyph>
<glyph name="hungarumlautcomb.cap" format="2">
  <anchor x="249.66666666666666" y="1342.0740740740741" name="_top"/>
  <anchor x="332.25308641975306" y="1676.9259259259259" name="top"/>
  <outline>
    <contour>
      <point x="342.6296296296296" y="1474.0740740740741" type="line"/>
      <point x="480.96296296296293" y="1474.0740740740741" type="line"/>
      <point x="654.5061728395061" y="1706.9259259259259" type="line"/>
      <point x="477.32098765432096" y="1706.9259259259259" type="line"/>
    </contour>
    <contour>
      <point x="10.0" y="1474.0740740740741" type="line"/>
      <point x="149.64197530864195" y="1474.0740740740741" type="line"/>
      <point x="321.8765432098765" y="1706.9259259259259" type="line"/>
      <point x="144.03703703703704" y="1706.9259259259259" type="line"/>
    </contour>
  </outline>
</glyph>
<glyph name="j_ny-deva" format="2">
  <advance width="910.753086419753"/>
  <outline>
    <contour>
      <point x="522.4074074074074" y="-48.44444444444443" type="curve"/>
      <point x="763.1975308641975" y="-48.44444444444443"/>
      <point x="927.3456790123456" y="66.9135802469136"/>
      <point x="927.3456790123456" y="297.0740740740741" type="curve" smooth="yes"/>
      <point x="927.3456790123456" y="519.1604938271605"/>
      <point x="779.2222222222222" y="556.5802469135803"/>
      <point x="626.0987654320987" y="556.5802469135803" type="curve" smooth="yes"/>
      <point x="508.8641975308642" y="556.5802469135803"/>
      <point x="401.82716049382714" y="535.5802469135803"/>
      <point x="343.1358024691358" y="521.1975308641976" type="curve"/>
      <point x="366.9012345679012" y="511.08641975308643" type="line"/>
      <point x="348.53086419753083" y="544.0740740740741"/>
      <point x="331.1481481481481" y="590.641975308642"/>
      <point x="331.1481481481481" y="645.716049382716" type="curve" smooth="yes"/>
      <point x="331.1481481481481" y="727.7901234567902"/>
      <point x="371.8024691358024" y="753.6666666666667"/>
      <point x="476.6049382716049" y="753.6666666666667" type="curve" smooth="yes"/>
      <point x="1264.5432098765432" y="753.6666666666667" type="line"/>
      <point x="1262.7777777777776" y="914.7407407407408" type="line"/>
      <point x="442.641975308642" y="914.7407407407408" type="line" smooth="yes"/>
      <point x="260.5061728395062" y="914.7407407407408"/>
      <point x="168.34567901234567" y="845.7037037037037"/>
      <point x="168.34567901234567" y="694.7654320987655" type="curve" smooth="yes"/>
      <point x="168.34567901234567" y="573.0987654320987"/>
      <point x="223.85185185185185" y="444.5061728395062"/>
      <point x="289.32098765432096" y="389.54320987654324" type="curve" smooth="yes"/>
      <point x="318.4444444444444" y="366.00000000000006"/>
      <point x="341.1728395061728" y="360.4320987654321"/>
      <point x="371.59259259259255" y="364.46913580246917" type="curve" smooth="yes"/>
      <point x="428.82716049382714" y="371.5061728395062"/>
      <point x="533.3703703703703" y="392.5061728395062"/>
      <point x="615.7901234567901" y="392.5061728395062" type="curve" smooth="yes"/>
      <point x="730.7777777777777" y="392.5061728395062"/>
      <point x="758.6543209876543" y="349.5555555555556"/>
      <point x="757.6172839506173" y="275.4567901234568" type="curve" smooth="yes"/>
      <point x="756.2345679012345" y="184.93827160493825"/>
      <point x="703.9876543209876" y="110.32098765432097"/>
      <point x="511.7901234567901" y="110.32098765432097" type="curve" smooth="yes"/>
      <point x="434.4938271604938" y="110.32098765432097"/>
      <point x="349.8024691358024" y="121.74074074074073"/>
      <point x="236.01234567901233" y="173.62962962962962" type="curve"/>
      <point x="339.3456790123456" y="87.8395061728395" type="line"/>
      <point x="243.53086419753083" y="279.34567901234567" type="line"/>
      <point x="88.5432098765432" y="249.6172839506173" type="line"/>
      <point x="84.23456790123457" y="223.41975308641975"/>
      <point x="81.58024691358024" y="192.9135802469136"/>
      <point x="81.58024691358024" y="174.0246913580247" type="curve" smooth="yes"/>
      <point x="81.58024691358024" y="45.086419753086446"/>
      <point x="189.20987654320987" y="-0.9506172839505922"/>
      <point x="310.9506172839506" y="-36.604938271604915" type="curve"/>
      <point x="320.1111111111111" y="-6.333333333333307" type="line"/>
      <point x="384.7654320987654" y="-35.098765432098745"/>
      <point x="450.6049382716049" y="-48.44444444444443"/>
    </contour>
    <contour>
      <point x="429.6296296296296" y="-347.1358024691358" type="line"/>
      <point x="576.8148148148148" y="-264.1975308641975" type="line"/>
      <point x="306.25925925925924" y="117.7037037037037" type="line"/>
      <point x="198.88888888888889" y="106.28395061728394" type="line"/>
    </contour>
    <contour>
      <point x="-20.0" y="1117.4814814814815" type="line"/>
      <point x="1027.6666666666665" y="1117.4814814814815" type="line"/>
      <point x="1027.6666666666665" y="1273.1728395061727" type="line"/>
      <point x="-20.0" y="1273.1728395061727" type="line"/>
    </contour>
  </outline>
</glyph>
<glyph name="jh_ra-deva" format="2">
  <advance width="1135.3333333333333"/>
  <outline>
    <contour>
      <point x="547.0987654320987" y="31.555555555555575" type="curve"/>
      <point x="773.8024691358024" y="31.555555555555575"/>
      <point x="947.3333333333333" y="146.9135802469136"/>
      <point x="947.3333333333333" y="377.0740740740741" type="curve" smooth="yes"/>
      <point x="947.3333333333333" y="599.1604938271605"/>
      <point x="795.1728395061729" y="636.9259259259259"/>
      <point x="642.6296296296296" y="636.5802469135803" type="curve" smooth="yes"/>
      <point x="520.0493827160494" y="636.2345679012345"/>
      <point x="341.1728395061728" y="615.5802469135803"/>
      <point x="279.48148148148147" y="601.1975308641976" type="curve"/>
      <point x="305.2469135802469" y="591.0864197530864" type="line"/>
      <point x="282.53086419753083" y="624.0740740740741"/>
      <point x="264.1481481481481" y="660.641975308642"/>
      <point x="264.1481481481481" y="709.1728395061729" type="curve" smooth="yes"/>
      <point x="264.1481481481481" y="776.6666666666667"/>
      <point x="294.1111111111111" y="810.5802469135803"/>
      <point x="417.9506172839506" y="810.5802469135803" type="curve" smooth="yes"/>
      <point x="772.2098765432098" y="810.5802469135803" type="line"/>
      <point x="751.6666666666666" y="971.6543209876543" type="line"/>
      <point x="382.3333333333333" y="971.6543209876543" type="line" smooth="yes"/>
      <point x="182.11111111111111" y="971.6543209876543"/>
      <point x="101.34567901234568" y="890.8395061728395"/>
      <point x="101.34567901234568" y="751.679012345679" type="curve" smooth="yes"/>
      <point x="101.34567901234568" y="643.4074074074074"/>
      <point x="157.85185185185185" y="524.8518518518518"/>
      <point x="224.01234567901233" y="470.1975308641976" type="curve" smooth="yes"/>
      <point x="254.1358024691358" y="445.6543209876544"/>
      <point x="277.5185185185185" y="440.4320987654321"/>
      <point x="310.28395061728395" y="444.46913580246917" type="curve" smooth="yes"/>
      <point x="370.82716049382714" y="451.5061728395062"/>
      <point x="544.2098765432098" y="472.5061728395062"/>
      <point x="632.320987654321" y="472.5061728395062" type="curve" smooth="yes"/>
      <point x="746.6913580246913" y="472.5061728395062"/>
      <point x="780.9506172839506" y="430.5925925925926"/>
      <point x="779.2592592592592" y="355.4567901234568" type="curve" smooth="yes"/>
      <point x="777.5679012345679" y="266.32098765432096"/>
      <point x="718.9753086419753" y="190.320987654321"/>
      <point x="536.4814814814814" y="190.320987654321" type="curve" smooth="yes"/>
      <point x="451.18518518518516" y="190.320987654321"/>
      <point x="363.8024691358024" y="201.74074074074073"/>
      <point x="249.01234567901233" y="253.62962962962962" type="curve"/>
      <point x="351.3456790123456" y="167.83950617283952" type="line"/>
      <point x="252.18518518518516" y="359.34567901234567" type="line"/>
      <point x="96.19753086419753" y="329.61728395061726" type="line"/>
      <point x="91.88888888888889" y="303.41975308641975"/>
      <point x="89.23456790123457" y="272.95061728395063"/>
      <point x="89.23456790123457" y="254.0246913580247" type="curve" smooth="yes"/>
      <point x="89.23456790123457" y="124.39506172839509"/>
      <point x="200.2469135802469" y="78.70370370370372"/>
      <point x="323.9506172839506" y="43.395061728395085" type="curve"/>
      <point x="332.1111111111111" y="73.66666666666669" type="line"/>
      <point x="399.7654320987654" y="44.901234567901255"/>
      <point x="470.641975308642" y="31.555555555555575"/>
    </contour>
    <contour>
      <point x="451.9753086419753" y="-267.1358024691358" type="line"/>
      <point x="598.5061728395061" y="-184.19753086419752" type="line"/>
      <point x="319.25925925925924" y="197.7037037037037" type="line"/>
      <point x="211.88888888888889" y="186.28395061728395" type="line"/>
    </contour>
    <contour>
      <point x="985.1851851851851" y="-88.56790123456787" type="line"/>
      <point x="1406.0617283950617" y="293.6296296296297" type="line"/>
      <point x="1300.79012345679" y="385.51851851851853" type="line"/>
      <point x="875.7777777777777" y="34.802469135802475" type="line"/>
    </contour>
    <contour>
      <point x="880.6419753086419" y="376.3456790123457" type="line"/>
      <point x="986.6419753086419" y="359.4197530864198"/>
      <point x="1218.5061728395062" y="408.6543209876544"/>
      <point x="1303.2839506172838" y="473.27160493827165" type="curve"/>
      <point x="1275.5432098765432" y="638.4197530864197" type="line"/>
      <point x="1138.111111111111" y="546.1111111111111"/>
      <point x="938.9012345679013" y="507.5308641975309"/>
      <point x="820.2469135802469" y="520.1481481481482" type="curve"/>
    </contour>
    <contour>
      <point x="660.1851851851852" y="810.5802469135803" type="line"/>
      <point x="838.8395061728395" y="810.5802469135803" type="line"/>
      <point x="838.8395061728395" y="1166.20987654321" type="line"/>
      <point x="660.1851851851852" y="1166.20987654321" type="line"/>
    </contour>
    <contour>
      <point x="-16.580246913580243" y="1117.4814814814815" type="line"/>
      <point x="1154.567901234568" y="1117.4814814814815" type="line"/>
      <point x="1154.567901234568" y="1273.1728395061727" type="line"/>
      <point x="-16.580246913580243" y="1273.1728395061727" type="line"/>
    </contour>
  </outline>
</glyph>
<glyph name="k_ra-deva" format="2">
  <advance width="1148.3703703703704"/>
  <anchor x="265.07407407407396" y="18.320987654320977" name="nukta"/>
  <outline>
    <contour>
      <point x="260.1975308641975" y="-60.86419753086418" type="line"/>
      <point x="774.4691358024692" y="364.7654320987654" type="line"/>
      <point x="709.679012345679" y="449.7037037037037" type="line"/>
      <point x="156.503987654321" y="67.5657160493827" type="line"/>
    </contour>
    <component base="k-deva"/>
  </outline>
</glyph>
<glyph name="k_ss_ra-deva" format="2">
  <advance width="921.3333333333334"/>
  <outline>
    <contour>
      <point x="902.9135802469135" y="175.32098765432102" type="line"/>
      <point x="1156.358024691358" y="384.74074074074076" type="line"/>
      <point x="1106.111111111111" y="507.2962962962963" type="line"/>
      <point x="806.358024691358" y="306.9259259259259" type="line"/>
    </contour>
    <contour>
      <point x="887.9753086419753" y="1117.4814814814815" type="line"/>
      <point x="948.0740740740741" y="1117.4814814814815" type="line"/>
      <point x="948.0740740740741" y="1273.1728395061727" type="line"/>
      <point x="887.9753086419753" y="1273.1728395061727" type="line"/>
    </contour>
    <contour>
      <point x="418.41975308641975" y="46.35802469135805" type="curve" smooth="yes"/>
      <point x="511.1604938271605" y="46.35802469135805"/>
      <point x="621.9012345679013" y="72.55555555555557"/>
      <point x="675.320987654321" y="131.06172839506175" type="curve"/>
      <point x="613.604938271605" y="278.9753086419753" type="line"/>
      <point x="569.7654320987655" y="221.77777777777777"/>
      <point x="480.7654320987654" y="197.50617283950618"/>
      <point x="414.7654320987654" y="197.50617283950618" type="curve"/>
      <point x="356.4691358024691" y="197.50617283950618"/>
      <point x="260.29629629629625" y="249.54320987654322"/>
      <point x="260.29629629629625" y="382.0987654320988" type="curve" smooth="yes"/>
      <point x="260.29629629629625" y="517.9012345679013"/>
      <point x="332.02469135802465" y="563.4814814814815"/>
      <point x="564.9876543209876" y="696.2592592592592" type="curve" smooth="yes"/>
      <point x="720.320987654321" y="783.641975308642"/>
      <point x="822.0246913580247" y="882.2592592592592"/>
      <point x="822.0246913580247" y="1034.037037037037" type="curve" smooth="yes"/>
      <point x="822.0246913580247" y="1215.6666666666667"/>
      <point x="689.9753086419753" y="1306.5555555555554"/>
      <point x="492.88888888888886" y="1306.5555555555554" type="curve" smooth="yes"/>
      <point x="287.87654320987656" y="1306.5555555555554"/>
      <point x="157.0246913580247" y="1211.0493827160494"/>
      <point x="157.0246913580247" y="1037.6543209876543" type="curve" smooth="yes"/>
      <point x="157.0246913580247" y="928.1975308641976"/>
      <point x="200.4814814814815" y="835.3086419753087"/>
      <point x="357.46913580246917" y="726.1604938271605" type="curve"/>
      <point x="504.88888888888886" y="798.1728395061729" type="line"/>
      <point x="368.71604938271605" y="885.8518518518518"/>
      <point x="328.75308641975306" y="953.7777777777777"/>
      <point x="328.75308641975306" y="1022.0740740740741" type="curve" smooth="yes"/>
      <point x="328.75308641975306" y="1091.1728395061727"/>
      <point x="362.88888888888886" y="1157.0987654320988"/>
      <point x="486.61728395061726" y="1157.0987654320988" type="curve" smooth="yes"/>
      <point x="594.7283950617284" y="1157.0987654320988"/>
      <point x="646.0246913580247" y="1117.641975308642"/>
      <point x="646.0246913580247" y="1025.6543209876543" type="curve" smooth="yes"/>
      <point x="646.0246913580247" y="936.0493827160494"/>
      <point x="583.5432098765432" y="875.2469135802469"/>
      <point x="436.2345679012346" y="794.7037037037037" type="curve" smooth="yes"/>
      <point x="164.5061728395062" y="655.9135802469136"/>
      <point x="69.40740740740742" y="583.3333333333334"/>
      <point x="69.40740740740742" y="389.0987654320988" type="curve" smooth="yes"/>
      <point x="69.40740740740742" y="145.4814814814815"/>
      <point x="274.33333333333337" y="46.35802469135805"/>
    </contour>
    <contour>
      <point x="698.5925925925926" y="-130.86419753086417" type="line"/>
      <point x="838.1234567901234" y="-42.23456790123456" type="line"/>
      <point x="652.9259259259259" y="203.28395061728395" type="line"/>
      <point x="508.5061728395062" y="179.39506172839506" type="line"/>
    </contour>
    <contour>
      <point x="594.604938271605" y="87.32098765432102" type="line"/>
      <point x="679.5432098765432" y="133.8641975308642"/>
      <point x="728.9753086419753" y="175.79012345679013"/>
      <point x="730.5925925925926" y="238.9135802469136" type="curve" smooth="yes"/>
      <point x="732.2098765432098" y="300.11111111111114"/>
      <point x="652.9382716049382" y="391.8148148148148"/>
      <point x="512.0" y="430.32098765432096" type="curve"/>
      <point x="401.51851851851853" y="355.88888888888886" type="line"/>
      <point x="512.5185185185186" y="171.60493827160494" type="line"/>
    </contour>
    <contour>
      <point x="885.4567901234568" y="521.716049382716" type="curve" smooth="yes"/>
      <point x="954.9629629629629" y="521.716049382716"/>
      <point x="1039.8148148148148" y="533.0246913580247"/>
      <point x="1134.5555555555554" y="550.641975308642" type="curve"/>
      <point x="1125.5925925925926" y="701.5185185185185" type="line"/>
      <point x="1033.8148148148148" y="683.5555555555555"/>
      <point x="953.0" y="672.9012345679013"/>
      <point x="887.3456790123457" y="672.9012345679013" type="curve" smooth="yes"/>
      <point x="819.0370370370371" y="672.9012345679013"/>
      <point x="707.8148148148148" y="697.8641975308642"/>
      <point x="569.716049382716" y="770.7407407407408" type="curve"/>
      <point x="422.4567901234568" y="675.9876543209876" type="line"/>
      <point x="629.2962962962963" y="560.604938271605"/>
      <point x="780.9135802469136" y="521.716049382716"/>
    </contour>
  </outline>
</glyph>
<glyph name="l_ja-deva" format="2">
  <advance width="2348.901234567901"/>
  <anchor x="2073.901234567901" y="27.34567901234568" name="bottom"/>
  <anchor x="2055.283950617284" y="1274.1728395061727" name="candra"/>
  <anchor x="1007.5061728395062" y="42.03703703703704" name="nukta"/>
  <anchor x="2072.6296296296296" y="1273.1728395061727" name="top"/>
  <outline>
    <contour>
      <point x="1564.9135802469136" y="710.0123456790124" type="line"/>
      <point x="2092.135802469136" y="710.0123456790124" type="line"/>
      <point x="2092.135802469136" y="870.7407407407408" type="line"/>
      <point x="1496.5185185185185" y="870.7407407407408" type="line"/>
    </contour>
    <contour>
      <point x="1979.4567901234568" y="0.0" type="line"/>
      <point x="2160.41975308642" y="0.0" type="line"/>
      <point x="2160.41975308642" y="1196.2345679012346" type="line"/>
      <point x="1979.4567901234568" y="1196.2345679012346" type="line"/>
    </contour>
    <contour>
      <point x="310.7654320987654" y="26.419753086419757" type="curve"/>
      <point x="440.7901234567901" y="135.7901234567901" type="line"/>
      <point x="334.6296296296296" y="271.5679012345679"/>
      <point x="239.25925925925924" y="417.12345679012344"/>
      <point x="239.25925925925924" y="575.641975308642" type="curve" smooth="yes"/>
      <point x="239.25925925925924" y="720.1358024691358"/>
      <point x="314.1358024691358" y="765.0123456790124"/>
      <point x="401.77777777777777" y="765.0123456790124" type="curve" smooth="yes"/>
      <point x="511.65432098765433" y="765.0123456790124"/>
      <point x="583.3456790123457" y="680.4320987654321"/>
      <point x="653.7777777777777" y="555.0123456790124" type="curve"/>
      <point x="679.0" y="676.5308641975308" type="line"/>
      <point x="606.3086419753087" y="858.9629629629629"/>
      <point x="503.65432098765433" y="933.0864197530864"/>
      <point x="361.11111111111114" y="933.0864197530864" type="curve" smooth="yes"/>
      <point x="172.87654320987656" y="933.0864197530864"/>
      <point x="60.91358024691359" y="812.9259259259259"/>
      <point x="60.91358024691359" y="600.8024691358024" type="curve" smooth="yes"/>
      <point x="60.91358024691359" y="340.22222222222223"/>
      <point x="221.25925925925927" y="131.65432098765433"/>
    </contour>
    <contour>
      <point x="911.7037037037037" y="1117.4814814814815" type="line"/>
      <point x="2365.8271604938273" y="1117.4814814814815" type="line"/>
      <point x="2365.8271604938273" y="1273.1728395061727" type="line"/>
      <point x="911.7037037037037" y="1273.1728395061727" type="line"/>
    </contour>
    <contour>
      <point x="-16.580246913580243" y="1117.4814814814815" type="line"/>
      <point x="932.395061728395" y="1117.4814814814815" type="line"/>
      <point x="932.395061728395" y="1273.1728395061727" type="line"/>
      <point x="-16.580246913580243" y="1273.1728395061727" type="line"/>
    </contour>
    <contour>
      <point x="1581.4074074074074" y="765.8271604938271" type="curve"/>
      <point x="1496.1728395061727" y="870.7407407407408" type="line"/>
      <point x="1437.851851851852" y="744.8271604938271" type="line"/>
      <point x="1557.6543209876543" y="688.0246913580247"/>
      <point x="1614.79012345679" y="610.2592592592592"/>
      <point x="1614.79012345679" y="504.6296296296296" type="curve" smooth="yes"/>
      <point x="1614.79012345679" y="402.98765432098764"/>
      <point x="1556.9135802469136" y="338.72839506172835"/>
      <point x="1444.469135802469" y="337.72839506172835" type="curve" smooth="yes"/>
      <point x="1234.2469135802469" y="335.72839506172835"/>
      <point x="1176.7654320987654" y="596.4567901234568"/>
      <point x="1155.3086419753085" y="694.9506172839506" type="curve" smooth="yes"/>
      <point x="1122.358024691358" y="847.8518518518518"/>
      <point x="1029.0864197530864" y="932.283950617284"/>
      <point x="880.5802469135803" y="932.283950617284" type="curve" smooth="yes"/>
      <point x="685.9506172839506" y="932.283950617284"/>
      <point x="565.7530864197531" y="771.6543209876543"/>
      <point x="565.7530864197531" y="587.3703703703704" type="curve" smooth="yes"/>
      <point x="565.7530864197531" y="540.3703703703704"/>
      <point x="572.1358024691358" y="495.0246913580247"/>
      <point x="589.1358024691358" y="453.98765432098764" type="curve"/>
      <point x="746.320987654321" y="477.0617283950617" type="line"/>
      <point x="739.5925925925926" y="510.40740740740745"/>
      <point x="734.9012345679013" y="542.7901234567902"/>
      <point x="734.9012345679013" y="575.8271604938271" type="curve" smooth="yes"/>
      <point x="734.9012345679013" y="680.4814814814815"/>
      <point x="783.5555555555555" y="765.2098765432099"/>
      <point x="883.6543209876543" y="765.2098765432099" type="curve" smooth="yes"/>
      <point x="978.3086419753087" y="765.2098765432099"/>
      <point x="998.641975308642" y="713.9382716049383"/>
      <point x="1025.4814814814815" y="587.3703703703704" type="curve" smooth="yes"/>
      <point x="1055.851851851852" y="438.8641975308642"/>
      <point x="1147.1604938271605" y="168.03703703703704"/>
      <point x="1455.320987654321" y="168.03703703703704" type="curve" smooth="yes"/>
      <point x="1659.0123456790125" y="168.03703703703704"/>
      <point x="1792.4814814814815" y="284.7654320987654"/>
      <point x="1792.4814814814815" y="466.7283950617284" type="curve" smooth="yes"/>
      <point x="1792.4814814814815" y="613.5679012345679"/>
      <point x="1722.3333333333333" y="692.1728395061729"/>
    </contour>
  </outline>
</glyph>
<glyph name="l_ra-deva" format="2">
  <advance width="908.283950617284"/>
  <outline>
    <contour>
      <point x="687.8765432098766" y="122.45679012345683" type="line"/>
      <point x="1169.3827160493827" y="492.80246913580254" type="line"/>
      <point x="1116.8271604938273" y="636.4444444444445" type="line"/>
      <point x="578.4691358024692" y="253.06172839506175" type="line"/>
    </contour>
    <component base="l-deva"/>
  </outline>
</glyph>
<glyph name="m_na-deva" format="2">
  <advance width="1180.8518518518517"/>
  <anchor x="901.2345679012345" y="0.0" name="bottom"/>
  <anchor x="732.604938271605" y="1273.1728395061727" name="candra"/>
  <anchor x="314.5555555555556" y="68.86419753086417" name="nukta"/>
  <anchor x="901.2345679012345" y="1273.1728395061727" name="top"/>
  <outline>
    <contour>
      <point x="537.604938271605" y="-59.604938271604915" type="line"/>
      <point x="576.6172839506173" y="-29.135802469135783"/>
      <point x="592.4691358024692" y="0.9876543209876658"/>
      <point x="594.1234567901234" y="29.148148148148152" type="curve" smooth="yes"/>
      <point x="595.7777777777777" y="55.69135802469136"/>
      <point x="586.4691358024692" y="81.58024691358024"/>
      <point x="572.1604938271605" y="103.85185185185185" type="curve" smooth="yes"/>
      <point x="525.4074074074074" y="175.679012345679" type="line"/>
      <point x="508.71604938271605" y="117.09876543209879" type="line"/>
      <point x="934.7283950617284" y="447.8395061728395" type="line"/>
      <point x="833.4567901234568" y="534.4567901234568" type="line"/>
      <point x="254.24691358024694" y="149.6172839506173" type="line"/>
      <point x="318.7530864197531" y="27.209876543209894" type="line"/>
    </contour>
    <component base="ma-deva"/>
  </outline>
</glyph>
<glyph name="macroncomb.cap" format="2">
  <anchor x="270.7037037037037" y="1342.0740740740741" name="_top"/>
  <anchor x="270.7037037037037" y="1620.8641975308642" name="top"/>
  <outline>
    <contour>
      <point x="10.0" y="1489.1481481481483" type="line"/>
      <point x="531.4074074074074" y="1489.1481481481483" type="line"/>
      <point x="531.4074074074074" y="1620.8641975308642" type="line"/>
      <point x="10.0" y="1620.8641975308642" type="line"/>
    </contour>
  </outline>
</glyph>
<glyph name="n_ca-deva" format="2">
  <advance width="1791.8641975308642"/>
  <anchor x="1442.8765432098764" y="27.34567901234568" name="bottom"/>
  <anchor x="1123.20987654321" y="1273.5185185185185" name="candra"/>
  <anchor x="147.88888888888886" y="84.0" name="nukta"/>
  <anchor x="1481.4444444444443" y="1287.3456790123457" name="top"/>
  <outline>
    <contour>
      <point x="257.96296296296293" y="288.11111111111114" type="line"/>
      <point x="387.3333333333333" y="288.11111111111114"/>
      <point x="408.6049382716049" y="362.54320987654324"/>
      <point x="408.6049382716049" y="454.24691358024694" type="curve" smooth="yes"/>
      <point x="408.6049382716049" y="650.1851851851852" type="line"/>
      <point x="110.18518518518519" y="650.1851851851852" type="line"/>
      <point x="110.18518518518519" y="504.1604938271605" type="line"/>
    </contour>
    <contour>
      <point x="238.98765432098767" y="490.11111111111114" type="line"/>
      <point x="834.9259259259259" y="490.11111111111114" type="line"/>
      <point x="834.9259259259259" y="650.5308641975308" type="line"/>
      <point x="238.98765432098767" y="650.1851851851852" type="line"/>
    </contour>
    <contour>
      <point x="1143.1728395061727" y="203.45679012345678" type="curve" smooth="yes"/>
      <point x="1327.8395061728395" y="202.41975308641975"/>
      <point x="1435.9876543209875" y="282.61728395061726"/>
      <point x="1529.679012345679" y="394.4567901234568" type="curve"/>
      <point x="1502.4444444444443" y="573.7654320987654" type="line"/>
      <point x="1409.4567901234568" y="445.12345679012344"/>
      <point x="1309.8395061728395" y="357.2222222222222"/>
      <point x="1156.0987654320988" y="359.25925925925924" type="curve" smooth="yes"/>
      <point x="1026.1975308641975" y="361.641975308642"/>
      <point x="961.8518518518518" y="441.1728395061728"/>
      <point x="961.8518518518518" y="552.1604938271605" type="curve" smooth="yes"/>
      <point x="961.8518518518518" y="674.8271604938271"/>
      <point x="1077.0" y="776.7530864197531"/>
      <point x="1234.0617283950617" y="764.8271604938271" type="curve"/>
      <point x="1204.716049382716" y="833.0246913580247" type="line"/>
      <point x="1052.3827160493827" y="818.1851851851852" type="line"/>
      <point x="867.5802469135803" y="790.1481481481482"/>
      <point x="776.5432098765432" y="678.2592592592592"/>
      <point x="776.5432098765432" y="532.3827160493827" type="curve" smooth="yes"/>
      <point x="776.5432098765432" y="351.8024691358025"/>
      <point x="898.0493827160494" y="204.83950617283952"/>
    </contour>
    <contour>
      <point x="634.320987654321" y="764.4814814814815" type="line"/>
      <point x="1283.358024691358" y="764.8271604938271" type="line"/>
      <point x="1283.358024691358" y="917.9753086419753" type="line"/>
      <point x="634.320987654321" y="917.6296296296296" type="line"/>
    </contour>
    <contour>
      <point x="1422.7654320987654" y="0.0" type="line"/>
      <point x="1603.7283950617284" y="0.0" type="line"/>
      <point x="1603.7283950617284" y="1181.8765432098764" type="line"/>
      <point x="1422.7654320987654" y="1181.8765432098764" type="line"/>
    </contour>
    <contour>
      <point x="-16.580246913580243" y="1117.4814814814815" type="line"/>
      <point x="1808.79012345679" y="1117.4814814814815" type="line"/>
      <point x="1808.79012345679" y="1273.1728395061727" type="line"/>
      <point x="-16.580246913580243" y="1273.1728395061727" type="line"/>
    </contour>
  </outline>
</glyph>
<glyph name="n_n-deva" format="2">
  <advance width="703.1604938271605"/>
  <outline>
    <contour>
      <point x="801.6666666666666" y="653.8765432098766" type="line"/>
      <point x="175.80246913580248" y="333.60493827160496" type="line"/>
      <point x="232.58024691358025" y="205.54320987654324" type="line"/>
      <point x="436.7407407407407" y="91.65432098765436" type="line"/>
      <point x="539.9135802469135" y="143.43209876543213"/>
      <point x="526.6419753086419" y="215.2098765432099"/>
      <point x="488.09876543209873" y="287.33333333333337" type="curve" smooth="yes"/>
      <point x="446.641975308642" y="351.37255555555555" type="line"/>
      <point x="441.1481481481481" y="295.70370370370375" type="line"/>
      <point x="867.3333333333333" y="522.5432098765432" type="line"/>
    </contour>
    <contour>
      <point x="174.74074074074073" y="964.4567901234568" type="line"/>
      <point x="124.07407407407408" y="845.2098765432098" type="line"/>
      <point x="178.5679012345679" y="622.4320987654321" type="line"/>
      <point x="296.66666666666663" y="585.3086419753087"/>
      <point x="331.59259259259255" y="644.1604938271605"/>
      <point x="356.48148148148147" y="727.8641975308642" type="curve" smooth="yes"/>
      <point x="378.9012345679012" y="801.9629629629629" type="line"/>
      <point x="326.2098765432099" y="772.2716049382716" type="line"/>
      <point x="897.7654320987654" y="599.4074074074074" type="line"/>
      <point x="910.1851851851851" y="744.6296296296296" type="line"/>
    </contour>
    <contour>
      <point x="723.0123456790124" y="1273.1728395061727" type="line"/>
      <point x="-16.580246913580243" y="1273.1728395061727" type="line"/>
      <point x="-16.580246913580243" y="1117.4814814814815" type="line"/>
      <point x="723.0123456790124" y="1117.4814814814815" type="line"/>
    </contour>
  </outline>
</glyph>
<glyph name="n_th_ya-deva" format="2">
  <advance width="2408.0246913580245"/>
  <anchor x="221.71604938271602" y="84.0" name="nukta"/>
  <anchor x="2128.753086419753" y="0.0" name="bottom"/>
  <anchor x="2013.962962962963" y="1273.1728395061727" name="candra"/>
  <anchor x="2128.753086419753" y="1273.1728395061727" name="top"/>
  <outline>
    <contour>
      <point x="194.50617283950618" y="360.8271604938272" type="line"/>
      <point x="323.8765432098765" y="360.8271604938272"/>
      <point x="345.1481481481481" y="435.2592592592593"/>
      <point x="345.1481481481481" y="526.9629629629629" type="curve" smooth="yes"/>
      <point x="345.1481481481481" y="722.9012345679013" type="line"/>
      <point x="46.7283950617284" y="722.9012345679013" type="line"/>
      <point x="46.7283950617284" y="576.8765432098766" type="line"/>
    </contour>
    <contour>
      <point x="175.53086419753086" y="562.8271604938271" type="line"/>
      <point x="758.0123456790124" y="562.8271604938271" type="line"/>
      <point x="758.0123456790124" y="723.2469135802469" type="line"/>
      <point x="175.53086419753086" y="722.9012345679013" type="line"/>
    </contour>
    <contour>
      <point x="-16.580246913580243" y="1117.4814814814815" type="line"/>
      <point x="574.641975308642" y="1117.4814814814815" type="line"/>
      <point x="574.641975308642" y="1273.1728395061727" type="line"/>
      <point x="-16.580246913580243" y="1273.1728395061727" type="line"/>
    </contour>
    <component base="th-deva" xOffset="548.4938271604939"/>
    <component base="ya-deva" xOffset="1252.6666666666667"/>
  </outline>
</glyph>
<glyph name="n_tha-deva" format="2">
  <advance width="1790.20987654321"/>
  <anchor x="221.71604938271602" y="84.0" name="nukta"/>
  <anchor x="1510.5925925925926" y="0.0" name="bottom"/>
  <anchor x="1426.5061728395062" y="1273.1728395061727" name="candra"/>
  <anchor x="1512.5555555555554" y="1273.1728395061727" name="top"/>
  <outline>
    <contour>
      <point x="194.50617283950618" y="360.8271604938272" type="line"/>
      <point x="323.8765432098765" y="360.8271604938272"/>
      <point x="345.1481481481481" y="435.2592592592593"/>
      <point x="345.1481481481481" y="526.9629629629629" type="curve" smooth="yes"/>
      <point x="345.1481481481481" y="722.9012345679013" type="line"/>
      <point x="46.7283950617284" y="722.9012345679013" type="line"/>
      <point x="46.7283950617284" y="576.8765432098766" type="line"/>
    </contour>
    <contour>
      <point x="175.53086419753086" y="562.8271604938271" type="line"/>
      <point x="758.0123456790124" y="562.8271604938271" type="line"/>
      <point x="758.0123456790124" y="723.2469135802469" type="line"/>
      <point x="175.53086419753086" y="722.9012345679013" type="line"/>
    </contour>
    <contour>
      <point x="-16.580246913580243" y="1117.4814814814815" type="line"/>
      <point x="574.641975308642" y="1117.4814814814815" type="line"/>
      <point x="574.641975308642" y="1273.1728395061727" type="line"/>
      <point x="-16.580246913580243" y="1273.1728395061727" type="line"/>
    </contour>
    <component base="tha-deva" xOffset="548.4938271604939"/>
  </outline>
</glyph>
<glyph name="nine.tf" format="2">
  <advance width="1003.0"/>
  <outline>
    <contour>
      <point x="448.4320987654321" y="-192.80246913580248" type="curve" smooth="yes"/>
      <point x="724.8641975308642" y="-192.80246913580248"/>
      <point x="915.1358024691358" y="31.049382716049372"/>
      <point x="915.1358024691358" y="536.3827160493827" type="curve" smooth="yes"/>
      <point x="915.1358024691358" y="1005.395061728395"/>
      <point x="738.7777777777777" y="1200.5802469135801"/>
      <point x="464.5061728395062" y="1200.5802469135801" type="curve" smooth="yes"/>
      <point x="237.53086419753086" y="1200.5802469135801"/>
      <point x="57.83950617283951" y="1021.2345679012345"/>
      <point x="57.83950617283951" y="767.7283950617284" type="curve" smooth="yes"/>
      <point x="57.83950617283951" y="499.11111111111114"/>
      <point x="206.69135802469137" y="333.69135802469134"/>
      <point x="432.69135802469134" y="333.69135802469134" type="curve" smooth="yes"/>
      <point x="549.5679012345679" y="333.69135802469134"/>
      <point x="662.9506172839506" y="388.14814814814815"/>
      <point x="736.716049382716" y="489.5679012345679" type="curve"/>
      <point x="731.0617283950618" y="96.82716049382714"/>
      <point x="617.8395061728395" y="-34.92592592592596"/>
      <point x="440.1975308641975" y="-34.92592592592596" type="curve" smooth="yes"/>
      <point x="358.8148148148148" y="-34.92592592592596"/>
      <point x="262.77777777777777" y="5.728395061728364"/>
      <point x="218.04938271604937" y="60.83950617283948" type="curve"/>
      <point x="120.8395061728395" y="-59.87654320987655" type="line"/>
      <point x="207.07407407407408" y="-144.49382716049382"/>
      <point x="304.0" y="-192.80246913580248"/>
    </contour>
    <contour>
      <point x="465.4691358024691" y="476.0617283950617" type="curve" smooth="yes"/>
      <point x="309.641975308642" y="476.0617283950617"/>
      <point x="235.2222222222222" y="599.6666666666666"/>
      <point x="235.2222222222222" y="764.9629629629629" type="curve" smooth="yes"/>
      <point x="235.2222222222222" y="934.5308641975308"/>
      <point x="339.7901234567901" y="1052.283950617284"/>
      <point x="466.8148148148148" y="1052.283950617284" type="curve" smooth="yes"/>
      <point x="637.0987654320987" y="1052.283950617284"/>
      <point x="728.8271604938271" y="919.0370370370371"/>
      <point x="734.4814814814815" y="635.4320987654321" type="curve"/>
      <point x="650.9135802469136" y="515.5185185185185"/>
      <point x="547.3456790123457" y="476.0617283950617"/>
    </contour>
  </outline>
</glyph>
<glyph name="nn_ra-deva" format="2">
  <advance width="1025.8271604938273"/>
  <outline>
    <contour>
      <point x="688.1975308641975" y="-28.851851851851848" type="line"/>
      <point x="1296.1975308641975" y="435.5925925925926" type="line"/>
      <point x="1191.3086419753085" y="539.716049382716" type="line"/>
      <point x="579.4814814814814" y="102.75308641975306" type="line"/>
    </contour>
    <component base="nn-deva"/>
  </outline>
</glyph>
<glyph name="ny_ra-deva" format="2">
  <advance width="1055.1481481481483"/>
  <outline>
    <contour>
      <point x="554.3086419753087" y="263.8024691358025" type="curve" smooth="yes"/>
      <point x="779.2716049382716" y="263.8024691358025"/>
      <point x="916.9753086419753" y="394.60493827160496"/>
      <point x="916.9753086419753" y="588.3086419753087" type="curve" smooth="yes"/>
      <point x="916.9753086419753" y="816.4074074074074"/>
      <point x="765.0740740740741" y="933.2469135802469"/>
      <point x="569.1975308641976" y="933.2469135802469" type="curve" smooth="yes"/>
      <point x="511.88888888888886" y="933.2469135802469"/>
      <point x="460.2716049382716" y="925.6296296296296"/>
      <point x="414.4320987654321" y="904.9382716049382" type="curve"/>
      <point x="444.358024691358" y="755.4444444444445" type="line"/>
      <point x="481.85185185185185" y="764.8271604938271"/>
      <point x="519.3456790123457" y="769.8271604938271"/>
      <point x="570.0" y="769.8271604938271" type="curve" smooth="yes"/>
      <point x="672.2962962962963" y="769.8271604938271"/>
      <point x="747.5555555555555" y="723.8765432098766"/>
      <point x="749.2098765432099" y="603.4691358024692" type="curve" smooth="yes"/>
      <point x="752.1728395061729" y="488.66666666666663"/>
      <point x="666.5925925925926" y="426.91358024691357"/>
      <point x="550.3827160493827" y="426.91358024691357" type="curve" smooth="yes"/>
      <point x="363.04938271604937" y="426.91358024691357"/>
      <point x="247.320987654321" y="567.5925925925926"/>
      <point x="185.28395061728395" y="869.679012345679" type="curve"/>
      <point x="42.33333333333334" y="840.7901234567901" type="line"/>
      <point x="111.71604938271606" y="394.01234567901236"/>
      <point x="338.08641975308643" y="263.8024691358025"/>
    </contour>
    <contour>
      <point x="809.9135802469135" y="-44.74074074074073" type="line"/>
      <point x="1293.79012345679" y="352.6172839506173" type="line"/>
      <point x="1237.320987654321" y="480.5308641975309" type="line"/>
      <point x="701.1975308641976" y="78.28395061728394" type="line"/>
    </contour>
    <contour>
      <point x="859.8271604938271" y="475.3703703703704" type="line"/>
      <point x="960.716049382716" y="456.40740740740745"/>
      <point x="1155.6543209876543" y="487.5432098765432"/>
      <point x="1235.8271604938273" y="549.5432098765432" type="curve"/>
      <point x="1228.8271604938273" y="722.6543209876543" type="line"/>
      <point x="1104.2592592592591" y="635.3456790123456"/>
      <point x="931.0123456790124" y="609.5185185185185"/>
      <point x="817.4691358024692" y="623.8271604938271" type="curve"/>
    </contour>
    <contour>
      <point x="-16.580246913580243" y="1117.4814814814815" type="line"/>
      <point x="1118.7777777777778" y="1117.4814814814815" type="line"/>
      <point x="1118.7777777777778" y="1273.1728395061727" type="line"/>
      <point x="-16.580246913580243" y="1273.1728395061727" type="line"/>
    </contour>
  </outline>
</glyph>
<glyph name="one.tf" format="2">
  <advance width="1003.0"/>
  <outline>
    <contour>
      <point x="135.90123456790127" y="0.0" type="line"/>
      <point x="887.5432098765432" y="0.0" type="line"/>
      <point x="887.5432098765432" y="154.25925925925924" type="line"/>
      <point x="623.320987654321" y="154.25925925925924" type="line"/>
      <point x="623.320987654321" y="1176.9259259259259" type="line"/>
      <point x="478.0617283950617" y="1176.9259259259259" type="line"/>
      <point x="402.8641975308642" y="1132.037037037037"/>
      <point x="315.90123456790127" y="1098.7283950617284"/>
      <point x="192.74074074074076" y="1076.7654320987654" type="curve"/>
      <point x="192.74074074074076" y="953.0123456790124" type="line"/>
      <point x="432.01234567901236" y="967.395061728395" type="line"/>
      <point x="432.01234567901236" y="154.25925925925924" type="line"/>
      <point x="135.90123456790127" y="154.25925925925924" type="line"/>
    </contour>
  </outline>
</glyph>
<glyph name="p_na-deva" format="2">
  <advance width="1172.1975308641975"/>
  <anchor x="893.5802469135803" y="0.0" name="bottom"/>
  <anchor x="776.7530864197531" y="1273.1728395061727" name="candra"/>
  <anchor x="286.58024691358025" y="104.44444444444446" name="nukta"/>
  <anchor x="893.8888888888889" y="1273.1728395061727" name="top"/>
  <outline>
    <contour>
      <point x="423.8518518518519" y="-90.29629629629628" type="line"/>
      <point x="462.8641975308642" y="-59.827160493827144"/>
      <point x="478.71604938271605" y="-29.703703703703695"/>
      <point x="480.3703703703704" y="-1.5432098765432052" type="curve" smooth="yes"/>
      <point x="482.0246913580247" y="25.0"/>
      <point x="472.71604938271605" y="50.888888888888886"/>
      <point x="458.40740740740745" y="73.1604938271605" type="curve" smooth="yes"/>
      <point x="411.65432098765433" y="144.98765432098767" type="line"/>
      <point x="394.96296296296293" y="86.40740740740742" type="line"/>
      <point x="837.5679012345679" y="428.5555555555556" type="line"/>
      <point x="736.2962962962963" y="515.1728395061729" type="line"/>
      <point x="140.49382716049388" y="118.92592592592592" type="line"/>
      <point x="205.00000000000003" y="-3.481481481481463" type="line"/>
    </contour>
    <component base="pa-deva"/>
  </outline>
</glyph>
<glyph name="p_ra-deva" format="2">
  <advance width="672.0246913580247"/>
  <outline>
    <contour>
      <point x="248.30864197530863" y="-42.703703703703695" type="line"/>
      <point x="824.4567901234568" y="481.0246913580247" type="line"/>
      <point x="733.2962962962963" y="578.4567901234568" type="line"/>
      <point x="138.90123456790127" y="88.93827160493825" type="line"/>
    </contour>
    <contour>
      <point x="509.03703703703707" y="352.60493827160496" type="curve" smooth="yes"/>
      <point x="651.9382716049382" y="352.60493827160496"/>
      <point x="795.9753086419753" y="425.0"/>
      <point x="878.7777777777777" y="547.1975308641976" type="curve"/>
      <point x="843.1481481481482" y="717.4938271604938" type="line"/>
      <point x="760.8518518518518" y="586.4567901234568"/>
      <point x="646.358024691358" y="517.6419753086419"/>
      <point x="519.6172839506173" y="516.6419753086419" type="curve" smooth="yes"/>
      <point x="379.98765432098764" y="515.2962962962963"/>
      <point x="340.41975308641975" y="582.0864197530864"/>
      <point x="340.41975308641975" y="722.8888888888889" type="curve" smooth="yes"/>
      <point x="340.41975308641975" y="1148.5555555555557" type="line"/>
      <point x="156.49382716049382" y="1148.5555555555557" type="line"/>
      <point x="156.49382716049382" y="735.0" type="line" smooth="yes"/>
      <point x="156.49382716049382" y="483.14814814814815"/>
      <point x="276.65432098765433" y="352.60493827160496"/>
    </contour>
    <contour>
      <point x="-16.580246913580243" y="1117.4814814814815" type="line"/>
      <point x="683.9506172839506" y="1117.4814814814815" type="line"/>
      <point x="683.9506172839506" y="1273.1728395061727" type="line"/>
      <point x="-16.580246913580243" y="1273.1728395061727" type="line"/>
    </contour>
  </outline>
</glyph>
<glyph name="ph_na-deva" format="2">
  <advance width="1593.1358024691358"/>
  <anchor x="13.370370370370384" y="358.71604938271605" name="nukta"/>
  <anchor x="858.1358024691358" y="0.0" name="bottom"/>
  <anchor x="855.0246913580247" y="1273.1728395061727" name="candra"/>
  <anchor x="855.5185185185185" y="1273.1728395061727" name="top"/>
  <outline>
    <contour>
      <point x="374.1975308641976" y="-83.75308641975306" type="line"/>
      <point x="413.2098765432099" y="-53.283950617283935"/>
      <point x="429.0617283950617" y="-23.160493827160487"/>
      <point x="430.71604938271605" y="5.0" type="curve" smooth="yes"/>
      <point x="432.3703703703704" y="31.543209876543205"/>
      <point x="423.0617283950617" y="57.43209876543209"/>
      <point x="408.7530864197531" y="79.7037037037037" type="curve" smooth="yes"/>
      <point x="362.0" y="151.53086419753086" type="line"/>
      <point x="345.30864197530866" y="92.95061728395063" type="line"/>
      <point x="787.9135802469136" y="435.0987654320988" type="line"/>
      <point x="686.641975308642" y="521.716049382716" type="line"/>
      <point x="90.83950617283955" y="125.46913580246913" type="line"/>
      <point x="155.34567901234573" y="3.061728395061742" type="line"/>
    </contour>
    <component base="pha-deva"/>
  </outline>
</glyph>
<glyph name="ph_ra-deva" format="2">
  <advance width="1209.4444444444446"/>
  <anchor x="864.5802469135803" y="0.37037037037038445" name="bottom"/>
  <anchor x="644.7283950617285" y="1272.20987654321" name="candra"/>
  <anchor x="459.0" y="82.61728395061728" name="nukta"/>
  <anchor x="865.7777777777777" y="1285.3827160493827" name="top"/>
  <outline>
    <contour>
      <point x="213.01234567901233" y="-29.61728395061728" type="line"/>
      <point x="799.0740740740741" y="442.40740740740745" type="line"/>
      <point x="698.0" y="535.0" type="line"/>
      <point x="103.60493827160495" y="102.02469135802467" type="line"/>
    </contour>
    <component base="ph-deva"/>
  </outline>
</glyph>
<glyph name="q_ba-deva" format="2">
  <advance width="2298.5925925925926"/>
  <anchor x="2017.20987654321" y="27.34567901234568" name="bottom"/>
  <anchor x="1673.7160493827162" y="1273.5185185185185" name="candra"/>
  <anchor x="1276.0246913580247" y="68.86419753086417" name="nukta"/>
  <anchor x="2017.20987654321" y="1273.8641975308642" name="top"/>
  <outline>
    <contour>
      <point x="701.0617283950618" y="0.0" type="line"/>
      <point x="882.0246913580247" y="0.0" type="line"/>
      <point x="882.0246913580247" y="1188.8024691358025" type="line"/>
      <point x="701.0617283950618" y="1188.8024691358025" type="line"/>
    </contour>
    <contour>
      <point x="408.69135802469134" y="205.33333333333334" type="curve" smooth="yes"/>
      <point x="557.0" y="205.33333333333334"/>
      <point x="705.4691358024692" y="272.2962962962963"/>
      <point x="784.5432098765432" y="391.34567901234567" type="curve"/>
      <point x="738.3333333333334" y="527.395061728395" type="line"/>
      <point x="665.3333333333334" y="428.2469135802469"/>
      <point x="554.4197530864197" y="360.1358024691358"/>
      <point x="423.88888888888886" y="360.1358024691358" type="curve" smooth="yes"/>
      <point x="307.2098765432099" y="360.1358024691358"/>
      <point x="246.29629629629628" y="411.5432098765432"/>
      <point x="246.29629629629628" y="556.4567901234568" type="curve" smooth="yes"/>
      <point x="246.29629629629628" y="712.2962962962963"/>
      <point x="330.4074074074074" y="764.6296296296297"/>
      <point x="457.01234567901236" y="768.9753086419753" type="curve" smooth="yes"/>
      <point x="546.5802469135803" y="771.6666666666667"/>
      <point x="657.4691358024692" y="754.283950617284"/>
      <point x="781.4320987654321" y="695.395061728395" type="curve"/>
      <point x="781.4320987654321" y="800.0617283950618" type="line"/>
      <point x="703.0617283950617" y="879.0740740740741"/>
      <point x="580.1358024691358" y="932.0123456790124"/>
      <point x="431.4938271604938" y="932.0123456790124" type="curve" smooth="yes"/>
      <point x="201.45679012345678" y="932.0123456790124"/>
      <point x="63.296296296296305" y="812.0493827160494"/>
      <point x="63.296296296296305" y="565.3827160493827" type="curve" smooth="yes"/>
      <point x="63.296296296296305" y="389.66666666666663"/>
      <point x="154.04938271604942" y="205.33333333333334"/>
    </contour>
    <contour>
      <point x="1277.7283950617284" y="645.8271604938271" type="curve"/>
      <point x="1403.3333333333333" y="757.5432098765432" type="line"/>
      <point x="1355.0617283950617" y="834.1234567901234"/>
      <point x="1272.4814814814815" y="878.0123456790124"/>
      <point x="1165.0123456790122" y="878.0123456790124" type="curve" smooth="yes"/>
      <point x="1031.8518518518517" y="878.0123456790124"/>
      <point x="926.7777777777777" y="822.0123456790124"/>
      <point x="824.8148148148148" y="699.358024691358" type="curve"/>
      <point x="824.8148148148148" y="439.2592592592593" type="line"/>
      <point x="973.9506172839506" y="646.4444444444445"/>
      <point x="1077.641975308642" y="716.9012345679013"/>
      <point x="1156.0123456790122" y="716.9012345679013" type="curve" smooth="yes"/>
      <point x="1216.1604938271605" y="716.9012345679013"/>
      <point x="1258.962962962963" y="694.2469135802469"/>
    </contour>
    <contour>
      <point x="231.00000000000006" y="100.79012345679014" type="curve" smooth="yes"/>
      <point x="156.98765432098773" y="100.79012345679014"/>
      <point x="124.79012345679021" y="69.59259259259261"/>
      <point x="124.79012345679021" y="-4.419753086419725" type="curve" smooth="yes"/>
      <point x="124.79012345679021" y="-77.43209876543206"/>
      <point x="156.98765432098773" y="-108.62962962962958"/>
      <point x="231.00000000000006" y="-108.62962962962958" type="curve" smooth="yes"/>
      <point x="305.0123456790124" y="-108.62962962962958"/>
      <point x="336.86419753086426" y="-77.43209876543206"/>
      <point x="336.86419753086426" y="-4.419753086419725" type="curve" smooth="yes"/>
      <point x="336.86419753086426" y="69.59259259259261"/>
      <point x="305.0123456790124" y="100.79012345679014"/>
    </contour>
    <contour>
      <point x="1625.9012345679012" y="186.0987654320988" type="curve" smooth="yes"/>
      <point x="1780.5185185185185" y="186.0987654320988"/>
      <point x="1925.8765432098764" y="241.06172839506175"/>
      <point x="2013.7530864197531" y="365.4938271604938" type="curve"/>
      <point x="1972.6172839506173" y="491.8148148148148" type="line"/>
      <point x="1874.1604938271605" y="384.7407407407407"/>
      <point x="1786.5555555555554" y="332.28395061728395"/>
      <point x="1630.79012345679" y="332.28395061728395" type="curve" smooth="yes"/>
      <point x="1482.716049382716" y="332.28395061728395"/>
      <point x="1430.037037037037" y="402.4320987654321"/>
      <point x="1430.037037037037" y="568.7654320987655" type="curve" smooth="yes"/>
      <point x="1430.037037037037" y="734.5555555555555"/>
      <point x="1481.2962962962963" y="792.5925925925926"/>
      <point x="1648.3703703703704" y="797.9382716049383" type="curve" smooth="yes"/>
      <point x="1753.6296296296296" y="800.6296296296297"/>
      <point x="1869.1358024691358" y="782.9382716049383"/>
      <point x="2002.20987654321" y="718.6666666666667" type="curve"/>
      <point x="1997.5185185185185" y="846.4938271604939" type="line"/>
      <point x="1886.1851851851852" y="914.6172839506173"/>
      <point x="1779.530864197531" y="944.1234567901234"/>
      <point x="1650.5555555555554" y="944.1234567901234" type="curve" smooth="yes"/>
      <point x="1394.469135802469" y="944.1234567901234"/>
      <point x="1252.6913580246915" y="820.8518518518518"/>
      <point x="1252.6913580246915" y="570.7654320987655" type="curve" smooth="yes"/>
      <point x="1252.6913580246915" y="301.67901234567904"/>
      <point x="1411.8148148148148" y="186.0987654320988"/>
    </contour>
    <contour>
      <point x="1875.0864197530864" y="298.33333333333337" type="line"/>
      <point x="1964.2592592592591" y="391.1975308641975" type="line"/>
      <point x="1502.6913580246912" y="856.5308641975308" type="line"/>
      <point x="1413.1728395061727" y="763.320987654321" type="line"/>
    </contour>
    <contour>
      <point x="1926.7283950617284" y="0.0" type="line"/>
      <point x="2107.6913580246915" y="0.0" type="line"/>
      <point x="2107.6913580246915" y="1181.8765432098764" type="line"/>
      <point x="1926.7283950617284" y="1181.8765432098764" type="line"/>
    </contour>
    <contour>
      <point x="-16.580246913580243" y="1117.4814814814815" type="line"/>
      <point x="2315.5185185185187" y="1117.4814814814815" type="line"/>
      <point x="2315.5185185185187" y="1273.1728395061727" type="line"/>
      <point x="-16.580246913580243" y="1273.1728395061727" type="line"/>
    </contour>
  </outline>
</glyph>
<glyph name="q_fa-deva" format="2">
  <advance width="2680.135802469136"/>
  <anchor x="785.0" y="28.0" name="bottom"/>
  <anchor x="783.0" y="1274.1728395061727" name="candra"/>
  <anchor x="1551.5555555555552" y="1288.7283950617284" name="top"/>
  <outline>
    <contour>
      <point x="701.0617283950618" y="0.0" type="line"/>
      <point x="882.0246913580247" y="0.0" type="line"/>
      <point x="882.0246913580247" y="1188.8024691358025" type="line"/>
      <point x="701.0617283950618" y="1188.8024691358025" type="line"/>
    </contour>
    <contour>
      <point x="408.69135802469134" y="205.33333333333334" type="curve" smooth="yes"/>
      <point x="557.0" y="205.33333333333334"/>
      <point x="705.4691358024692" y="272.2962962962963"/>
      <point x="784.5432098765432" y="391.34567901234567" type="curve"/>
      <point x="738.3333333333334" y="527.395061728395" type="line"/>
      <point x="665.3333333333334" y="428.2469135802469"/>
      <point x="554.4197530864197" y="360.1358024691358"/>
      <point x="423.88888888888886" y="360.1358024691358" type="curve" smooth="yes"/>
      <point x="307.2098765432099" y="360.1358024691358"/>
      <point x="246.29629629629628" y="411.5432098765432"/>
      <point x="246.29629629629628" y="556.4567901234568" type="curve" smooth="yes"/>
      <point x="246.29629629629628" y="712.2962962962963"/>
      <point x="330.4074074074074" y="764.6296296296297"/>
      <point x="457.01234567901236" y="768.9753086419753" type="curve" smooth="yes"/>
      <point x="546.5802469135803" y="772.0123456790124"/>
      <point x="657.4691358024692" y="754.283950617284"/>
      <point x="781.4320987654321" y="695.395061728395" type="curve"/>
      <point x="781.4320987654321" y="800.0617283950618" type="line"/>
      <point x="703.0617283950617" y="879.0740740740741"/>
      <point x="580.1358024691358" y="932.0123456790124"/>
      <point x="431.4938271604938" y="932.0123456790124" type="curve" smooth="yes"/>
      <point x="201.45679012345678" y="932.0123456790124"/>
      <point x="63.296296296296305" y="812.0493827160494"/>
      <point x="63.296296296296305" y="565.3827160493827" type="curve" smooth="yes"/>
      <point x="63.296296296296305" y="389.66666666666663"/>
      <point x="154.04938271604942" y="205.33333333333334"/>
    </contour>
    <contour>
      <point x="1277.7283950617284" y="645.8271604938271" type="curve"/>
      <point x="1403.3333333333333" y="757.5432098765432" type="line"/>
      <point x="1355.0617283950617" y="834.1234567901234"/>
      <point x="1272.4814814814815" y="878.0123456790124"/>
      <point x="1165.0123456790122" y="878.0123456790124" type="curve" smooth="yes"/>
      <point x="1031.8518518518517" y="878.0123456790124"/>
      <point x="926.7777777777777" y="822.0123456790124"/>
      <point x="824.8148148148148" y="699.358024691358" type="curve"/>
      <point x="824.8148148148148" y="439.2592592592593" type="line"/>
      <point x="973.9506172839506" y="646.4444444444445"/>
      <point x="1077.641975308642" y="716.9012345679013"/>
      <point x="1156.0123456790122" y="716.9012345679013" type="curve" smooth="yes"/>
      <point x="1216.1604938271605" y="716.9012345679013"/>
      <point x="1258.962962962963" y="694.2469135802469"/>
    </contour>
    <contour>
      <point x="231.00000000000006" y="100.79012345679014" type="curve" smooth="yes"/>
      <point x="156.98765432098773" y="100.79012345679014"/>
      <point x="124.79012345679021" y="69.59259259259261"/>
      <point x="124.79012345679021" y="-4.419753086419725" type="curve" smooth="yes"/>
      <point x="124.79012345679021" y="-77.43209876543206"/>
      <point x="156.98765432098773" y="-108.62962962962958"/>
      <point x="231.00000000000006" y="-108.62962962962958" type="curve" smooth="yes"/>
      <point x="305.0123456790124" y="-108.62962962962958"/>
      <point x="336.86419753086426" y="-77.43209876543206"/>
      <point x="336.86419753086426" y="-4.419753086419725" type="curve" smooth="yes"/>
      <point x="336.86419753086426" y="69.59259259259261"/>
      <point x="305.0123456790124" y="100.79012345679014"/>
    </contour>
    <contour>
      <point x="1586.469135802469" y="320.22222222222223" type="curve" smooth="yes"/>
      <point x="1716.5185185185185" y="320.22222222222223"/>
      <point x="1867.4814814814815" y="392.30864197530866"/>
      <point x="1950.2839506172838" y="537.9012345679013" type="curve"/>
      <point x="1914.6543209876543" y="687.4197530864197" type="line"/>
      <point x="1832.358024691358" y="556.7283950617284"/>
      <point x="1718.1728395061727" y="485.6049382716049"/>
      <point x="1597.0493827160494" y="484.6049382716049" type="curve" smooth="yes"/>
      <point x="1466.9876543209875" y="483.6049382716049"/>
      <point x="1427.4197530864196" y="550.358024691358"/>
      <point x="1427.4197530864196" y="690.8518518518518" type="curve" smooth="yes"/>
      <point x="1427.4197530864196" y="1169.641975308642" type="line"/>
      <point x="1243.4938271604938" y="1169.641975308642" type="line"/>
      <point x="1243.4938271604938" y="702.6172839506173" type="line" smooth="yes"/>
      <point x="1243.4938271604938" y="450.4567901234568"/>
      <point x="1363.6543209876543" y="320.22222222222223"/>
    </contour>
    <contour>
      <point x="1864.3703703703704" y="0.0" type="line"/>
      <point x="2045.9876543209875" y="0.0" type="line"/>
      <point x="2045.9876543209875" y="1196.2345679012346" type="line"/>
      <point x="1864.3703703703704" y="1196.2345679012346" type="line"/>
    </contour>
    <contour>
      <point x="2450.938271604938" y="139.8641975308642" type="line"/>
      <point x="2560.5555555555557" y="263.358024691358"/>
      <point x="2617.222222222222" y="407.28395061728395"/>
      <point x="2617.222222222222" y="549.7654320987655" type="curve" smooth="yes"/>
      <point x="2617.222222222222" y="744.5061728395061"/>
      <point x="2510.9876543209875" y="878.0123456790124"/>
      <point x="2328.320987654321" y="878.0123456790124" type="curve" smooth="yes"/>
      <point x="2194.8518518518517" y="878.0123456790124"/>
      <point x="2090.0864197530864" y="822.0123456790124"/>
      <point x="1987.469135802469" y="699.358024691358" type="curve"/>
      <point x="1966.3827160493827" y="448.1481481481482" type="line"/>
      <point x="2117.8271604938273" y="644.1358024691358"/>
      <point x="2231.061728395062" y="716.9012345679013"/>
      <point x="2319.0123456790125" y="716.9012345679013" type="curve" smooth="yes"/>
      <point x="2405.3456790123455" y="716.9012345679013"/>
      <point x="2452.1111111111113" y="662.9135802469136"/>
      <point x="2452.1111111111113" y="565.2345679012345" type="curve" smooth="yes"/>
      <point x="2452.1111111111113" y="464.0740740740741"/>
      <point x="2402.679012345679" y="358.96296296296293"/>
      <point x="2316.604938271605" y="239.2716049382716" type="curve"/>
    </contour>
    <contour>
      <point x="1443.2592592592594" y="192.55555555555554" type="curve" smooth="yes"/>
      <point x="1369.2469135802469" y="192.55555555555554"/>
      <point x="1337.0493827160494" y="161.35802469135803"/>
      <point x="1337.0493827160494" y="87.34567901234568" type="curve" smooth="yes"/>
      <point x="1337.0493827160494" y="14.333333333333346"/>
      <point x="1369.2469135802469" y="-16.864197530864182"/>
      <point x="1443.2592592592594" y="-16.864197530864182" type="curve" smooth="yes"/>
      <point x="1517.2716049382716" y="-16.864197530864182"/>
      <point x="1549.1234567901236" y="14.333333333333346"/>
      <point x="1549.1234567901236" y="87.34567901234568" type="curve" smooth="yes"/>
      <point x="1549.1234567901236" y="161.35802469135803"/>
      <point x="1517.2716049382716" y="192.55555555555554"/>
    </contour>
    <contour>
      <point x="-16.580246913580243" y="1117.4814814814815" type="line"/>
      <point x="2697.061728395062" y="1117.4814814814815" type="line"/>
      <point x="2697.061728395062" y="1273.1728395061727" type="line"/>
      <point x="-16.580246913580243" y="1273.1728395061727" type="line"/>
    </contour>
  </outline>
</glyph>
<glyph name="q_ma-deva" format="2">
  <advance width="2257.4814814814813"/>
  <anchor x="1977.8641975308642" y="27.34567901234568" name="bottom"/>
  <anchor x="1692.320987654321" y="1273.5185185185185" name="candra"/>
  <anchor x="1391.1851851851852" y="68.86419753086417" name="nukta"/>
  <anchor x="1977.8641975308642" y="1287.3456790123457" name="top"/>
  <outline>
    <contour>
      <point x="701.0617283950618" y="0.0" type="line"/>
      <point x="882.0246913580247" y="0.0" type="line"/>
      <point x="882.0246913580247" y="1188.8024691358025" type="line"/>
      <point x="701.0617283950618" y="1188.8024691358025" type="line"/>
    </contour>
    <contour>
      <point x="408.69135802469134" y="205.33333333333334" type="curve" smooth="yes"/>
      <point x="557.0" y="205.33333333333334"/>
      <point x="705.4691358024692" y="272.2962962962963"/>
      <point x="784.5432098765432" y="391.34567901234567" type="curve"/>
      <point x="738.3333333333334" y="527.395061728395" type="line"/>
      <point x="665.3333333333334" y="428.2469135802469"/>
      <point x="554.4197530864197" y="360.1358024691358"/>
      <point x="423.88888888888886" y="360.1358024691358" type="curve" smooth="yes"/>
      <point x="307.2098765432099" y="360.1358024691358"/>
      <point x="246.29629629629628" y="411.5432098765432"/>
      <point x="246.29629629629628" y="556.4567901234568" type="curve" smooth="yes"/>
      <point x="246.29629629629628" y="712.2962962962963"/>
      <point x="330.4074074074074" y="764.6296296296297"/>
      <point x="457.01234567901236" y="768.9753086419753" type="curve" smooth="yes"/>
      <point x="546.5802469135803" y="771.6666666666667"/>
      <point x="657.4691358024692" y="754.283950617284"/>
      <point x="781.4320987654321" y="695.395061728395" type="curve"/>
      <point x="781.4320987654321" y="800.0617283950618" type="line"/>
      <point x="703.0617283950617" y="879.0740740740741"/>
      <point x="580.1358024691358" y="932.0123456790124"/>
      <point x="431.4938271604938" y="932.0123456790124" type="curve" smooth="yes"/>
      <point x="201.45679012345678" y="932.0123456790124"/>
      <point x="63.296296296296305" y="812.0493827160494"/>
      <point x="63.296296296296305" y="565.3827160493827" type="curve" smooth="yes"/>
      <point x="63.296296296296305" y="389.66666666666663"/>
      <point x="154.04938271604942" y="205.33333333333334"/>
    </contour>
    <contour>
      <point x="1277.7283950617284" y="645.8271604938271" type="curve"/>
      <point x="1403.3333333333333" y="757.5432098765432" type="line"/>
      <point x="1355.0617283950617" y="834.1234567901234"/>
      <point x="1272.4814814814815" y="878.0123456790124"/>
      <point x="1165.0123456790122" y="878.0123456790124" type="curve" smooth="yes"/>
      <point x="1031.8518518518517" y="878.0123456790124"/>
      <point x="926.7777777777777" y="822.0123456790124"/>
      <point x="824.8148148148148" y="699.358024691358" type="curve"/>
      <point x="824.8148148148148" y="439.2592592592593" type="line"/>
      <point x="973.9506172839506" y="646.4444444444445"/>
      <point x="1077.641975308642" y="716.9012345679013"/>
      <point x="1156.0123456790122" y="716.9012345679013" type="curve" smooth="yes"/>
      <point x="1216.1604938271605" y="716.9012345679013"/>
      <point x="1258.962962962963" y="694.2469135802469"/>
    </contour>
    <contour>
      <point x="231.00000000000006" y="100.79012345679014" type="curve" smooth="yes"/>
      <point x="156.98765432098773" y="100.79012345679014"/>
      <point x="124.79012345679021" y="69.59259259259261"/>
      <point x="124.79012345679021" y="-4.419753086419725" type="curve" smooth="yes"/>
      <point x="124.79012345679021" y="-77.43209876543206"/>
      <point x="156.98765432098773" y="-108.62962962962958"/>
      <point x="231.00000000000006" y="-108.62962962962958" type="curve" smooth="yes"/>
      <point x="305.0123456790124" y="-108.62962962962958"/>
      <point x="336.86419753086426" y="-77.43209876543206"/>
      <point x="336.86419753086426" y="-4.419753086419725" type="curve" smooth="yes"/>
      <point x="336.86419753086426" y="69.59259259259261"/>
      <point x="305.0123456790124" y="100.79012345679014"/>
    </contour>
    <contour>
      <point x="1887.3827160493827" y="0.6543209876543206" type="line"/>
      <point x="2068.3456790123455" y="0.6543209876543206" type="line"/>
      <point x="2068.3456790123455" y="1160.641975308642" type="line"/>
      <point x="1887.3827160493827" y="1160.641975308642" type="line"/>
    </contour>
    <contour>
      <point x="1308.358024691358" y="293.60493827160496" type="line"/>
      <point x="1431.0740740740741" y="295.2962962962963"/>
      <point x="1455.6172839506173" y="356.0740740740741"/>
      <point x="1455.6172839506173" y="429.12345679012344" type="curve" smooth="yes"/>
      <point x="1455.6172839506173" y="641.3703703703703" type="line"/>
      <point x="1308.9753086419753" y="641.3703703703703" type="line"/>
      <point x="1128.5432098765432" y="618.7530864197531" type="line"/>
      <point x="1128.5432098765432" y="494.0740740740741" type="line"/>
    </contour>
    <contour>
      <point x="1274.0" y="404.46913580246917" type="line"/>
      <point x="1454.3086419753085" y="567.1604938271605" type="line"/>
      <point x="1454.9629629629628" y="1156.1481481481483" type="line"/>
      <point x="1274.0" y="1155.8024691358025" type="line"/>
    </contour>
    <contour>
      <point x="1280.0" y="475.91358024691357" type="line"/>
      <point x="2031.111111111111" y="475.91358024691357" type="line"/>
      <point x="2031.111111111111" y="635.9876543209876" type="line"/>
      <point x="1280.0" y="635.9876543209876" type="line"/>
    </contour>
    <contour>
      <point x="-16.580246913580243" y="1117.4814814814815" type="line"/>
      <point x="2273.753086419753" y="1117.4814814814815" type="line"/>
      <point x="2273.753086419753" y="1273.1728395061727" type="line"/>
      <point x="-16.580246913580243" y="1273.1728395061727" type="line"/>
    </contour>
  </outline>
</glyph>
<glyph name="q_pha-deva" format="2">
  <advance width="2679.5925925925926"/>
  <anchor x="1954.962962962963" y="27.34567901234568" name="bottom"/>
  <anchor x="1558.4074074074074" y="1273.5185185185185" name="candra"/>
  <anchor x="1242.3086419753085" y="135.66666666666669" name="nukta"/>
  <anchor x="1955.111111111111" y="1273.1728395061727" name="top"/>
  <outline>
    <contour>
      <point x="701.0617283950618" y="0.0" type="line"/>
      <point x="882.0246913580247" y="0.0" type="line"/>
      <point x="882.0246913580247" y="1188.8024691358025" type="line"/>
      <point x="701.0617283950618" y="1188.8024691358025" type="line"/>
    </contour>
    <contour>
      <point x="408.69135802469134" y="205.33333333333334" type="curve" smooth="yes"/>
      <point x="557.0" y="205.33333333333334"/>
      <point x="705.4691358024692" y="272.2962962962963"/>
      <point x="784.5432098765432" y="391.34567901234567" type="curve"/>
      <point x="738.3333333333334" y="527.395061728395" type="line"/>
      <point x="665.3333333333334" y="428.2469135802469"/>
      <point x="554.4197530864197" y="360.1358024691358"/>
      <point x="423.88888888888886" y="360.1358024691358" type="curve" smooth="yes"/>
      <point x="307.2098765432099" y="360.1358024691358"/>
      <point x="246.29629629629628" y="411.5432098765432"/>
      <point x="246.29629629629628" y="556.4567901234568" type="curve" smooth="yes"/>
      <point x="246.29629629629628" y="712.2962962962963"/>
      <point x="330.4074074074074" y="764.6296296296297"/>
      <point x="457.01234567901236" y="768.9753086419753" type="curve" smooth="yes"/>
      <point x="546.5802469135803" y="771.6666666666667"/>
      <point x="657.4691358024692" y="754.283950617284"/>
      <point x="781.4320987654321" y="695.395061728395" type="curve"/>
      <point x="781.4320987654321" y="800.0617283950618" type="line"/>
      <point x="703.0617283950617" y="879.0740740740741"/>
      <point x="580.1358024691358" y="932.0123456790124"/>
      <point x="431.4938271604938" y="932.0123456790124" type="curve" smooth="yes"/>
      <point x="201.45679012345678" y="932.0123456790124"/>
      <point x="63.296296296296305" y="812.0493827160494"/>
      <point x="63.296296296296305" y="565.3827160493827" type="curve" smooth="yes"/>
      <point x="63.296296296296305" y="389.66666666666663"/>
      <point x="154.04938271604942" y="205.33333333333334"/>
    </contour>
    <contour>
      <point x="1277.7283950617284" y="645.8271604938271" type="curve"/>
      <point x="1403.3333333333333" y="757.5432098765432" type="line"/>
      <point x="1355.0617283950617" y="834.1234567901234"/>
      <point x="1272.4814814814815" y="878.0123456790124"/>
      <point x="1165.0123456790122" y="878.0123456790124" type="curve" smooth="yes"/>
      <point x="1031.8518518518517" y="878.0123456790124"/>
      <point x="926.7777777777777" y="822.0123456790124"/>
      <point x="824.8148148148148" y="699.358024691358" type="curve"/>
      <point x="824.8148148148148" y="439.2592592592593" type="line"/>
      <point x="973.9506172839506" y="646.4444444444445"/>
      <point x="1077.641975308642" y="716.9012345679013"/>
      <point x="1156.0123456790122" y="716.9012345679013" type="curve" smooth="yes"/>
      <point x="1216.1604938271605" y="716.9012345679013"/>
      <point x="1258.962962962963" y="694.2469135802469"/>
    </contour>
    <contour>
      <point x="231.00000000000006" y="100.79012345679014" type="curve" smooth="yes"/>
      <point x="156.98765432098773" y="100.79012345679014"/>
      <point x="124.79012345679021" y="69.59259259259261"/>
      <point x="124.79012345679021" y="-4.419753086419725" type="curve" smooth="yes"/>
      <point x="124.79012345679021" y="-77.43209876543206"/>
      <point x="156.98765432098773" y="-108.62962962962958"/>
      <point x="231.00000000000006" y="-108.62962962962958" type="curve" smooth="yes"/>
      <point x="305.0123456790124" y="-108.62962962962958"/>
      <point x="336.86419753086426" y="-77.43209876543206"/>
      <point x="336.86419753086426" y="-4.419753086419725" type="curve" smooth="yes"/>
      <point x="336.86419753086426" y="69.59259259259261"/>
      <point x="305.0123456790124" y="100.79012345679014"/>
    </contour>
    <contour>
      <point x="-16.580246913580243" y="1117.4814814814815" type="line"/>
      <point x="2261.2098765432097" y="1117.4814814814815" type="line"/>
      <point x="2261.2098765432097" y="1273.1728395061727" type="line"/>
      <point x="-16.580246913580243" y="1273.1728395061727" type="line"/>
    </contour>
    <contour>
      <point x="1585.9259259259259" y="320.22222222222223" type="curve" smooth="yes"/>
      <point x="1715.9753086419753" y="320.22222222222223"/>
      <point x="1866.9382716049383" y="392.30864197530866"/>
      <point x="1949.7407407407406" y="537.9012345679013" type="curve"/>
      <point x="1914.111111111111" y="687.4197530864197" type="line"/>
      <point x="1831.8148148148148" y="556.7283950617284"/>
      <point x="1717.6296296296296" y="485.6049382716049"/>
      <point x="1596.5061728395062" y="484.6049382716049" type="curve" smooth="yes"/>
      <point x="1466.4444444444443" y="483.6049382716049"/>
      <point x="1426.8765432098764" y="550.358024691358"/>
      <point x="1426.8765432098764" y="690.8518518518518" type="curve" smooth="yes"/>
      <point x="1426.8765432098764" y="1169.641975308642" type="line"/>
      <point x="1242.9506172839506" y="1169.641975308642" type="line"/>
      <point x="1242.9506172839506" y="702.6172839506173" type="line" smooth="yes"/>
      <point x="1242.9506172839506" y="450.4567901234568"/>
      <point x="1363.111111111111" y="320.22222222222223"/>
    </contour>
    <contour>
      <point x="1863.8271604938273" y="0.0" type="line"/>
      <point x="2045.4444444444443" y="0.0" type="line"/>
      <point x="2045.4444444444443" y="1196.2345679012346" type="line"/>
      <point x="1863.8271604938273" y="1196.2345679012346" type="line"/>
    </contour>
    <contour>
      <point x="2450.395061728395" y="139.8641975308642" type="line"/>
      <point x="2560.0123456790125" y="263.358024691358"/>
      <point x="2616.679012345679" y="407.28395061728395"/>
      <point x="2616.679012345679" y="549.7654320987655" type="curve" smooth="yes"/>
      <point x="2616.679012345679" y="744.5061728395061"/>
      <point x="2510.4444444444443" y="878.0123456790124"/>
      <point x="2327.777777777778" y="878.0123456790124" type="curve" smooth="yes"/>
      <point x="2194.3086419753085" y="878.0123456790124"/>
      <point x="2089.543209876543" y="822.0123456790124"/>
      <point x="1986.9259259259259" y="699.358024691358" type="curve"/>
      <point x="1965.8395061728395" y="448.1481481481482" type="line"/>
      <point x="2117.283950617284" y="644.1358024691358"/>
      <point x="2230.5185185185187" y="716.9012345679013"/>
      <point x="2318.4691358024693" y="716.9012345679013" type="curve" smooth="yes"/>
      <point x="2404.8024691358023" y="716.9012345679013"/>
      <point x="2451.567901234568" y="662.9135802469136"/>
      <point x="2451.567901234568" y="565.2345679012345" type="curve" smooth="yes"/>
      <point x="2451.567901234568" y="464.0740740740741"/>
      <point x="2402.135802469136" y="358.96296296296293"/>
      <point x="2316.061728395062" y="239.2716049382716" type="curve"/>
    </contour>
    <contour>
      <point x="1069.8765432098764" y="1117.4814814814815" type="line"/>
      <point x="2696.5185185185187" y="1117.4814814814815" type="line"/>
      <point x="2696.5185185185187" y="1273.1728395061727" type="line"/>
      <point x="1069.8765432098764" y="1273.1728395061727" type="line"/>
    </contour>
  </outline>
</glyph>
<glyph name="q_qa-deva" format="2">
  <advance width="2719.9506172839506"/>
  <anchor x="1597.666666666666" y="9.679012345679023" name="bottom"/>
  <anchor x="794.4691358024692" y="1273.1728395061727" name="candra"/>
  <anchor x="915.4197530864194" y="-181.7407407407406" name="nukta"/>
  <anchor x="1993.7530864197531" y="1273.1728395061727" name="top"/>
  <outline>
    <contour>
      <point x="-16.580246913580243" y="1117.4814814814815" type="line"/>
      <point x="1433.1975308641975" y="1117.4814814814815" type="line"/>
      <point x="1433.1975308641975" y="1273.1728395061727" type="line"/>
      <point x="-16.580246913580243" y="1273.1728395061727" type="line"/>
    </contour>
    <contour>
      <point x="1190.3086419753085" y="1117.4814814814815" type="line"/>
      <point x="2736.8765432098767" y="1117.4814814814815" type="line"/>
      <point x="2736.8765432098767" y="1273.1728395061727" type="line"/>
      <point x="1190.3086419753085" y="1273.1728395061727" type="line"/>
    </contour>
    <contour>
      <point x="701.0617283950618" y="0.0" type="line"/>
      <point x="882.0246913580247" y="0.0" type="line"/>
      <point x="882.0246913580247" y="1188.8024691358025" type="line"/>
      <point x="701.0617283950618" y="1188.8024691358025" type="line"/>
    </contour>
    <contour>
      <point x="1904.4938271604938" y="0.0" type="line"/>
      <point x="2085.456790123457" y="0.0" type="line"/>
      <point x="2085.456790123457" y="1188.8024691358025" type="line"/>
      <point x="1904.4938271604938" y="1188.8024691358025" type="line"/>
    </contour>
    <contour>
      <point x="408.69135802469134" y="205.33333333333334" type="curve" smooth="yes"/>
      <point x="557.0" y="205.33333333333334"/>
      <point x="705.4691358024692" y="272.2962962962963"/>
      <point x="784.5432098765432" y="391.34567901234567" type="curve"/>
      <point x="738.3333333333334" y="527.395061728395" type="line"/>
      <point x="665.3333333333334" y="428.2469135802469"/>
      <point x="554.4197530864197" y="360.1358024691358"/>
      <point x="423.88888888888886" y="360.1358024691358" type="curve" smooth="yes"/>
      <point x="307.2098765432099" y="360.1358024691358"/>
      <point x="246.29629629629628" y="411.5432098765432"/>
      <point x="246.29629629629628" y="556.4567901234568" type="curve" smooth="yes"/>
      <point x="246.29629629629628" y="712.2962962962963"/>
      <point x="330.4074074074074" y="764.6296296296297"/>
      <point x="457.01234567901236" y="768.9753086419753" type="curve" smooth="yes"/>
      <point x="546.5802469135803" y="772.0123456790124"/>
      <point x="657.4691358024692" y="754.283950617284"/>
      <point x="781.4320987654321" y="695.395061728395" type="curve"/>
      <point x="781.4320987654321" y="800.0617283950618" type="line"/>
      <point x="703.0617283950617" y="879.0740740740741"/>
      <point x="580.1358024691358" y="932.0123456790124"/>
      <point x="431.4938271604938" y="932.0123456790124" type="curve" smooth="yes"/>
      <point x="201.45679012345678" y="932.0123456790124"/>
      <point x="63.296296296296305" y="812.0493827160494"/>
      <point x="63.296296296296305" y="565.3827160493827" type="curve" smooth="yes"/>
      <point x="63.296296296296305" y="389.66666666666663"/>
      <point x="154.04938271604942" y="205.33333333333334"/>
    </contour>
    <contour>
      <point x="1612.1234567901236" y="205.33333333333334" type="curve" smooth="yes"/>
      <point x="1760.432098765432" y="205.33333333333334"/>
      <point x="1908.9012345679012" y="272.2962962962963"/>
      <point x="1987.9753086419753" y="391.34567901234567" type="curve"/>
      <point x="1941.7654320987654" y="527.395061728395" type="line"/>
      <point x="1868.7654320987654" y="428.2469135802469"/>
      <point x="1757.8518518518517" y="360.1358024691358"/>
      <point x="1627.320987654321" y="360.1358024691358" type="curve" smooth="yes"/>
      <point x="1510.641975308642" y="360.1358024691358"/>
      <point x="1449.7283950617284" y="411.5432098765432"/>
      <point x="1449.7283950617284" y="556.4567901234568" type="curve" smooth="yes"/>
      <point x="1449.7283950617284" y="712.2962962962963"/>
      <point x="1533.8395061728395" y="764.283950617284"/>
      <point x="1660.4444444444443" y="768.9753086419753" type="curve" smooth="yes"/>
      <point x="1750.0123456790122" y="772.320987654321"/>
      <point x="1860.9012345679012" y="754.283950617284"/>
      <point x="1984.8641975308642" y="695.395061728395" type="curve"/>
      <point x="1984.8641975308642" y="800.0617283950618" type="line"/>
      <point x="1906.4938271604938" y="879.0740740740741"/>
      <point x="1783.567901234568" y="932.0123456790124"/>
      <point x="1634.9259259259259" y="932.0123456790124" type="curve" smooth="yes"/>
      <point x="1404.888888888889" y="932.0123456790124"/>
      <point x="1266.7283950617284" y="812.0493827160494"/>
      <point x="1266.7283950617284" y="565.3827160493827" type="curve" smooth="yes"/>
      <point x="1266.7283950617284" y="389.66666666666663"/>
      <point x="1357.4814814814815" y="205.33333333333334"/>
    </contour>
    <contour>
      <point x="1277.7283950617284" y="645.8271604938271" type="curve"/>
      <point x="1403.3333333333333" y="757.5432098765432" type="line"/>
      <point x="1355.0617283950617" y="834.1234567901234"/>
      <point x="1272.4814814814815" y="878.0123456790124"/>
      <point x="1165.0123456790122" y="878.0123456790124" type="curve" smooth="yes"/>
      <point x="1031.8518518518517" y="878.0123456790124"/>
      <point x="926.7777777777777" y="822.0123456790124"/>
      <point x="824.8148148148148" y="699.358024691358" type="curve"/>
      <point x="824.8148148148148" y="439.2592592592593" type="line"/>
      <point x="973.9506172839506" y="646.4444444444445"/>
      <point x="1077.641975308642" y="716.9012345679013"/>
      <point x="1156.0123456790122" y="716.9012345679013" type="curve" smooth="yes"/>
      <point x="1216.1604938271605" y="716.9012345679013"/>
      <point x="1258.962962962963" y="694.2469135802469"/>
    </contour>
    <contour>
      <point x="2491.3703703703704" y="139.8641975308642" type="line"/>
      <point x="2601.3333333333335" y="263.358024691358"/>
      <point x="2656.962962962963" y="407.9382716049383"/>
      <point x="2657.6543209876545" y="550.4197530864197" type="curve" smooth="yes"/>
      <point x="2658.6913580246915" y="752.0370370370371"/>
      <point x="2551.41975308642" y="878.0123456790124"/>
      <point x="2368.4444444444443" y="878.0123456790124" type="curve" smooth="yes"/>
      <point x="2235.283950617284" y="878.0123456790124"/>
      <point x="2130.2098765432097" y="822.0123456790124"/>
      <point x="2028.2469135802469" y="699.358024691358" type="curve"/>
      <point x="2028.2469135802469" y="439.2592592592593" type="line"/>
      <point x="2177.382716049383" y="646.4444444444445"/>
      <point x="2281.074074074074" y="716.9012345679013"/>
      <point x="2359.4444444444443" y="716.9012345679013" type="curve" smooth="yes"/>
      <point x="2445.777777777778" y="716.9012345679013"/>
      <point x="2495.3086419753085" y="671.1358024691358"/>
      <point x="2493.2345679012346" y="566.5802469135803" type="curve" smooth="yes"/>
      <point x="2491.8518518518517" y="465.41975308641975"/>
      <point x="2444.8395061728397" y="360.34567901234567"/>
      <point x="2358.41975308642" y="241.30864197530863" type="curve"/>
    </contour>
    <contour>
      <point x="231.00000000000006" y="100.79012345679014" type="curve" smooth="yes"/>
      <point x="156.98765432098773" y="100.79012345679014"/>
      <point x="124.79012345679021" y="69.59259259259261"/>
      <point x="124.79012345679021" y="-4.419753086419725" type="curve" smooth="yes"/>
      <point x="124.79012345679021" y="-77.43209876543206"/>
      <point x="156.98765432098773" y="-108.62962962962958"/>
      <point x="231.00000000000006" y="-108.62962962962958" type="curve" smooth="yes"/>
      <point x="305.0123456790124" y="-108.62962962962958"/>
      <point x="336.86419753086426" y="-77.43209876543206"/>
      <point x="336.86419753086426" y="-4.419753086419725" type="curve" smooth="yes"/>
      <point x="336.86419753086426" y="69.59259259259261"/>
      <point x="305.0123456790124" y="100.79012345679014"/>
    </contour>
    <contour>
      <point x="1434.432098765432" y="100.79012345679014" type="curve" smooth="yes"/>
      <point x="1360.4197530864199" y="100.79012345679014"/>
      <point x="1328.2222222222224" y="69.59259259259261"/>
      <point x="1328.2222222222224" y="-4.419753086419725" type="curve" smooth="yes"/>
      <point x="1328.2222222222224" y="-77.43209876543206"/>
      <point x="1360.4197530864199" y="-108.62962962962958"/>
      <point x="1434.432098765432" y="-108.62962962962958" type="curve" smooth="yes"/>
      <point x="1508.4444444444446" y="-108.62962962962958"/>
      <point x="1540.2962962962963" y="-77.43209876543206"/>
      <point x="1540.2962962962963" y="-4.419753086419725" type="curve" smooth="yes"/>
      <point x="1540.2962962962963" y="69.59259259259261"/>
      <point x="1508.4444444444446" y="100.79012345679014"/>
    </contour>
  </outline>
</glyph>
<glyph name="q_ra-deva" format="2">
  <advance width="1513.0617283950617"/>
  <outline>
    <contour>
      <point x="-16.580246913580243" y="1117.4814814814815" type="line"/>
      <point x="1529.9876543209875" y="1117.4814814814815" type="line"/>
      <point x="1529.9876543209875" y="1273.1728395061727" type="line"/>
      <point x="-16.580246913580243" y="1273.1728395061727" type="line"/>
    </contour>
    <contour>
      <point x="697.604938271605" y="0.0" type="line"/>
      <point x="878.5679012345679" y="0.0" type="line"/>
      <point x="878.5679012345679" y="1188.8024691358025" type="line"/>
      <point x="697.604938271605" y="1188.8024691358025" type="line"/>
    </contour>
    <contour>
      <point x="405.2345679012346" y="205.33333333333334" type="curve" smooth="yes"/>
      <point x="553.5432098765432" y="205.33333333333334"/>
      <point x="702.0123456790124" y="272.2962962962963"/>
      <point x="781.0864197530864" y="391.34567901234567" type="curve"/>
      <point x="734.8765432098766" y="527.395061728395" type="line"/>
      <point x="661.8765432098766" y="428.2469135802469"/>
      <point x="550.9629629629629" y="360.1358024691358"/>
      <point x="420.4320987654321" y="360.1358024691358" type="curve" smooth="yes"/>
      <point x="303.75308641975306" y="360.1358024691358"/>
      <point x="242.8395061728395" y="411.5432098765432"/>
      <point x="242.8395061728395" y="556.4567901234568" type="curve" smooth="yes"/>
      <point x="242.8395061728395" y="712.2962962962963"/>
      <point x="326.9506172839506" y="764.283950617284"/>
      <point x="453.55555555555554" y="768.9753086419753" type="curve" smooth="yes"/>
      <point x="543.1234567901234" y="772.320987654321"/>
      <point x="654.0123456790124" y="754.283950617284"/>
      <point x="777.9753086419753" y="695.395061728395" type="curve"/>
      <point x="777.9753086419753" y="800.0617283950618" type="line"/>
      <point x="699.604938271605" y="879.0740740740741"/>
      <point x="576.679012345679" y="932.0123456790124"/>
      <point x="428.03703703703707" y="932.0123456790124" type="curve" smooth="yes"/>
      <point x="198.0" y="932.0123456790124"/>
      <point x="59.83950617283951" y="812.0493827160494"/>
      <point x="59.83950617283951" y="565.3827160493827" type="curve" smooth="yes"/>
      <point x="59.83950617283951" y="389.66666666666663"/>
      <point x="150.5925925925926" y="205.33333333333334"/>
    </contour>
    <contour>
      <point x="1284.4814814814815" y="139.8641975308642" type="line"/>
      <point x="1394.4444444444443" y="263.358024691358"/>
      <point x="1450.0740740740741" y="407.9382716049383"/>
      <point x="1450.7654320987654" y="550.4197530864197" type="curve" smooth="yes"/>
      <point x="1451.8024691358025" y="752.0370370370371"/>
      <point x="1344.530864197531" y="878.0123456790124"/>
      <point x="1161.5555555555554" y="878.0123456790124" type="curve" smooth="yes"/>
      <point x="1028.3950617283951" y="878.0123456790124"/>
      <point x="923.320987654321" y="822.0123456790124"/>
      <point x="821.358024691358" y="699.358024691358" type="curve"/>
      <point x="821.358024691358" y="439.2592592592593" type="line"/>
      <point x="970.4938271604938" y="646.4444444444445"/>
      <point x="1074.1851851851852" y="716.9012345679013"/>
      <point x="1152.5555555555554" y="716.9012345679013" type="curve" smooth="yes"/>
      <point x="1238.888888888889" y="716.9012345679013"/>
      <point x="1288.4197530864199" y="671.1358024691358"/>
      <point x="1286.3456790123457" y="566.5802469135803" type="curve" smooth="yes"/>
      <point x="1284.962962962963" y="465.41975308641975"/>
      <point x="1237.9506172839506" y="360.34567901234567"/>
      <point x="1151.530864197531" y="241.30864197530863" type="curve"/>
    </contour>
    <contour>
      <point x="188.7283950617284" y="-60.518518518518505" type="line"/>
      <point x="736.6419753086419" y="341.1975308641975" type="line"/>
      <point x="672.2345679012345" y="435.0617283950617" type="line"/>
      <point x="84.97530864197533" y="73.12345679012346" type="line"/>
    </contour>
    <component base="nukta-deva" xOffset="-304.6543209876543" yOffset="422.35802469135797"/>
  </outline>
</glyph>
<glyph name="q_ta-deva" format="2">
  <advance width="2283.543209876543"/>
  <anchor x="798.0864197530864" y="-36.02469135802467" name="bottom"/>
  <anchor x="684.7777777777776" y="1274.1728395061727" name="candra"/>
  <anchor x="1107.7654320987654" y="244.5679012345679" name="nukta"/>
  <anchor x="1543.4320987654316" y="1275.1358024691358" name="top"/>
  <outline>
    <contour>
      <point x="701.0617283950618" y="0.0" type="line"/>
      <point x="882.0246913580247" y="0.0" type="line"/>
      <point x="882.0246913580247" y="1188.8024691358025" type="line"/>
      <point x="701.0617283950618" y="1188.8024691358025" type="line"/>
    </contour>
    <contour>
      <point x="394.8641975308642" y="205.33333333333334" type="curve" smooth="yes"/>
      <point x="543.1728395061729" y="205.33333333333334"/>
      <point x="705.4691358024692" y="272.2962962962963"/>
      <point x="784.5432098765432" y="391.34567901234567" type="curve"/>
      <point x="738.3333333333334" y="527.395061728395" type="line"/>
      <point x="665.3333333333334" y="428.2469135802469"/>
      <point x="554.4197530864197" y="360.1358024691358"/>
      <point x="423.88888888888886" y="360.1358024691358" type="curve" smooth="yes"/>
      <point x="307.2098765432099" y="360.1358024691358"/>
      <point x="246.29629629629628" y="411.5432098765432"/>
      <point x="246.29629629629628" y="556.4567901234568" type="curve" smooth="yes"/>
      <point x="246.29629629629628" y="712.2962962962963"/>
      <point x="330.4074074074074" y="764.6296296296297"/>
      <point x="457.01234567901236" y="768.9753086419753" type="curve" smooth="yes"/>
      <point x="546.5802469135803" y="771.6666666666667"/>
      <point x="657.4691358024692" y="754.283950617284"/>
      <point x="781.4320987654321" y="695.395061728395" type="curve"/>
      <point x="781.4320987654321" y="800.0617283950618" type="line"/>
      <point x="703.0617283950617" y="879.0740740740741"/>
      <point x="580.1358024691358" y="932.0123456790124"/>
      <point x="431.4938271604938" y="932.0123456790124" type="curve" smooth="yes"/>
      <point x="201.45679012345678" y="932.0123456790124"/>
      <point x="63.296296296296305" y="812.0493827160494"/>
      <point x="63.296296296296305" y="565.3827160493827" type="curve" smooth="yes"/>
      <point x="63.296296296296305" y="389.66666666666663"/>
      <point x="140.22222222222223" y="205.33333333333334"/>
    </contour>
    <contour>
      <point x="1316.9876543209875" y="645.8271604938271" type="curve"/>
      <point x="1442.5925925925926" y="757.5432098765432" type="line"/>
      <point x="1394.320987654321" y="834.1234567901234"/>
      <point x="1311.7407407407406" y="878.0123456790124"/>
      <point x="1204.2716049382716" y="878.0123456790124" type="curve" smooth="yes"/>
      <point x="1071.111111111111" y="878.0123456790124"/>
      <point x="926.7777777777777" y="822.0123456790124"/>
      <point x="824.8148148148148" y="699.358024691358" type="curve"/>
      <point x="824.8148148148148" y="439.2592592592593" type="line"/>
      <point x="925.5308641975308" y="619.6172839506173"/>
      <point x="1044.2716049382716" y="716.9012345679013"/>
      <point x="1195.2716049382716" y="716.9012345679013" type="curve" smooth="yes"/>
      <point x="1255.4197530864196" y="716.9012345679013"/>
      <point x="1298.2222222222222" y="694.2469135802469"/>
    </contour>
    <contour>
      <point x="96.43209876543213" y="120.41975308641976" type="curve" smooth="yes"/>
      <point x="22.41975308641979" y="120.41975308641976"/>
      <point x="-9.777777777777729" y="89.22222222222223"/>
      <point x="-9.777777777777729" y="15.209876543209894" type="curve" smooth="yes"/>
      <point x="-9.777777777777729" y="-57.80246913580244"/>
      <point x="22.41975308641979" y="-88.99999999999997"/>
      <point x="96.43209876543213" y="-88.99999999999997" type="curve" smooth="yes"/>
      <point x="170.44444444444446" y="-88.99999999999997"/>
      <point x="202.2962962962963" y="-57.80246913580244"/>
      <point x="202.2962962962963" y="15.209876543209894" type="curve" smooth="yes"/>
      <point x="202.2962962962963" y="89.22222222222223"/>
      <point x="170.44444444444446" y="120.41975308641976"/>
    </contour>
    <contour>
      <point x="1500.4444444444446" y="-35.23456790123456" type="curve"/>
      <point x="1642.6666666666667" y="59.93827160493826" type="line"/>
      <point x="1489.6666666666667" y="284.02469135802465"/>
      <point x="1428.8024691358025" y="429.66666666666663"/>
      <point x="1428.8024691358025" y="540.2222222222223" type="curve" smooth="yes"/>
      <point x="1428.8024691358025" y="653.7407407407408"/>
      <point x="1488.79012345679" y="678.9753086419753"/>
      <point x="1615.2716049382716" y="678.9753086419753" type="curve" smooth="yes"/>
      <point x="2029.2469135802469" y="678.9753086419753" type="line"/>
      <point x="1987.7407407407406" y="847.6296296296296" type="line"/>
      <point x="1588.358024691358" y="847.6296296296296" type="line" smooth="yes"/>
      <point x="1364.679012345679" y="847.9753086419753"/>
      <point x="1243.8395061728395" y="737.2098765432098"/>
      <point x="1243.8395061728395" y="567.3827160493827" type="curve" smooth="yes"/>
      <point x="1243.8395061728395" y="365.34567901234567"/>
      <point x="1371.8641975308642" y="130.65432098765433"/>
    </contour>
    <contour>
      <point x="1913.4444444444446" y="0.0" type="line"/>
      <point x="2094.4074074074074" y="0.0" type="line"/>
      <point x="2094.4074074074074" y="1196.2345679012346" type="line"/>
      <point x="1913.4444444444446" y="1196.2345679012346" type="line"/>
    </contour>
    <contour>
      <point x="-16.580246913580243" y="1117.4814814814815" type="line"/>
      <point x="2300.4691358024693" y="1117.4814814814815" type="line"/>
      <point x="2300.4691358024693" y="1273.1728395061727" type="line"/>
      <point x="-16.580246913580243" y="1273.1728395061727" type="line"/>
    </contour>
  </outline>
</glyph>
<glyph name="reph_candraBindu-deva" format="2">
  <advance width="540.0"/>
  <anchor x="293.5432098765432" y="1273.1728395061727" name="_top"/>
  <anchor x="450.1131111111111" y="1822.037037037037" name="top"/>
  <outline>
    <contour>
      <point x="274.98765432098764" y="1235.79012345679" type="curve"/>
      <point x="333.58024691358025" y="1263.7530864197531" type="line"/>
      <point x="309.32098765432096" y="1314.4444444444443"/>
      <point x="293.9382716049383" y="1381.4074074074074"/>
      <point x="293.9382716049383" y="1435.9012345679012" type="curve" smooth="yes"/>
      <point x="293.9382716049383" y="1539.2716049382716"/>
      <point x="348.88888888888886" y="1666.2345679012346"/>
      <point x="493.55555555555554" y="1666.2345679012346" type="curve" smooth="yes"/>
      <point x="545.8888888888889" y="1666.2345679012346"/>
      <point x="603.3086419753087" y="1652.7037037037037"/>
      <point x="660.7777777777777" y="1625.0493827160494" type="curve"/>
      <point x="701.6296296296296" y="1764.2716049382716" type="line"/>
      <point x="642.0864197530864" y="1797.6913580246912"/>
      <point x="557.395061728395" y="1822.037037037037"/>
      <point x="477.9382716049383" y="1822.037037037037" type="curve" smooth="yes"/>
      <point x="272.40740740740745" y="1822.037037037037"/>
      <point x="175.65432098765433" y="1658.8148148148148"/>
      <point x="175.65432098765433" y="1494.358024691358" type="curve" smooth="yes"/>
      <point x="175.65432098765433" y="1424.0246913580247"/>
      <point x="193.87654320987656" y="1322.5185185185185"/>
    </contour>
    <component base="candraBindu-deva" xScale="0.6184686419753087" yScale="0.6184686419753087" xOffset="368.1728395061728" yOffset="416.11111111111114"/>
  </outline>
</glyph>
<glyph name="ringcomb.cap" format="2">
  <anchor x="208.66666666666666" y="1342.0740740740741" name="_top"/>
  <anchor x="208.66666666666666" y="1799.358024691358" name="top"/>
  <outline>
    <contour>
      <point x="208.66666666666666" y="1431.037037037037" type="curve" smooth="yes"/>
      <point x="323.09876543209873" y="1431.037037037037"/>
      <point x="407.3333333333333" y="1501.962962962963"/>
      <point x="407.3333333333333" y="1615.1975308641975" type="curve" smooth="yes"/>
      <point x="407.3333333333333" y="1726.0864197530864"/>
      <point x="323.09876543209873" y="1799.358024691358"/>
      <point x="208.66666666666666" y="1799.358024691358" type="curve" smooth="yes"/>
      <point x="91.88888888888889" y="1799.358024691358"/>
      <point x="10.0" y="1726.0864197530864"/>
      <point x="10.0" y="1615.1975308641975" type="curve" smooth="yes"/>
      <point x="10.0" y="1501.962962962963"/>
      <point x="91.88888888888889" y="1431.037037037037"/>
    </contour>
    <contour>
      <point x="208.66666666666666" y="1512.3950617283951" type="curve" smooth="yes"/>
      <point x="155.59259259259258" y="1512.3950617283951"/>
      <point x="113.55555555555554" y="1550.0864197530864"/>
      <point x="113.55555555555554" y="1615.1975308641975" type="curve" smooth="yes"/>
      <point x="113.55555555555554" y="1676.6172839506173"/>
      <point x="155.59259259259258" y="1716.0"/>
      <point x="208.66666666666666" y="1716.0" type="curve" smooth="yes"/>
      <point x="258.39506172839504" y="1716.0"/>
      <point x="301.77777777777777" y="1676.6172839506173"/>
      <point x="301.77777777777777" y="1615.1975308641975" type="curve" smooth="yes"/>
      <point x="301.77777777777777" y="1550.0864197530864"/>
      <point x="258.39506172839504" y="1512.3950617283951"/>
    </contour>
  </outline>
</glyph>
<glyph name="s_na-deva" format="2">
  <advance width="1380.7654320987654"/>
  <anchor x="1108.716049382716" y="0.0" name="bottom"/>
  <anchor x="674.3086419753087" y="1273.5185185185185" name="candra"/>
  <anchor x="137.1234567901235" y="68.86419753086417" name="nukta"/>
  <anchor x="1108.716049382716" y="1273.1728395061727" name="top"/>
  <outline>
    <contour>
      <point x="408.74074074074076" y="-14.962962962962962" type="line"/>
      <point x="554.1975308641976" y="90.44444444444443" type="line"/>
      <point x="230.7407407407407" y="579.4691358024692" type="line"/>
      <point x="219.24691358024688" y="566.3580246913581" type="line"/>
      <point x="237.32098765432096" y="550.1358024691358"/>
      <point x="268.88888888888886" y="536.4938271604939"/>
      <point x="306.29629629629625" y="536.4938271604939" type="curve" smooth="yes"/>
      <point x="425.8641975308642" y="536.4938271604939"/>
      <point x="513.3333333333333" y="619.0370370370371"/>
      <point x="513.3333333333333" y="797.0740740740741" type="curve" smooth="yes"/>
      <point x="513.3333333333333" y="1181.1851851851852" type="line"/>
      <point x="332.3703703703704" y="1180.8395061728395" type="line"/>
      <point x="332.3703703703704" y="798.9259259259259" type="line" smooth="yes"/>
      <point x="332.3703703703704" y="716.9012345679013"/>
      <point x="308.641975308642" y="675.4074074074074"/>
      <point x="246.16049382716048" y="675.4074074074074" type="curve" smooth="yes"/>
      <point x="206.66666666666666" y="675.4074074074074"/>
      <point x="173.9012345679012" y="692.1728395061729"/>
      <point x="136.2469135802469" y="723.1358024691358" type="curve"/>
      <point x="20.950617283950628" y="628.0370370370371" type="line"/>
    </contour>
    <contour>
      <point x="743.0493827160494" y="507.7530864197531" type="curve" smooth="yes"/>
      <point x="836.7037037037037" y="507.7530864197531"/>
      <point x="1027.7037037037037" y="519.7530864197531"/>
      <point x="1102.3950617283951" y="544.4444444444445" type="curve"/>
      <point x="1102.3950617283951" y="718.0987654320987" type="line"/>
      <point x="1024.1234567901236" y="687.4444444444445"/>
      <point x="825.1975308641976" y="670.1358024691358"/>
      <point x="727.5802469135803" y="670.1358024691358" type="curve" smooth="yes"/>
      <point x="619.1604938271605" y="670.1358024691358"/>
      <point x="512.0493827160494" y="684.8641975308642"/>
      <point x="437.9753086419753" y="718.1358024691358" type="curve"/>
      <point x="382.85185185185185" y="579.0617283950618" type="line"/>
      <point x="488.1975308641975" y="530.7530864197531"/>
      <point x="616.0493827160494" y="507.7530864197531"/>
    </contour>
    <contour>
      <point x="1018.2345679012345" y="0.0" type="line"/>
      <point x="1199.1975308641975" y="0.0" type="line"/>
      <point x="1199.1975308641975" y="1151.7160493827162" type="line"/>
      <point x="1018.2345679012345" y="1151.7160493827162" type="line"/>
    </contour>
    <contour>
      <point x="-38.012345679012334" y="1117.4814814814815" type="line"/>
      <point x="1397.6913580246912" y="1117.4814814814815" type="line"/>
      <point x="1397.6913580246912" y="1273.1728395061727" type="line"/>
      <point x="-38.012345679012334" y="1273.1728395061727" type="line"/>
    </contour>
    <contour>
      <point x="833.3086419753087" y="94.88888888888889" type="line"/>
      <point x="870.358024691358" y="124.04938271604937"/>
      <point x="885.5555555555555" y="152.20987654320987"/>
      <point x="887.2098765432098" y="179.71604938271602" type="curve" smooth="yes"/>
      <point x="888.8641975308642" y="204.95061728395058"/>
      <point x="879.5555555555555" y="229.53086419753083"/>
      <point x="865.9012345679013" y="251.14814814814812" type="curve" smooth="yes"/>
      <point x="820.4567901234568" y="320.358024691358" type="line"/>
      <point x="804.4197530864197" y="264.39506172839504" type="line"/>
      <point x="1139.8641975308642" y="546.1604938271605" type="line"/>
      <point x="1100.7530864197531" y="655.0246913580247" type="line"/>
      <point x="561.0740740740741" y="294.9506172839506" type="line"/>
      <point x="622.9629629629629" y="177.77777777777777" type="line"/>
    </contour>
  </outline>
</glyph>
<glyph name="s_ra-deva" format="2">
  <advance width="794.9382716049382"/>
  <outline>
    <contour>
      <point x="677.4938271604938" y="181.97530864197535" type="line"/>
      <point x="1006.7654320987654" y="437.4814814814815" type="line"/>
      <point x="955.2098765432098" y="543.2222222222223" type="line"/>
      <point x="575.0123456790124" y="312.2716049382716" type="line"/>
    </contour>
    <contour>
      <point x="479.8024691358025" y="-31.506172839506167" type="line"/>
      <point x="625.2592592592592" y="73.90123456790121" type="line"/>
      <point x="252.1728395061728" y="579.4691358024692" type="line"/>
      <point x="240.67901234567896" y="566.3580246913581" type="line"/>
      <point x="258.753086419753" y="550.1358024691358"/>
      <point x="290.32098765432096" y="536.4938271604939"/>
      <point x="327.72839506172835" y="536.4938271604939" type="curve" smooth="yes"/>
      <point x="447.29629629629625" y="536.4938271604939"/>
      <point x="534.7654320987654" y="619.0370370370371"/>
      <point x="534.7654320987654" y="797.0740740740741" type="curve" smooth="yes"/>
      <point x="534.7654320987654" y="1181.1851851851852" type="line"/>
      <point x="353.8024691358025" y="1180.8395061728395" type="line"/>
      <point x="353.8024691358025" y="798.9259259259259" type="line" smooth="yes"/>
      <point x="353.8024691358025" y="716.9012345679013"/>
      <point x="330.0740740740741" y="675.4074074074074"/>
      <point x="267.59259259259255" y="675.4074074074074" type="curve" smooth="yes"/>
      <point x="228.09876543209873" y="675.4074074074074"/>
      <point x="195.33333333333331" y="692.1728395061729"/>
      <point x="157.67901234567898" y="723.1358024691358" type="curve"/>
      <point x="42.382716049382715" y="628.0370370370371" type="line"/>
    </contour>
    <contour>
      <point x="783.3086419753087" y="497.7530864197531" type="curve" smooth="yes"/>
      <point x="845.1975308641976" y="497.7530864197531"/>
      <point x="905.0864197530864" y="502.71604938271605"/>
      <point x="958.320987654321" y="511.67901234567904" type="curve"/>
      <point x="958.320987654321" y="679.716049382716" type="line"/>
      <point x="902.358024691358" y="669.0987654320987"/>
      <point x="836.1234567901234" y="659.4814814814814"/>
      <point x="754.0740740740741" y="659.4814814814814" type="curve" smooth="yes"/>
      <point x="660.4320987654321" y="659.4814814814814"/>
      <point x="547.9382716049382" y="674.5185185185185"/>
      <point x="457.679012345679" y="712.2469135802469" type="curve"/>
      <point x="404.28395061728395" y="572.1358024691358" type="line"/>
      <point x="511.32098765432096" y="520.7530864197531"/>
      <point x="652.1975308641976" y="497.7530864197531"/>
    </contour>
    <contour>
      <point x="-38.012345679012334" y="1117.4814814814815" type="line"/>
      <point x="799.6296296296296" y="1117.4814814814815" type="line"/>
      <point x="799.6296296296296" y="1273.1728395061727" type="line"/>
      <point x="-38.012345679012334" y="1273.1728395061727" type="line"/>
    </contour>
  </outline>
</glyph>
<glyph name="s_ta_ra-deva" format="2">
  <advance width="1857.0123456790122"/>
  <anchor x="1561.679012345679" y="27.34567901234568" name="bottom"/>
  <anchor x="1034.0493827160494" y="1273.5185185185185" name="candra"/>
  <anchor x="1561.679012345679" y="1287.3456790123457" name="top"/>
  <anchor x="110.03703703703704" y="119.81481481481484" name="nukta"/>
  <outline>
    <contour>
      <point x="1473.8518518518517" y="521.2469135802469" type="curve"/>
      <point x="1565.1358024691358" y="600.3827160493827" type="line"/>
      <point x="1322.9382716049383" y="911.7407407407408"/>
      <point x="1215.5555555555554" y="952.1111111111111"/>
      <point x="1101.7530864197531" y="952.1111111111111" type="curve" smooth="yes"/>
      <point x="864.1481481481482" y="952.1111111111111"/>
      <point x="752.1111111111111" y="688.5925925925926"/>
      <point x="540.1111111111111" y="688.5925925925926" type="curve" smooth="yes"/>
      <point x="505.7654320987654" y="688.5925925925926"/>
      <point x="462.99999999999994" y="696.9753086419753"/>
      <point x="426.2222222222222" y="708.9382716049382" type="curve"/>
      <point x="371.7901234567901" y="592.5679012345679" type="line"/>
      <point x="431.679012345679" y="558.0246913580247"/>
      <point x="500.5679012345679" y="538.1358024691358"/>
      <point x="585.1234567901234" y="538.1358024691358" type="curve" smooth="yes"/>
      <point x="797.5679012345679" y="538.1358024691358"/>
      <point x="969.7160493827159" y="783.4567901234568"/>
      <point x="1122.8024691358025" y="783.4567901234568" type="curve" smooth="yes"/>
      <point x="1219.2469135802469" y="783.4567901234568"/>
      <point x="1302.1604938271605" y="704.395061728395"/>
    </contour>
    <contour>
      <point x="958.5802469135803" y="9.259259259259268" type="line"/>
      <point x="1564.1728395061727" y="492.1234567901235" type="line"/>
      <point x="1516.1604938271605" y="634.6543209876543" type="line"/>
      <point x="849.1728395061729" y="140.55555555555554" type="line"/>
    </contour>
    <contour>
      <point x="1471.1975308641975" y="1.6172839506172823" type="line"/>
      <point x="1652.1604938271605" y="1.6172839506172823" type="line"/>
      <point x="1652.1604938271605" y="1152.1481481481483" type="line"/>
      <point x="1471.1975308641975" y="1152.1481481481483" type="line"/>
    </contour>
    <contour>
      <point x="579.0864197530864" y="1117.4814814814815" type="line"/>
      <point x="1873.9382716049383" y="1117.4814814814815" type="line"/>
      <point x="1873.9382716049383" y="1273.1728395061727" type="line"/>
      <point x="579.0864197530864" y="1273.1728395061727" type="line"/>
    </contour>
    <component base="ra-deva" xOffset="-21.43209876543209"/>
  </outline>
</glyph>
<glyph name="seven.tf" format="2">
  <advance width="1003.0"/>
  <outline>
    <contour>
      <point x="342.8641975308642" y="-152.92592592592592" type="curve"/>
      <point x="539.2098765432098" y="-152.92592592592592" type="line"/>
      <point x="555.2098765432098" y="360.7283950617284"/>
      <point x="621.7037037037037" y="666.9876543209876"/>
      <point x="929.4320987654321" y="1059.5555555555557" type="curve"/>
      <point x="929.4320987654321" y="1176.9259259259259" type="line"/>
      <point x="76.9135802469136" y="1176.9259259259259" type="line"/>
      <point x="76.9135802469136" y="1013.7407407407408" type="line"/>
      <point x="716.4320987654321" y="1013.7407407407408" type="line"/>
      <point x="461.01234567901236" y="655.9753086419753"/>
      <point x="359.8641975308642" y="333.17283950617286"/>
    </contour>
  </outline>
</glyph>
<glyph name="six.tf" format="2">
  <advance width="1003.0"/>
  <outline>
    <contour>
      <point x="534.8395061728395" y="-25.0" type="curve" smooth="yes"/>
      <point x="749.3086419753087" y="-25.0"/>
      <point x="928.8148148148148" y="147.41975308641975"/>
      <point x="928.8148148148148" y="400.9259259259259" type="curve" smooth="yes"/>
      <point x="928.8148148148148" y="697.0864197530864"/>
      <point x="777.9629629629629" y="837.1604938271605"/>
      <point x="552.9259259259259" y="837.1604938271605" type="curve" smooth="yes"/>
      <point x="451.39506172839504" y="837.1604938271605"/>
      <point x="335.7037037037037" y="776.4320987654321"/>
      <point x="256.2469135802469" y="678.6296296296296" type="curve"/>
      <point x="261.28395061728395" y="1079.5185185185185"/>
      <point x="411.5432098765432" y="1210.1604938271605"/>
      <point x="587.8395061728395" y="1210.1604938271605" type="curve" smooth="yes"/>
      <point x="668.2222222222223" y="1210.1604938271605"/>
      <point x="746.2592592592592" y="1179.5061728395062"/>
      <point x="796.9876543209876" y="1118.3950617283951" type="curve"/>
      <point x="899.8518518518518" y="1235.4938271604938" type="line"/>
      <point x="825.2716049382716" y="1316.111111111111"/>
      <point x="725.0370370370371" y="1368.037037037037"/>
      <point x="578.604938271605" y="1368.037037037037" type="curve" smooth="yes"/>
      <point x="317.3703703703704" y="1368.037037037037"/>
      <point x="76.4814814814815" y="1162.1481481481483"/>
      <point x="76.4814814814815" y="637.5061728395061" type="curve" smooth="yes"/>
      <point x="76.4814814814815" y="205.80246913580248"/>
      <point x="272.5679012345679" y="-25.0"/>
    </contour>
    <contour>
      <point x="532.5679012345679" y="123.95061728395059" type="curve" smooth="yes"/>
      <point x="378.6296296296296" y="123.95061728395059"/>
      <point x="275.32098765432096" y="278.2345679012346"/>
      <point x="260.2469135802469" y="532.1851851851852" type="curve"/>
      <point x="343.4691358024691" y="650.7530864197531"/>
      <point x="441.03703703703707" y="696.1358024691358"/>
      <point x="520.4938271604939" y="696.1358024691358" type="curve" smooth="yes"/>
      <point x="670.320987654321" y="696.1358024691358"/>
      <point x="749.7037037037037" y="586.4938271604939"/>
      <point x="749.7037037037037" y="400.9259259259259" type="curve" smooth="yes"/>
      <point x="749.7037037037037" y="233.39506172839506"/>
      <point x="654.8641975308642" y="123.95061728395059"/>
    </contour>
  </outline>
</glyph>
<glyph name="t_k_ssa-deva" format="2">
  <advance width="1976.0740740740741"/>
  <anchor x="34.7530864197531" y="47.08641975308641" name="nukta"/>
  <anchor x="1700.7283950617284" y="27.34567901234568" name="bottom"/>
  <anchor x="1393.4197530864199" y="1273.5185185185185" name="candra"/>
  <anchor x="1700.7283950617284" y="1287.3456790123457" name="top"/>
  <outline>
    <contour>
      <point x="324.8641975308642" y="-1.3086419753086411" type="curve"/>
      <point x="467.08641975308643" y="93.86419753086417" type="line"/>
      <point x="314.08641975308643" y="317.9506172839506"/>
      <point x="253.2222222222222" y="446.58024691358025"/>
      <point x="253.2222222222222" y="550.2222222222223" type="curve" smooth="yes"/>
      <point x="253.2222222222222" y="663.7407407407408"/>
      <point x="313.2098765432099" y="704.4814814814815"/>
      <point x="439.69135802469134" y="704.4814814814815" type="curve" smooth="yes"/>
      <point x="946.1728395061729" y="704.4814814814815" type="line"/>
      <point x="912.5432098765432" y="857.6296296296296" type="line"/>
      <point x="412.77777777777777" y="857.6296296296296" type="line" smooth="yes"/>
      <point x="189.09876543209873" y="857.6296296296296"/>
      <point x="68.25925925925927" y="747.2098765432098"/>
      <point x="68.25925925925927" y="577.3827160493827" type="curve" smooth="yes"/>
      <point x="68.25925925925927" y="382.2592592592593"/>
      <point x="196.28395061728398" y="164.58024691358025"/>
    </contour>
    <contour>
      <point x="-16.580246913580243" y="1117.4814814814815" type="line"/>
      <point x="640.0" y="1117.4814814814815" type="line"/>
      <point x="640.0" y="1273.1728395061727" type="line"/>
      <point x="-16.580246913580243" y="1273.1728395061727" type="line"/>
    </contour>
    <component base="k_ssa-deva" xOffset="565.2962962962963"/>
  </outline>
</glyph>
<glyph name="th_na-deva" format="2">
  <advance width="1241.716049382716"/>
  <anchor x="962.0987654320987" y="0.0" name="bottom"/>
  <anchor x="878.0123456790124" y="1273.1728395061727" name="candra"/>
  <anchor x="202.0" y="111.0" name="nukta"/>
  <anchor x="964.0617283950617" y="1273.1728395061727" name="top"/>
  <outline>
    <contour>
      <point x="491.80246913580254" y="-133.38271604938268" type="line"/>
      <point x="530.8148148148149" y="-102.91358024691355"/>
      <point x="546.6666666666667" y="-72.7901234567901"/>
      <point x="548.320987654321" y="-44.62962962962962" type="curve" smooth="yes"/>
      <point x="549.9753086419753" y="-18.08641975308641"/>
      <point x="540.6666666666667" y="7.802469135802474"/>
      <point x="526.3580246913581" y="30.074074074074076" type="curve" smooth="yes"/>
      <point x="479.60493827160496" y="101.90123456790126" type="line"/>
      <point x="462.91358024691357" y="43.32098765432101" type="line"/>
      <point x="888.9259259259259" y="374.0617283950617" type="line"/>
      <point x="787.6543209876544" y="460.67901234567904" type="line"/>
      <point x="208.4444444444445" y="75.8395061728395" type="line"/>
      <point x="272.9506172839507" y="-46.56790123456788" type="line"/>
    </contour>
    <component base="tha-deva"/>
  </outline>
</glyph>
